<mxfile modified="2022-09-28T21:47:19.912Z" host="app.diagrams.net" agent="5.0 (Windows NT 10.0; Win64; x64) AppleWebKit/537.36 (KHTML, like Gecko) Chrome/105.0.0.0 Safari/537.36" etag="ekLkrlb6CPp611Bpmb1a" version="20.3.6" type="github">
  <diagram id="Ht1M8jgEwFfnCIfOTk4-" name="Page-1">
    <mxGraphModel dx="1303" dy="-1220" grid="1" gridSize="10" guides="1" tooltips="1" connect="1" arrows="1" fold="1" page="1" pageScale="1" pageWidth="2800" pageHeight="2000" math="0" shadow="0">
      <root>
        <mxCell id="0" />
        <mxCell id="1" parent="0" />
        <mxCell id="6-CKkYnuEq_il0SPNIXb-1" value="Aula virtual de aprendizaje" style="text;html=1;resizable=0;points=[];autosize=1;align=left;verticalAlign=top;spacingTop=-4;fontSize=30;fontStyle=1;labelBackgroundColor=none;fontFamily=Poppins;fontSource=https%3A%2F%2Ffonts.googleapis.com%2Fcss%3Ffamily%3DPoppins;container=0;" parent="1" vertex="1">
          <mxGeometry x="63" y="2060" width="420" height="40" as="geometry" />
        </mxCell>
        <mxCell id="6-CKkYnuEq_il0SPNIXb-2" value="Architectural Proposal" style="text;html=1;resizable=0;points=[];autosize=1;align=left;verticalAlign=top;spacingTop=-4;fontSize=16;labelBackgroundColor=none;fontFamily=Poppins;fontSource=https%3A%2F%2Ffonts.googleapis.com%2Fcss%3Ffamily%3DPoppins;container=0;" parent="1" vertex="1">
          <mxGeometry x="63" y="2100" width="200" height="30" as="geometry" />
        </mxCell>
        <mxCell id="6-CKkYnuEq_il0SPNIXb-3" value="" style="line;strokeWidth=2;html=1;fontSize=14;labelBackgroundColor=none;fontFamily=Poppins;fontSource=https%3A%2F%2Ffonts.googleapis.com%2Fcss%3Ffamily%3DPoppins;container=0;" parent="1" vertex="1">
          <mxGeometry x="63" y="2130" width="2675" height="10" as="geometry" />
        </mxCell>
        <mxCell id="qXVEeAKWjUjW_dKbTTQ3-74" value="Actors" style="swimlane;fontSize=14;align=center;swimlaneFillColor=#f4f4f4;fillColor=#f4f4f4;startSize=20;container=0;pointerEvents=0;collapsible=0;recursiveResize=0;strokeWidth=2;fontFamily=Poppins;fontSource=https%3A%2F%2Ffonts.googleapis.com%2Fcss%3Ffamily%3DPoppins;fontStyle=1" parent="1" vertex="1">
          <mxGeometry x="63" y="2175" width="179.5" height="1405" as="geometry" />
        </mxCell>
        <mxCell id="qXVEeAKWjUjW_dKbTTQ3-77" value="Channels" style="swimlane;fontSize=14;align=center;swimlaneFillColor=#f4f4f4;fillColor=#f4f4f4;startSize=22;container=0;pointerEvents=0;collapsible=0;recursiveResize=0;strokeWidth=2;fontFamily=Poppins;fontSource=https%3A%2F%2Ffonts.googleapis.com%2Fcss%3Ffamily%3DPoppins;" parent="1" vertex="1">
          <mxGeometry x="63" y="3578" width="179.5" height="362" as="geometry" />
        </mxCell>
        <mxCell id="UnBP7zHp0_nx1okpZba--975" value="" style="rounded=0;whiteSpace=wrap;html=1;labelBackgroundColor=none;strokeWidth=2;fontFamily=Poppins;fontSource=https%3A%2F%2Ffonts.googleapis.com%2Fcss%3Ffamily%3DPoppins;fillColor=none;container=0;" vertex="1" parent="1">
          <mxGeometry x="63" y="2175" width="2667" height="1765" as="geometry" />
        </mxCell>
        <mxCell id="qXVEeAKWjUjW_dKbTTQ3-148" value="&amp;lt;" style="outlineConnect=0;fontColor=#232F3E;gradientColor=none;fillColor=#333333;strokeColor=none;dashed=0;verticalLabelPosition=bottom;verticalAlign=top;align=center;html=1;fontSize=12;fontStyle=0;aspect=fixed;pointerEvents=1;shape=mxgraph.aws4.user;labelBackgroundColor=none;strokeWidth=0;fontFamily=Poppins;fontSource=https%3A%2F%2Ffonts.googleapis.com%2Fcss%3Ffamily%3DPoppins;container=0;" parent="1" vertex="1">
          <mxGeometry x="114.69" y="3420.5" width="75" height="75" as="geometry" />
        </mxCell>
        <mxCell id="qXVEeAKWjUjW_dKbTTQ3-147" value="Develop/Tester" style="outlineConnect=0;fontColor=#232F3E;gradientColor=none;fillColor=#333333;strokeColor=none;dashed=0;verticalLabelPosition=bottom;verticalAlign=top;align=center;html=1;fontSize=12;fontStyle=0;aspect=fixed;pointerEvents=1;shape=mxgraph.aws4.user;labelBackgroundColor=none;strokeWidth=0;fontFamily=Poppins;fontSource=https%3A%2F%2Ffonts.googleapis.com%2Fcss%3Ffamily%3DPoppins;container=0;" parent="1" vertex="1">
          <mxGeometry x="114.69" y="3257.5" width="75" height="75" as="geometry" />
        </mxCell>
        <mxCell id="qXVEeAKWjUjW_dKbTTQ3-166" value="DevOps 4" style="outlineConnect=0;fontColor=#232F3E;gradientColor=none;fillColor=#333333;strokeColor=none;dashed=0;verticalLabelPosition=bottom;verticalAlign=top;align=center;html=1;fontSize=12;fontStyle=0;aspect=fixed;pointerEvents=1;shape=mxgraph.aws4.user;labelBackgroundColor=none;strokeWidth=0;fontFamily=Poppins;fontSource=https%3A%2F%2Ffonts.googleapis.com%2Fcss%3Ffamily%3DPoppins;container=0;" parent="1" vertex="1">
          <mxGeometry x="114.69" y="3086.5" width="75" height="75" as="geometry" />
        </mxCell>
        <mxCell id="qXVEeAKWjUjW_dKbTTQ3-168" value="Architecture" style="outlineConnect=0;fontColor=#232F3E;gradientColor=none;fillColor=#333333;strokeColor=none;dashed=0;verticalLabelPosition=bottom;verticalAlign=top;align=center;html=1;fontSize=12;fontStyle=0;aspect=fixed;pointerEvents=1;shape=mxgraph.aws4.user;labelBackgroundColor=none;strokeWidth=0;fontFamily=Poppins;fontSource=https%3A%2F%2Ffonts.googleapis.com%2Fcss%3Ffamily%3DPoppins;container=0;" parent="1" vertex="1">
          <mxGeometry x="114.69" y="2925.5" width="75" height="75" as="geometry" />
        </mxCell>
        <mxCell id="qXVEeAKWjUjW_dKbTTQ3-170" value="SRE" style="outlineConnect=0;fontColor=#232F3E;gradientColor=none;fillColor=#333333;strokeColor=none;dashed=0;verticalLabelPosition=bottom;verticalAlign=top;align=center;html=1;fontSize=12;fontStyle=0;aspect=fixed;pointerEvents=1;shape=mxgraph.aws4.user;labelBackgroundColor=none;strokeWidth=0;fontFamily=Poppins;fontSource=https%3A%2F%2Ffonts.googleapis.com%2Fcss%3Ffamily%3DPoppins;container=0;" parent="1" vertex="1">
          <mxGeometry x="114.69" y="2753.5" width="75" height="75" as="geometry" />
        </mxCell>
        <mxCell id="qXVEeAKWjUjW_dKbTTQ3-172" value="Project Managment" style="outlineConnect=0;fontColor=#232F3E;gradientColor=none;fillColor=#333333;strokeColor=none;dashed=0;verticalLabelPosition=bottom;verticalAlign=top;align=center;html=1;fontSize=12;fontStyle=0;aspect=fixed;pointerEvents=1;shape=mxgraph.aws4.user;labelBackgroundColor=none;strokeWidth=0;fontFamily=Poppins;fontSource=https%3A%2F%2Ffonts.googleapis.com%2Fcss%3Ffamily%3DPoppins;container=0;" parent="1" vertex="1">
          <mxGeometry x="115.81" y="2578.5" width="75" height="75" as="geometry" />
        </mxCell>
        <mxCell id="qXVEeAKWjUjW_dKbTTQ3-140" value="Teachers" style="outlineConnect=0;fontColor=#232F3E;gradientColor=none;fillColor=#232F3E;strokeColor=none;dashed=0;verticalLabelPosition=bottom;verticalAlign=top;align=center;html=1;fontSize=12;fontStyle=0;aspect=fixed;pointerEvents=1;shape=mxgraph.aws4.users;labelBackgroundColor=none;fontFamily=Poppins;fontSource=https%3A%2F%2Ffonts.googleapis.com%2Fcss%3Ffamily%3DPoppins;container=0;" parent="1" vertex="1">
          <mxGeometry x="115.81" y="2416.5" width="75" height="75" as="geometry" />
        </mxCell>
        <mxCell id="qXVEeAKWjUjW_dKbTTQ3-76" value="Pupils" style="outlineConnect=0;fontColor=#232F3E;gradientColor=none;fillColor=#232F3E;strokeColor=none;dashed=0;verticalLabelPosition=bottom;verticalAlign=top;align=center;html=1;fontSize=12;fontStyle=0;aspect=fixed;pointerEvents=1;shape=mxgraph.aws4.users;labelBackgroundColor=none;fontFamily=Poppins;fontSource=https%3A%2F%2Ffonts.googleapis.com%2Fcss%3Ffamily%3DPoppins;container=0;" parent="1" vertex="1">
          <mxGeometry x="114.69" y="2259.5" width="75" height="75" as="geometry" />
        </mxCell>
        <mxCell id="qXVEeAKWjUjW_dKbTTQ3-79" value="&lt;font style=&quot;font-size: 11px;&quot;&gt;Web&lt;/font&gt;" style="sketch=0;aspect=fixed;pointerEvents=1;shadow=0;dashed=0;html=1;strokeColor=#333333;labelPosition=center;verticalLabelPosition=bottom;verticalAlign=top;align=center;fillColor=none;shape=mxgraph.azure.computer;labelBorderColor=none;fillStyle=auto;strokeWidth=3;fontFamily=Poppins;fontSize=17;fontColor=#000000;gradientColor=none;fontSource=https%3A%2F%2Ffonts.googleapis.com%2Fcss%3Ffamily%3DPoppins;container=0;" parent="1" vertex="1">
          <mxGeometry x="111.08" y="3731" width="83.33" height="75" as="geometry" />
        </mxCell>
        <mxCell id="qXVEeAKWjUjW_dKbTTQ3-164" value="" style="sketch=0;outlineConnect=0;fontColor=#232F3E;gradientColor=none;strokeColor=#ffffff;fillColor=#232F3E;dashed=0;verticalLabelPosition=middle;verticalAlign=bottom;align=center;html=1;whiteSpace=wrap;fontSize=10;fontStyle=1;spacing=3;shape=mxgraph.aws4.productIcon;prIcon=mxgraph.aws4.shield;labelBorderColor=none;fillStyle=auto;strokeWidth=3;fontFamily=Poppins;shadow=0;fontSource=https%3A%2F%2Ffonts.googleapis.com%2Fcss%3Ffamily%3DPoppins;container=0;" parent="1" vertex="1">
          <mxGeometry x="364" y="2266" width="80" height="83" as="geometry" />
        </mxCell>
        <mxCell id="qXVEeAKWjUjW_dKbTTQ3-165" value="&lt;font data-font-src=&quot;https://fonts.googleapis.com/css?family=Poppins&quot;&gt;&lt;b&gt;AWS Shield&lt;/b&gt;&lt;br&gt;Managed DDoS protection&lt;/font&gt;" style="text;html=1;align=center;verticalAlign=middle;resizable=0;points=[];autosize=1;strokeColor=none;fillColor=none;fontSize=12;fontFamily=Poppins;fontColor=#000000;fontSource=https%3A%2F%2Ffonts.googleapis.com%2Fcss%3Ffamily%3DPoppins;container=0;" parent="1" vertex="1">
          <mxGeometry x="304" y="2347" width="180" height="40" as="geometry" />
        </mxCell>
        <mxCell id="qXVEeAKWjUjW_dKbTTQ3-179" value="&lt;b&gt;AWS Certificate manager&lt;/b&gt;&lt;br&gt;SSL/TLS certificates" style="sketch=0;points=[[0,0,0],[0.25,0,0],[0.5,0,0],[0.75,0,0],[1,0,0],[0,1,0],[0.25,1,0],[0.5,1,0],[0.75,1,0],[1,1,0],[0,0.25,0],[0,0.5,0],[0,0.75,0],[1,0.25,0],[1,0.5,0],[1,0.75,0]];outlineConnect=0;fontColor=#232F3E;gradientColor=#F54749;gradientDirection=north;fillColor=#C7131F;strokeColor=#ffffff;dashed=0;verticalLabelPosition=bottom;verticalAlign=top;align=center;html=1;fontSize=12;fontStyle=0;aspect=fixed;shape=mxgraph.aws4.resourceIcon;resIcon=mxgraph.aws4.certificate_manager_3;shadow=0;labelBorderColor=none;fillStyle=auto;strokeWidth=3;fontFamily=Poppins;fontSource=https%3A%2F%2Ffonts.googleapis.com%2Fcss%3Ffamily%3DPoppins;container=0;" parent="1" vertex="1">
          <mxGeometry x="558" y="2271" width="78" height="78" as="geometry" />
        </mxCell>
        <mxCell id="qXVEeAKWjUjW_dKbTTQ3-158" value="&lt;b&gt;AWS GuardDuty&lt;/b&gt;" style="sketch=0;points=[[0,0,0],[0.25,0,0],[0.5,0,0],[0.75,0,0],[1,0,0],[0,1,0],[0.25,1,0],[0.5,1,0],[0.75,1,0],[1,1,0],[0,0.25,0],[0,0.5,0],[0,0.75,0],[1,0.25,0],[1,0.5,0],[1,0.75,0]];outlineConnect=0;fontColor=#232F3E;gradientColor=#F54749;gradientDirection=north;fillColor=#C7131F;strokeColor=#ffffff;dashed=0;verticalLabelPosition=bottom;verticalAlign=top;align=center;html=1;fontSize=12;fontStyle=0;aspect=fixed;shape=mxgraph.aws4.resourceIcon;resIcon=mxgraph.aws4.guardduty;fontFamily=Poppins;fontSource=https%3A%2F%2Ffonts.googleapis.com%2Fcss%3Ffamily%3DPoppins;container=0;" parent="1" vertex="1">
          <mxGeometry x="745" y="2271" width="78" height="78" as="geometry" />
        </mxCell>
        <mxCell id="qXVEeAKWjUjW_dKbTTQ3-161" value="&lt;b&gt;Amazon Inspector&lt;/b&gt;" style="sketch=0;points=[[0,0,0],[0.25,0,0],[0.5,0,0],[0.75,0,0],[1,0,0],[0,1,0],[0.25,1,0],[0.5,1,0],[0.75,1,0],[1,1,0],[0,0.25,0],[0,0.5,0],[0,0.75,0],[1,0.25,0],[1,0.5,0],[1,0.75,0]];outlineConnect=0;fontColor=#232F3E;gradientColor=#F54749;gradientDirection=north;fillColor=#C7131F;strokeColor=#ffffff;dashed=0;verticalLabelPosition=bottom;verticalAlign=top;align=center;html=1;fontSize=12;fontStyle=0;aspect=fixed;shape=mxgraph.aws4.resourceIcon;resIcon=mxgraph.aws4.inspector;fontFamily=Poppins;fontSource=https%3A%2F%2Ffonts.googleapis.com%2Fcss%3Ffamily%3DPoppins;container=0;" parent="1" vertex="1">
          <mxGeometry x="934" y="2271" width="78" height="78" as="geometry" />
        </mxCell>
        <mxCell id="qXVEeAKWjUjW_dKbTTQ3-160" value="&lt;b&gt;AWS IAM&lt;/b&gt;&lt;br&gt;Identity and Access Managment" style="sketch=0;points=[[0,0,0],[0.25,0,0],[0.5,0,0],[0.75,0,0],[1,0,0],[0,1,0],[0.25,1,0],[0.5,1,0],[0.75,1,0],[1,1,0],[0,0.25,0],[0,0.5,0],[0,0.75,0],[1,0.25,0],[1,0.5,0],[1,0.75,0]];outlineConnect=0;fontColor=#232F3E;gradientColor=#F54749;gradientDirection=north;fillColor=#C7131F;strokeColor=#ffffff;dashed=0;verticalLabelPosition=bottom;verticalAlign=top;align=center;html=1;fontSize=12;fontStyle=0;aspect=fixed;shape=mxgraph.aws4.resourceIcon;resIcon=mxgraph.aws4.identity_and_access_management;fontFamily=Poppins;fontSource=https%3A%2F%2Ffonts.googleapis.com%2Fcss%3Ffamily%3DPoppins;container=0;" parent="1" vertex="1">
          <mxGeometry x="1123.06" y="2271" width="78" height="78" as="geometry" />
        </mxCell>
        <mxCell id="UnBP7zHp0_nx1okpZba--4" value="AWS Cloud" style="points=[[0,0],[0.25,0],[0.5,0],[0.75,0],[1,0],[1,0.25],[1,0.5],[1,0.75],[1,1],[0.75,1],[0.5,1],[0.25,1],[0,1],[0,0.75],[0,0.5],[0,0.25]];outlineConnect=0;gradientColor=none;html=1;whiteSpace=wrap;fontSize=12;fontStyle=0;container=0;pointerEvents=0;collapsible=0;recursiveResize=0;shape=mxgraph.aws4.group;grIcon=mxgraph.aws4.group_aws_cloud_alt;strokeColor=#232F3E;fillColor=none;verticalAlign=top;align=left;spacingLeft=30;fontColor=#232F3E;dashed=0;fontFamily=Poppins;fontSource=https%3A%2F%2Ffonts.googleapis.com%2Fcss%3Ffamily%3DPoppins;" vertex="1" parent="1">
          <mxGeometry x="263" y="2223" width="2261" height="1685" as="geometry" />
        </mxCell>
        <mxCell id="UnBP7zHp0_nx1okpZba--24" value="Web UI Component" style="fillColor=none;strokeColor=#5A6C86;dashed=1;verticalAlign=top;fontStyle=0;fontColor=#5A6C86;fontFamily=Poppins;fontSource=https%3A%2F%2Ffonts.googleapis.com%2Fcss%3Ffamily%3DPoppins;spacing=2;strokeWidth=2;rotation=0;container=0;" vertex="1" parent="1">
          <mxGeometry x="304" y="2433.5" width="510" height="501.5" as="geometry" />
        </mxCell>
        <mxCell id="UnBP7zHp0_nx1okpZba--885" value="&lt;b&gt;Amazon CloudWatch&lt;/b&gt;" style="sketch=0;points=[[0,0,0],[0.25,0,0],[0.5,0,0],[0.75,0,0],[1,0,0],[0,1,0],[0.25,1,0],[0.5,1,0],[0.75,1,0],[1,1,0],[0,0.25,0],[0,0.5,0],[0,0.75,0],[1,0.25,0],[1,0.5,0],[1,0.75,0]];points=[[0,0,0],[0.25,0,0],[0.5,0,0],[0.75,0,0],[1,0,0],[0,1,0],[0.25,1,0],[0.5,1,0],[0.75,1,0],[1,1,0],[0,0.25,0],[0,0.5,0],[0,0.75,0],[1,0.25,0],[1,0.5,0],[1,0.75,0]];outlineConnect=0;fontColor=#232F3E;gradientColor=#F34482;gradientDirection=north;fillColor=#BC1356;strokeColor=#ffffff;dashed=0;verticalLabelPosition=bottom;verticalAlign=top;align=center;html=1;fontSize=12;fontStyle=0;aspect=fixed;shape=mxgraph.aws4.resourceIcon;resIcon=mxgraph.aws4.cloudwatch_2;strokeWidth=2;fontFamily=Poppins;fontSource=https%3A%2F%2Ffonts.googleapis.com%2Fcss%3Ffamily%3DPoppins;container=0;" vertex="1" parent="1">
          <mxGeometry x="2024" y="2268.25" width="78" height="78" as="geometry" />
        </mxCell>
        <mxCell id="UnBP7zHp0_nx1okpZba--886" value="&lt;b&gt;Amazon CloudTrail&lt;/b&gt;" style="sketch=0;points=[[0,0,0],[0.25,0,0],[0.5,0,0],[0.75,0,0],[1,0,0],[0,1,0],[0.25,1,0],[0.5,1,0],[0.75,1,0],[1,1,0],[0,0.25,0],[0,0.5,0],[0,0.75,0],[1,0.25,0],[1,0.5,0],[1,0.75,0]];points=[[0,0,0],[0.25,0,0],[0.5,0,0],[0.75,0,0],[1,0,0],[0,1,0],[0.25,1,0],[0.5,1,0],[0.75,1,0],[1,1,0],[0,0.25,0],[0,0.5,0],[0,0.75,0],[1,0.25,0],[1,0.5,0],[1,0.75,0]];outlineConnect=0;fontColor=#232F3E;gradientColor=#F34482;gradientDirection=north;fillColor=#BC1356;strokeColor=#ffffff;dashed=0;verticalLabelPosition=bottom;verticalAlign=top;align=center;html=1;fontSize=12;fontStyle=0;aspect=fixed;shape=mxgraph.aws4.resourceIcon;resIcon=mxgraph.aws4.cloudtrail;container=0;" vertex="1" parent="1">
          <mxGeometry x="2394" y="2273.75" width="78" height="78" as="geometry" />
        </mxCell>
        <mxCell id="UnBP7zHp0_nx1okpZba--924" value="AWS Config" style="sketch=0;points=[[0,0,0],[0.25,0,0],[0.5,0,0],[0.75,0,0],[1,0,0],[0,1,0],[0.25,1,0],[0.5,1,0],[0.75,1,0],[1,1,0],[0,0.25,0],[0,0.5,0],[0,0.75,0],[1,0.25,0],[1,0.5,0],[1,0.75,0]];points=[[0,0,0],[0.25,0,0],[0.5,0,0],[0.75,0,0],[1,0,0],[0,1,0],[0.25,1,0],[0.5,1,0],[0.75,1,0],[1,1,0],[0,0.25,0],[0,0.5,0],[0,0.75,0],[1,0.25,0],[1,0.5,0],[1,0.75,0]];outlineConnect=0;fontColor=#232F3E;gradientColor=#F34482;gradientDirection=north;fillColor=#BC1356;strokeColor=#ffffff;dashed=0;verticalLabelPosition=bottom;verticalAlign=top;align=center;html=1;fontSize=12;fontStyle=1;aspect=fixed;shape=mxgraph.aws4.resourceIcon;resIcon=mxgraph.aws4.config;strokeWidth=2;fontFamily=Poppins;fontSource=https%3A%2F%2Ffonts.googleapis.com%2Fcss%3Ffamily%3DPoppins;container=0;" vertex="1" parent="1">
          <mxGeometry x="2210" y="2268.25" width="78" height="78" as="geometry" />
        </mxCell>
        <mxCell id="UnBP7zHp0_nx1okpZba--863" value="" style="endArrow=classic;html=1;rounded=0;fontFamily=Poppins;fontSource=https%3A%2F%2Ffonts.googleapis.com%2Fcss%3Ffamily%3DPoppins;edgeStyle=orthogonalEdgeStyle;exitX=0.5;exitY=1;exitDx=0;exitDy=0;exitPerimeter=0;" edge="1" parent="1" source="UnBP7zHp0_nx1okpZba--751" target="UnBP7zHp0_nx1okpZba--805">
          <mxGeometry width="50" height="50" relative="1" as="geometry">
            <mxPoint x="2223" y="3269" as="sourcePoint" />
            <mxPoint x="1422" y="2993.25" as="targetPoint" />
            <Array as="points">
              <mxPoint x="2154" y="3278" />
              <mxPoint x="2154" y="3405" />
              <mxPoint x="1784" y="3405" />
              <mxPoint x="1784" y="3025" />
              <mxPoint x="1422" y="3025" />
            </Array>
          </mxGeometry>
        </mxCell>
        <mxCell id="UnBP7zHp0_nx1okpZba--933" style="edgeStyle=orthogonalEdgeStyle;rounded=0;orthogonalLoop=1;jettySize=auto;html=1;exitX=0.5;exitY=0;exitDx=0;exitDy=0;exitPerimeter=0;fontFamily=Poppins;fontSource=https%3A%2F%2Ffonts.googleapis.com%2Fcss%3Ffamily%3DPoppins;startArrow=none;startFill=0;endArrow=classic;endFill=1;" edge="1" parent="1" source="UnBP7zHp0_nx1okpZba--753">
          <mxGeometry relative="1" as="geometry">
            <mxPoint x="1734" y="2855" as="targetPoint" />
            <Array as="points">
              <mxPoint x="2151" y="2975" />
              <mxPoint x="1814" y="2975" />
              <mxPoint x="1814" y="2855" />
            </Array>
          </mxGeometry>
        </mxCell>
        <mxCell id="UnBP7zHp0_nx1okpZba--30" value="&lt;font style=&quot;font-size: 12px;&quot;&gt;&lt;b&gt;&amp;nbsp; Amazon Route 53&amp;nbsp;&amp;nbsp;&lt;/b&gt;&lt;br&gt;&amp;nbsp; DNS Service&amp;nbsp;&amp;nbsp;&lt;/font&gt;" style="sketch=0;points=[[0,0,0],[0.25,0,0],[0.5,0,0],[0.75,0,0],[1,0,0],[0,1,0],[0.25,1,0],[0.5,1,0],[0.75,1,0],[1,1,0],[0,0.25,0],[0,0.5,0],[0,0.75,0],[1,0.25,0],[1,0.5,0],[1,0.75,0]];outlineConnect=0;fontColor=#232F3E;gradientColor=#945DF2;gradientDirection=north;fillColor=#5A30B5;strokeColor=#ffffff;dashed=0;verticalLabelPosition=middle;verticalAlign=middle;align=right;html=1;fontSize=12;fontStyle=0;aspect=fixed;shape=mxgraph.aws4.resourceIcon;resIcon=mxgraph.aws4.route_53;labelBorderColor=none;fillStyle=auto;strokeWidth=3;fontFamily=Poppins;fontSource=https%3A%2F%2Ffonts.googleapis.com%2Fcss%3Ffamily%3DPoppins;labelPosition=left;container=0;" vertex="1" parent="1">
          <mxGeometry x="484" y="2494.051640798227" width="78" height="78" as="geometry" />
        </mxCell>
        <mxCell id="UnBP7zHp0_nx1okpZba--32" value="&lt;b&gt;&amp;nbsp; AWS CloudFront&amp;nbsp;&amp;nbsp;&lt;/b&gt;&lt;br&gt;&amp;nbsp; caches &amp;amp; serves content&amp;nbsp;&amp;nbsp;" style="sketch=0;points=[[0,0,0],[0.25,0,0],[0.5,0,0],[0.75,0,0],[1,0,0],[0,1,0],[0.25,1,0],[0.5,1,0],[0.75,1,0],[1,1,0],[0,0.25,0],[0,0.5,0],[0,0.75,0],[1,0.25,0],[1,0.5,0],[1,0.75,0]];outlineConnect=0;fontColor=#232F3E;gradientColor=#945DF2;gradientDirection=north;fillColor=#5A30B5;strokeColor=#ffffff;dashed=0;verticalLabelPosition=middle;verticalAlign=middle;align=right;html=1;fontSize=12;fontStyle=0;aspect=fixed;shape=mxgraph.aws4.resourceIcon;resIcon=mxgraph.aws4.cloudfront;shadow=0;labelBorderColor=none;fillStyle=auto;strokeWidth=3;fontFamily=Poppins;labelPosition=left;fontSource=https%3A%2F%2Ffonts.googleapis.com%2Fcss%3Ffamily%3DPoppins;container=0;" vertex="1" parent="1">
          <mxGeometry x="484" y="2632.9241685144125" width="78" height="78" as="geometry" />
        </mxCell>
        <mxCell id="UnBP7zHp0_nx1okpZba--867" style="edgeStyle=orthogonalEdgeStyle;rounded=0;orthogonalLoop=1;jettySize=auto;html=1;exitX=0.5;exitY=1;exitDx=0;exitDy=0;exitPerimeter=0;fontFamily=Poppins;fontSource=https%3A%2F%2Ffonts.googleapis.com%2Fcss%3Ffamily%3DPoppins;" edge="1" parent="1" source="UnBP7zHp0_nx1okpZba--30" target="UnBP7zHp0_nx1okpZba--32">
          <mxGeometry relative="1" as="geometry" />
        </mxCell>
        <mxCell id="UnBP7zHp0_nx1okpZba--971" style="edgeStyle=orthogonalEdgeStyle;rounded=0;orthogonalLoop=1;jettySize=auto;html=1;exitX=0.5;exitY=1;exitDx=0;exitDy=0;exitPerimeter=0;fontFamily=Poppins;fontSource=https%3A%2F%2Ffonts.googleapis.com%2Fcss%3Ffamily%3DPoppins;startArrow=none;startFill=0;endArrow=classic;endFill=1;" edge="1" parent="1" source="UnBP7zHp0_nx1okpZba--868">
          <mxGeometry relative="1" as="geometry">
            <mxPoint x="704" y="3495" as="targetPoint" />
            <Array as="points">
              <mxPoint x="523" y="3183" />
              <mxPoint x="524" y="3495" />
            </Array>
          </mxGeometry>
        </mxCell>
        <mxCell id="UnBP7zHp0_nx1okpZba--868" value="&lt;b&gt;&amp;nbsp; AWS Cognito&amp;nbsp;&amp;nbsp;&lt;/b&gt;&lt;br&gt;&amp;nbsp; Identity Pool&amp;nbsp;&amp;nbsp;" style="sketch=0;points=[[0,0,0],[0.25,0,0],[0.5,0,0],[0.75,0,0],[1,0,0],[0,1,0],[0.25,1,0],[0.5,1,0],[0.75,1,0],[1,1,0],[0,0.25,0],[0,0.5,0],[0,0.75,0],[1,0.25,0],[1,0.5,0],[1,0.75,0]];outlineConnect=0;fontColor=#232F3E;gradientColor=#F54749;gradientDirection=north;fillColor=#C7131F;strokeColor=#ffffff;dashed=0;verticalLabelPosition=middle;verticalAlign=middle;align=right;html=1;fontSize=12;fontStyle=0;aspect=fixed;shape=mxgraph.aws4.resourceIcon;resIcon=mxgraph.aws4.cognito;shadow=0;labelBorderColor=none;fillStyle=auto;strokeWidth=3;fontFamily=Tahoma;labelPosition=left;container=0;" vertex="1" parent="1">
          <mxGeometry x="484" y="2793.7000000000003" width="78" height="78" as="geometry" />
        </mxCell>
        <mxCell id="UnBP7zHp0_nx1okpZba--871" value="" style="endArrow=classic;html=1;rounded=0;fontFamily=Poppins;fontSource=https%3A%2F%2Ffonts.googleapis.com%2Fcss%3Ffamily%3DPoppins;exitX=0.5;exitY=1;exitDx=0;exitDy=0;exitPerimeter=0;entryX=0.5;entryY=0;entryDx=0;entryDy=0;entryPerimeter=0;" edge="1" parent="1" source="UnBP7zHp0_nx1okpZba--32" target="UnBP7zHp0_nx1okpZba--868">
          <mxGeometry width="50" height="50" relative="1" as="geometry">
            <mxPoint x="493" y="2885" as="sourcePoint" />
            <mxPoint x="543" y="2835" as="targetPoint" />
          </mxGeometry>
        </mxCell>
        <mxCell id="UnBP7zHp0_nx1okpZba--968" value="&lt;div style=&quot;&quot;&gt;&lt;b style=&quot;background-color: initial;&quot;&gt;AWS IAM&amp;nbsp;&amp;nbsp;&lt;/b&gt;&lt;/div&gt;Identity and Access Managment&amp;nbsp;&amp;nbsp;" style="sketch=0;points=[[0,0,0],[0.25,0,0],[0.5,0,0],[0.75,0,0],[1,0,0],[0,1,0],[0.25,1,0],[0.5,1,0],[0.75,1,0],[1,1,0],[0,0.25,0],[0,0.5,0],[0,0.75,0],[1,0.25,0],[1,0.5,0],[1,0.75,0]];outlineConnect=0;fontColor=#232F3E;gradientColor=#F54749;gradientDirection=north;fillColor=#C7131F;strokeColor=#ffffff;dashed=0;verticalLabelPosition=top;verticalAlign=bottom;align=center;html=1;fontSize=12;fontStyle=0;aspect=fixed;shape=mxgraph.aws4.resourceIcon;resIcon=mxgraph.aws4.identity_and_access_management;shadow=0;labelBorderColor=none;fillStyle=auto;strokeWidth=3;fontFamily=Tahoma;labelPosition=center;container=0;" vertex="1" parent="1">
          <mxGeometry x="654" y="2793.7" width="78" height="78" as="geometry" />
        </mxCell>
        <mxCell id="UnBP7zHp0_nx1okpZba--969" style="edgeStyle=orthogonalEdgeStyle;rounded=0;orthogonalLoop=1;jettySize=auto;html=1;exitX=1;exitY=0.5;exitDx=0;exitDy=0;exitPerimeter=0;entryX=0;entryY=0.5;entryDx=0;entryDy=0;entryPerimeter=0;fontFamily=Poppins;fontSource=https%3A%2F%2Ffonts.googleapis.com%2Fcss%3Ffamily%3DPoppins;startArrow=classic;startFill=1;endArrow=classic;endFill=1;" edge="1" parent="1" source="UnBP7zHp0_nx1okpZba--868" target="UnBP7zHp0_nx1okpZba--968">
          <mxGeometry relative="1" as="geometry" />
        </mxCell>
        <mxCell id="UnBP7zHp0_nx1okpZba--831" value="Costs monitoring" style="fillColor=none;strokeColor=#5A6C86;dashed=1;verticalAlign=top;fontStyle=0;fontColor=#5A6C86;fontFamily=Poppins;fontSource=https%3A%2F%2Ffonts.googleapis.com%2Fcss%3Ffamily%3DPoppins;container=0;strokeWidth=2;" vertex="1" parent="1">
          <mxGeometry x="923" y="2434" width="870" height="290" as="geometry" />
        </mxCell>
        <mxCell id="UnBP7zHp0_nx1okpZba--832" value="&lt;b&gt;Amazon Athena&lt;/b&gt;" style="sketch=0;points=[[0,0,0],[0.25,0,0],[0.5,0,0],[0.75,0,0],[1,0,0],[0,1,0],[0.25,1,0],[0.5,1,0],[0.75,1,0],[1,1,0],[0,0.25,0],[0,0.5,0],[0,0.75,0],[1,0.25,0],[1,0.5,0],[1,0.75,0]];outlineConnect=0;fontColor=#232F3E;gradientColor=#945DF2;gradientDirection=north;fillColor=#5A30B5;strokeColor=#ffffff;dashed=0;verticalLabelPosition=bottom;verticalAlign=top;align=center;html=1;fontSize=12;fontStyle=0;aspect=fixed;shape=mxgraph.aws4.resourceIcon;resIcon=mxgraph.aws4.athena;labelBackgroundColor=none;strokeWidth=3;fontFamily=Poppins;fontSource=https%3A%2F%2Ffonts.googleapis.com%2Fcss%3Ffamily%3DPoppins;container=0;" vertex="1" parent="1">
          <mxGeometry x="1543" y="2596" width="78" height="78" as="geometry" />
        </mxCell>
        <mxCell id="UnBP7zHp0_nx1okpZba--833" value="&lt;b&gt;Amazon S3&lt;/b&gt;" style="sketch=0;points=[[0,0,0],[0.25,0,0],[0.5,0,0],[0.75,0,0],[1,0,0],[0,1,0],[0.25,1,0],[0.5,1,0],[0.75,1,0],[1,1,0],[0,0.25,0],[0,0.5,0],[0,0.75,0],[1,0.25,0],[1,0.5,0],[1,0.75,0]];outlineConnect=0;fontColor=#232F3E;gradientColor=#60A337;gradientDirection=north;fillColor=#277116;strokeColor=#ffffff;dashed=0;verticalLabelPosition=bottom;verticalAlign=top;align=center;html=1;fontSize=12;fontStyle=0;aspect=fixed;shape=mxgraph.aws4.resourceIcon;resIcon=mxgraph.aws4.s3;fontFamily=Poppins;fontSource=https%3A%2F%2Ffonts.googleapis.com%2Fcss%3Ffamily%3DPoppins;labelPosition=center;container=0;" vertex="1" parent="1">
          <mxGeometry x="1273" y="2476" width="78" height="78" as="geometry" />
        </mxCell>
        <mxCell id="UnBP7zHp0_nx1okpZba--834" value="&lt;b&gt;Amazon CloudWatch&lt;br&gt;&lt;/b&gt;" style="sketch=0;points=[[0,0,0],[0.25,0,0],[0.5,0,0],[0.75,0,0],[1,0,0],[0,1,0],[0.25,1,0],[0.5,1,0],[0.75,1,0],[1,1,0],[0,0.25,0],[0,0.5,0],[0,0.75,0],[1,0.25,0],[1,0.5,0],[1,0.75,0]];points=[[0,0,0],[0.25,0,0],[0.5,0,0],[0.75,0,0],[1,0,0],[0,1,0],[0.25,1,0],[0.5,1,0],[0.75,1,0],[1,1,0],[0,0.25,0],[0,0.5,0],[0,0.75,0],[1,0.25,0],[1,0.5,0],[1,0.75,0]];outlineConnect=0;fontColor=#232F3E;gradientColor=#F34482;gradientDirection=north;fillColor=#BC1356;strokeColor=#ffffff;dashed=0;verticalLabelPosition=bottom;verticalAlign=top;align=center;html=1;fontSize=12;fontStyle=0;aspect=fixed;shape=mxgraph.aws4.resourceIcon;resIcon=mxgraph.aws4.cloudwatch_2;labelBackgroundColor=none;strokeWidth=3;fontFamily=Poppins;fontSource=https%3A%2F%2Ffonts.googleapis.com%2Fcss%3Ffamily%3DPoppins;container=0;" vertex="1" parent="1">
          <mxGeometry x="983" y="2476" width="78" height="78" as="geometry" />
        </mxCell>
        <mxCell id="UnBP7zHp0_nx1okpZba--835" style="edgeStyle=orthogonalEdgeStyle;rounded=0;orthogonalLoop=1;jettySize=auto;html=1;exitX=1;exitY=0.5;exitDx=0;exitDy=0;exitPerimeter=0;entryX=0;entryY=0.5;entryDx=0;entryDy=0;entryPerimeter=0;fontFamily=Poppins;fontSource=https%3A%2F%2Ffonts.googleapis.com%2Fcss%3Ffamily%3DPoppins;startArrow=none;startFill=0;endArrow=classic;endFill=1;" edge="1" parent="1" source="UnBP7zHp0_nx1okpZba--836" target="UnBP7zHp0_nx1okpZba--833">
          <mxGeometry relative="1" as="geometry" />
        </mxCell>
        <mxCell id="UnBP7zHp0_nx1okpZba--836" value="&lt;b&gt;Amazon Kinesis&lt;/b&gt;" style="sketch=0;points=[[0,0,0],[0.25,0,0],[0.5,0,0],[0.75,0,0],[1,0,0],[0,1,0],[0.25,1,0],[0.5,1,0],[0.75,1,0],[1,1,0],[0,0.25,0],[0,0.5,0],[0,0.75,0],[1,0.25,0],[1,0.5,0],[1,0.75,0]];outlineConnect=0;fontColor=#232F3E;gradientColor=#945DF2;gradientDirection=north;fillColor=#5A30B5;strokeColor=#ffffff;dashed=0;verticalLabelPosition=bottom;verticalAlign=top;align=center;html=1;fontSize=12;fontStyle=0;aspect=fixed;shape=mxgraph.aws4.resourceIcon;resIcon=mxgraph.aws4.kinesis;labelBackgroundColor=none;strokeWidth=3;fontFamily=Poppins;fontSource=https%3A%2F%2Ffonts.googleapis.com%2Fcss%3Ffamily%3DPoppins;container=0;" vertex="1" parent="1">
          <mxGeometry x="1133" y="2476" width="78" height="78" as="geometry" />
        </mxCell>
        <mxCell id="UnBP7zHp0_nx1okpZba--837" style="edgeStyle=orthogonalEdgeStyle;rounded=0;orthogonalLoop=1;jettySize=auto;html=1;exitX=1;exitY=0.5;exitDx=0;exitDy=0;exitPerimeter=0;entryX=0;entryY=0.5;entryDx=0;entryDy=0;entryPerimeter=0;fontFamily=Poppins;fontSource=https%3A%2F%2Ffonts.googleapis.com%2Fcss%3Ffamily%3DPoppins;startArrow=none;startFill=0;endArrow=classic;endFill=1;" edge="1" parent="1" source="UnBP7zHp0_nx1okpZba--834" target="UnBP7zHp0_nx1okpZba--836">
          <mxGeometry relative="1" as="geometry" />
        </mxCell>
        <mxCell id="UnBP7zHp0_nx1okpZba--838" value="&lt;b&gt;AWS Glue&lt;/b&gt;" style="sketch=0;outlineConnect=0;fontColor=#232F3E;gradientColor=none;fillColor=#4D27AA;strokeColor=none;dashed=0;verticalLabelPosition=bottom;verticalAlign=top;align=center;html=1;fontSize=12;fontStyle=0;aspect=fixed;pointerEvents=1;shape=mxgraph.aws4.glue_data_catalog;labelBackgroundColor=none;strokeWidth=3;fontFamily=Poppins;fontSource=https%3A%2F%2Ffonts.googleapis.com%2Fcss%3Ffamily%3DPoppins;container=0;" vertex="1" parent="1">
          <mxGeometry x="1413" y="2477" width="72" height="78" as="geometry" />
        </mxCell>
        <mxCell id="UnBP7zHp0_nx1okpZba--839" style="edgeStyle=orthogonalEdgeStyle;rounded=0;orthogonalLoop=1;jettySize=auto;html=1;exitX=1;exitY=0.5;exitDx=0;exitDy=0;exitPerimeter=0;fontFamily=Poppins;fontSource=https%3A%2F%2Ffonts.googleapis.com%2Fcss%3Ffamily%3DPoppins;startArrow=none;startFill=0;endArrow=classic;endFill=1;" edge="1" parent="1" source="UnBP7zHp0_nx1okpZba--833" target="UnBP7zHp0_nx1okpZba--838">
          <mxGeometry relative="1" as="geometry" />
        </mxCell>
        <mxCell id="UnBP7zHp0_nx1okpZba--840" value="&lt;b&gt;AWS Cost and Usage Report&lt;/b&gt;" style="sketch=0;points=[[0,0,0],[0.25,0,0],[0.5,0,0],[0.75,0,0],[1,0,0],[0,1,0],[0.25,1,0],[0.5,1,0],[0.75,1,0],[1,1,0],[0,0.25,0],[0,0.5,0],[0,0.75,0],[1,0.25,0],[1,0.5,0],[1,0.75,0]];outlineConnect=0;fontColor=#232F3E;gradientColor=#60A337;gradientDirection=north;fillColor=#277116;strokeColor=#ffffff;dashed=0;verticalLabelPosition=bottom;verticalAlign=top;align=center;html=1;fontSize=12;fontStyle=0;aspect=fixed;shape=mxgraph.aws4.resourceIcon;resIcon=mxgraph.aws4.cost_and_usage_report;labelBackgroundColor=none;strokeWidth=3;fontFamily=Poppins;fontSource=https%3A%2F%2Ffonts.googleapis.com%2Fcss%3Ffamily%3DPoppins;container=0;" vertex="1" parent="1">
          <mxGeometry x="983" y="2596" width="78" height="78" as="geometry" />
        </mxCell>
        <mxCell id="UnBP7zHp0_nx1okpZba--841" value="&lt;b&gt;Amazon S3&lt;/b&gt;" style="sketch=0;points=[[0,0,0],[0.25,0,0],[0.5,0,0],[0.75,0,0],[1,0,0],[0,1,0],[0.25,1,0],[0.5,1,0],[0.75,1,0],[1,1,0],[0,0.25,0],[0,0.5,0],[0,0.75,0],[1,0.25,0],[1,0.5,0],[1,0.75,0]];outlineConnect=0;fontColor=#232F3E;gradientColor=#60A337;gradientDirection=north;fillColor=#277116;strokeColor=#ffffff;dashed=0;verticalLabelPosition=bottom;verticalAlign=top;align=center;html=1;fontSize=12;fontStyle=0;aspect=fixed;shape=mxgraph.aws4.resourceIcon;resIcon=mxgraph.aws4.s3;fontFamily=Poppins;fontSource=https%3A%2F%2Ffonts.googleapis.com%2Fcss%3Ffamily%3DPoppins;labelPosition=center;container=0;" vertex="1" parent="1">
          <mxGeometry x="1133" y="2596" width="78" height="78" as="geometry" />
        </mxCell>
        <mxCell id="UnBP7zHp0_nx1okpZba--842" style="edgeStyle=orthogonalEdgeStyle;rounded=0;orthogonalLoop=1;jettySize=auto;html=1;exitX=1;exitY=0.5;exitDx=0;exitDy=0;exitPerimeter=0;entryX=0;entryY=0.5;entryDx=0;entryDy=0;entryPerimeter=0;fontFamily=Poppins;fontSource=https%3A%2F%2Ffonts.googleapis.com%2Fcss%3Ffamily%3DPoppins;startArrow=none;startFill=0;endArrow=classic;endFill=1;" edge="1" parent="1" source="UnBP7zHp0_nx1okpZba--840" target="UnBP7zHp0_nx1okpZba--841">
          <mxGeometry relative="1" as="geometry" />
        </mxCell>
        <mxCell id="UnBP7zHp0_nx1okpZba--843" value="&lt;b&gt;AWS Glue&lt;/b&gt;" style="sketch=0;outlineConnect=0;fontColor=#232F3E;gradientColor=none;fillColor=#4D27AA;strokeColor=none;dashed=0;verticalLabelPosition=bottom;verticalAlign=top;align=center;html=1;fontSize=12;fontStyle=0;aspect=fixed;pointerEvents=1;shape=mxgraph.aws4.glue_data_catalog;labelBackgroundColor=none;strokeWidth=3;fontFamily=Poppins;fontSource=https%3A%2F%2Ffonts.googleapis.com%2Fcss%3Ffamily%3DPoppins;container=0;" vertex="1" parent="1">
          <mxGeometry x="1276" y="2596" width="72" height="78" as="geometry" />
        </mxCell>
        <mxCell id="UnBP7zHp0_nx1okpZba--844" value="&lt;b&gt;Amazon QuickSight&lt;/b&gt;" style="sketch=0;points=[[0,0,0],[0.25,0,0],[0.5,0,0],[0.75,0,0],[1,0,0],[0,1,0],[0.25,1,0],[0.5,1,0],[0.75,1,0],[1,1,0],[0,0.25,0],[0,0.5,0],[0,0.75,0],[1,0.25,0],[1,0.5,0],[1,0.75,0]];outlineConnect=0;fontColor=#232F3E;gradientColor=#945DF2;gradientDirection=north;fillColor=#5A30B5;strokeColor=#ffffff;dashed=0;verticalLabelPosition=bottom;verticalAlign=top;align=center;html=1;fontSize=12;fontStyle=0;aspect=fixed;shape=mxgraph.aws4.resourceIcon;resIcon=mxgraph.aws4.quicksight;labelBackgroundColor=none;strokeWidth=3;fontFamily=Poppins;fontSource=https%3A%2F%2Ffonts.googleapis.com%2Fcss%3Ffamily%3DPoppins;container=0;" vertex="1" parent="1">
          <mxGeometry x="1683" y="2596" width="78" height="78" as="geometry" />
        </mxCell>
        <mxCell id="UnBP7zHp0_nx1okpZba--845" style="edgeStyle=orthogonalEdgeStyle;rounded=0;orthogonalLoop=1;jettySize=auto;html=1;exitX=1;exitY=0.5;exitDx=0;exitDy=0;exitPerimeter=0;fontFamily=Poppins;fontSource=https%3A%2F%2Ffonts.googleapis.com%2Fcss%3Ffamily%3DPoppins;startArrow=none;startFill=0;endArrow=classic;endFill=1;" edge="1" parent="1" source="UnBP7zHp0_nx1okpZba--841" target="UnBP7zHp0_nx1okpZba--843">
          <mxGeometry relative="1" as="geometry" />
        </mxCell>
        <mxCell id="UnBP7zHp0_nx1okpZba--846" value="" style="endArrow=classic;html=1;rounded=0;fontFamily=Poppins;fontSource=https%3A%2F%2Ffonts.googleapis.com%2Fcss%3Ffamily%3DPoppins;entryX=0;entryY=0.5;entryDx=0;entryDy=0;entryPerimeter=0;" edge="1" parent="1" source="UnBP7zHp0_nx1okpZba--843" target="UnBP7zHp0_nx1okpZba--832">
          <mxGeometry width="50" height="50" relative="1" as="geometry">
            <mxPoint x="1325.06" y="2666" as="sourcePoint" />
            <mxPoint x="1375.06" y="2616" as="targetPoint" />
          </mxGeometry>
        </mxCell>
        <mxCell id="UnBP7zHp0_nx1okpZba--847" style="edgeStyle=orthogonalEdgeStyle;rounded=0;orthogonalLoop=1;jettySize=auto;html=1;exitX=1;exitY=0.5;exitDx=0;exitDy=0;exitPerimeter=0;fontFamily=Poppins;fontSource=https%3A%2F%2Ffonts.googleapis.com%2Fcss%3Ffamily%3DPoppins;startArrow=none;startFill=0;endArrow=classic;endFill=1;" edge="1" parent="1" source="UnBP7zHp0_nx1okpZba--832" target="UnBP7zHp0_nx1okpZba--844">
          <mxGeometry relative="1" as="geometry" />
        </mxCell>
        <mxCell id="UnBP7zHp0_nx1okpZba--848" value="" style="endArrow=classic;html=1;rounded=0;fontFamily=Poppins;fontSource=https%3A%2F%2Ffonts.googleapis.com%2Fcss%3Ffamily%3DPoppins;entryX=0.5;entryY=0;entryDx=0;entryDy=0;entryPerimeter=0;edgeStyle=orthogonalEdgeStyle;" edge="1" parent="1" source="UnBP7zHp0_nx1okpZba--838" target="UnBP7zHp0_nx1okpZba--832">
          <mxGeometry width="50" height="50" relative="1" as="geometry">
            <mxPoint x="1593" y="2536" as="sourcePoint" />
            <mxPoint x="1643" y="2486" as="targetPoint" />
          </mxGeometry>
        </mxCell>
        <mxCell id="UnBP7zHp0_nx1okpZba--852" value="&lt;b&gt;Amazon CloudWatch&lt;br&gt;&lt;/b&gt;" style="sketch=0;points=[[0,0,0],[0.25,0,0],[0.5,0,0],[0.75,0,0],[1,0,0],[0,1,0],[0.25,1,0],[0.5,1,0],[0.75,1,0],[1,1,0],[0,0.25,0],[0,0.5,0],[0,0.75,0],[1,0.25,0],[1,0.5,0],[1,0.75,0]];points=[[0,0,0],[0.25,0,0],[0.5,0,0],[0.75,0,0],[1,0,0],[0,1,0],[0.25,1,0],[0.5,1,0],[0.75,1,0],[1,1,0],[0,0.25,0],[0,0.5,0],[0,0.75,0],[1,0.25,0],[1,0.5,0],[1,0.75,0]];outlineConnect=0;fontColor=#232F3E;gradientColor=#F34482;gradientDirection=north;fillColor=#BC1356;strokeColor=#ffffff;dashed=0;verticalLabelPosition=bottom;verticalAlign=top;align=center;html=1;fontSize=12;fontStyle=0;aspect=fixed;shape=mxgraph.aws4.resourceIcon;resIcon=mxgraph.aws4.cloudwatch_2;labelBackgroundColor=#FFFFFF;strokeWidth=1;fontFamily=Poppins;fontSource=https%3A%2F%2Ffonts.googleapis.com%2Fcss%3Ffamily%3DPoppins;container=0;" vertex="1" parent="1">
          <mxGeometry x="1657" y="2812.75" width="78" height="78" as="geometry" />
        </mxCell>
        <mxCell id="UnBP7zHp0_nx1okpZba--853" value="&lt;b&gt;Event Analyzer&lt;/b&gt;" style="sketch=0;points=[[0,0,0],[0.25,0,0],[0.5,0,0],[0.75,0,0],[1,0,0],[0,1,0],[0.25,1,0],[0.5,1,0],[0.75,1,0],[1,1,0],[0,0.25,0],[0,0.5,0],[0,0.75,0],[1,0.25,0],[1,0.5,0],[1,0.75,0]];outlineConnect=0;fontColor=#232F3E;gradientColor=#F78E04;gradientDirection=north;fillColor=#D05C17;strokeColor=#ffffff;dashed=0;verticalLabelPosition=bottom;verticalAlign=top;align=center;html=1;fontSize=12;fontStyle=0;aspect=fixed;shape=mxgraph.aws4.resourceIcon;resIcon=mxgraph.aws4.lambda;labelBackgroundColor=#FFFFFF;strokeWidth=1;fontFamily=Poppins;fontSource=https%3A%2F%2Ffonts.googleapis.com%2Fcss%3Ffamily%3DPoppins;container=0;" vertex="1" parent="1">
          <mxGeometry x="1484" y="2812.75" width="78" height="78" as="geometry" />
        </mxCell>
        <mxCell id="UnBP7zHp0_nx1okpZba--854" style="edgeStyle=orthogonalEdgeStyle;rounded=0;orthogonalLoop=1;jettySize=auto;html=1;exitX=0;exitY=0.5;exitDx=0;exitDy=0;exitPerimeter=0;entryX=1;entryY=0.5;entryDx=0;entryDy=0;entryPerimeter=0;fontFamily=Poppins;fontSource=https%3A%2F%2Ffonts.googleapis.com%2Fcss%3Ffamily%3DPoppins;startArrow=none;startFill=0;endArrow=classic;endFill=1;" edge="1" parent="1" source="UnBP7zHp0_nx1okpZba--852" target="UnBP7zHp0_nx1okpZba--853">
          <mxGeometry relative="1" as="geometry" />
        </mxCell>
        <mxCell id="UnBP7zHp0_nx1okpZba--855" value="&lt;b&gt;Amazon Athena&lt;/b&gt;" style="sketch=0;points=[[0,0,0],[0.25,0,0],[0.5,0,0],[0.75,0,0],[1,0,0],[0,1,0],[0.25,1,0],[0.5,1,0],[0.75,1,0],[1,1,0],[0,0.25,0],[0,0.5,0],[0,0.75,0],[1,0.25,0],[1,0.5,0],[1,0.75,0]];outlineConnect=0;fontColor=#232F3E;gradientColor=#945DF2;gradientDirection=north;fillColor=#5A30B5;strokeColor=#ffffff;dashed=0;verticalLabelPosition=bottom;verticalAlign=top;align=center;html=1;fontSize=12;fontStyle=0;aspect=fixed;shape=mxgraph.aws4.resourceIcon;resIcon=mxgraph.aws4.athena;labelBackgroundColor=none;strokeWidth=3;fontFamily=Poppins;fontSource=https%3A%2F%2Ffonts.googleapis.com%2Fcss%3Ffamily%3DPoppins;container=0;" vertex="1" parent="1">
          <mxGeometry x="1147" y="2812.75" width="78" height="78" as="geometry" />
        </mxCell>
        <mxCell id="UnBP7zHp0_nx1okpZba--856" style="edgeStyle=orthogonalEdgeStyle;rounded=0;orthogonalLoop=1;jettySize=auto;html=1;exitX=0;exitY=0.5;exitDx=0;exitDy=0;exitPerimeter=0;fontFamily=Poppins;fontSource=https%3A%2F%2Ffonts.googleapis.com%2Fcss%3Ffamily%3DPoppins;startArrow=none;startFill=0;endArrow=classic;endFill=1;" edge="1" parent="1" source="UnBP7zHp0_nx1okpZba--857" target="UnBP7zHp0_nx1okpZba--855">
          <mxGeometry relative="1" as="geometry" />
        </mxCell>
        <mxCell id="UnBP7zHp0_nx1okpZba--857" value="&lt;b&gt;Amazon S3&lt;/b&gt;" style="sketch=0;points=[[0,0,0],[0.25,0,0],[0.5,0,0],[0.75,0,0],[1,0,0],[0,1,0],[0.25,1,0],[0.5,1,0],[0.75,1,0],[1,1,0],[0,0.25,0],[0,0.5,0],[0,0.75,0],[1,0.25,0],[1,0.5,0],[1,0.75,0]];outlineConnect=0;fontColor=#232F3E;gradientColor=#60A337;gradientDirection=north;fillColor=#277116;strokeColor=#ffffff;dashed=0;verticalLabelPosition=bottom;verticalAlign=top;align=center;html=1;fontSize=12;fontStyle=0;aspect=fixed;shape=mxgraph.aws4.resourceIcon;resIcon=mxgraph.aws4.s3;fontFamily=Poppins;fontSource=https%3A%2F%2Ffonts.googleapis.com%2Fcss%3Ffamily%3DPoppins;labelPosition=center;container=0;" vertex="1" parent="1">
          <mxGeometry x="1317" y="2812.75" width="78" height="78" as="geometry" />
        </mxCell>
        <mxCell id="UnBP7zHp0_nx1okpZba--858" style="edgeStyle=orthogonalEdgeStyle;rounded=0;orthogonalLoop=1;jettySize=auto;html=1;exitX=0;exitY=0.5;exitDx=0;exitDy=0;exitPerimeter=0;fontFamily=Poppins;fontSource=https%3A%2F%2Ffonts.googleapis.com%2Fcss%3Ffamily%3DPoppins;startArrow=none;startFill=0;endArrow=classic;endFill=1;" edge="1" parent="1" source="UnBP7zHp0_nx1okpZba--853" target="UnBP7zHp0_nx1okpZba--857">
          <mxGeometry relative="1" as="geometry" />
        </mxCell>
        <mxCell id="UnBP7zHp0_nx1okpZba--859" value="&lt;b&gt;Amazon QuickSight&lt;/b&gt;" style="sketch=0;points=[[0,0,0],[0.25,0,0],[0.5,0,0],[0.75,0,0],[1,0,0],[0,1,0],[0.25,1,0],[0.5,1,0],[0.75,1,0],[1,1,0],[0,0.25,0],[0,0.5,0],[0,0.75,0],[1,0.25,0],[1,0.5,0],[1,0.75,0]];outlineConnect=0;fontColor=#232F3E;gradientColor=#945DF2;gradientDirection=north;fillColor=#5A30B5;strokeColor=#ffffff;dashed=0;verticalLabelPosition=bottom;verticalAlign=top;align=center;html=1;fontSize=12;fontStyle=0;aspect=fixed;shape=mxgraph.aws4.resourceIcon;resIcon=mxgraph.aws4.quicksight;labelBackgroundColor=none;strokeWidth=3;fontFamily=Poppins;fontSource=https%3A%2F%2Ffonts.googleapis.com%2Fcss%3Ffamily%3DPoppins;container=0;" vertex="1" parent="1">
          <mxGeometry x="976" y="2812.75" width="78" height="78" as="geometry" />
        </mxCell>
        <mxCell id="UnBP7zHp0_nx1okpZba--860" style="edgeStyle=orthogonalEdgeStyle;rounded=0;orthogonalLoop=1;jettySize=auto;html=1;exitX=0;exitY=0.5;exitDx=0;exitDy=0;exitPerimeter=0;entryX=1;entryY=0.5;entryDx=0;entryDy=0;entryPerimeter=0;fontFamily=Poppins;fontSource=https%3A%2F%2Ffonts.googleapis.com%2Fcss%3Ffamily%3DPoppins;startArrow=none;startFill=0;endArrow=classic;endFill=1;" edge="1" parent="1" source="UnBP7zHp0_nx1okpZba--855" target="UnBP7zHp0_nx1okpZba--859">
          <mxGeometry relative="1" as="geometry" />
        </mxCell>
        <mxCell id="UnBP7zHp0_nx1okpZba--767" value="&lt;font color=&quot;#248814&quot;&gt;VPC&lt;/font&gt;" style="points=[[0,0],[0.25,0],[0.5,0],[0.75,0],[1,0],[1,0.25],[1,0.5],[1,0.75],[1,1],[0.75,1],[0.5,1],[0.25,1],[0,1],[0,0.75],[0,0.5],[0,0.25]];outlineConnect=0;gradientColor=none;html=1;whiteSpace=wrap;fontSize=12;fontStyle=1;container=0;pointerEvents=0;collapsible=0;recursiveResize=0;shape=mxgraph.aws4.group;grIcon=mxgraph.aws4.group_vpc;strokeColor=#248814;fillColor=none;verticalAlign=top;align=left;spacingLeft=30;fontColor=#AAB7B8;dashed=0;fontFamily=Poppins;fontSource=https%3A%2F%2Ffonts.googleapis.com%2Fcss%3Ffamily%3DPoppins;" vertex="1" parent="1">
          <mxGeometry x="605" y="3113" width="1138" height="741" as="geometry" />
        </mxCell>
        <mxCell id="UnBP7zHp0_nx1okpZba--768" value="" style="rounded=0;whiteSpace=wrap;html=1;dashed=1;labelBackgroundColor=#FFFFFF;labelBorderColor=none;fillStyle=auto;strokeColor=none;strokeWidth=2;fontFamily=Poppins;fontSource=https%3A%2F%2Ffonts.googleapis.com%2Fcss%3Ffamily%3DPoppins;fontSize=11;fontColor=#147EBA;fillColor=#E6F2F8;gradientColor=none;container=0;" vertex="1" parent="1">
          <mxGeometry x="903" y="3614" width="250" height="160" as="geometry" />
        </mxCell>
        <mxCell id="UnBP7zHp0_nx1okpZba--769" value="Public subnet" style="points=[[0,0],[0.25,0],[0.5,0],[0.75,0],[1,0],[1,0.25],[1,0.5],[1,0.75],[1,1],[0.75,1],[0.5,1],[0.25,1],[0,1],[0,0.75],[0,0.5],[0,0.25]];outlineConnect=0;gradientColor=none;html=1;whiteSpace=wrap;fontSize=12;fontStyle=1;container=0;pointerEvents=0;collapsible=0;recursiveResize=0;shape=mxgraph.aws4.group;grIcon=mxgraph.aws4.group_security_group;grStroke=0;strokeColor=#248814;fillColor=#E9F3E6;verticalAlign=top;align=left;spacingLeft=30;fontColor=#248814;dashed=0;fontFamily=Poppins;fontSource=https%3A%2F%2Ffonts.googleapis.com%2Fcss%3Ffamily%3DPoppins;" vertex="1" parent="1">
          <mxGeometry x="663" y="3224" width="160" height="160" as="geometry" />
        </mxCell>
        <mxCell id="UnBP7zHp0_nx1okpZba--771" value="Private subnet" style="points=[[0,0],[0.25,0],[0.5,0],[0.75,0],[1,0],[1,0.25],[1,0.5],[1,0.75],[1,1],[0.75,1],[0.5,1],[0.25,1],[0,1],[0,0.75],[0,0.5],[0,0.25]];outlineConnect=0;gradientColor=none;html=1;whiteSpace=wrap;fontSize=12;fontStyle=1;container=0;pointerEvents=0;collapsible=0;recursiveResize=0;shape=mxgraph.aws4.group;grIcon=mxgraph.aws4.group_security_group;grStroke=0;strokeColor=#147EBA;fillColor=#E6F2F8;verticalAlign=top;align=left;spacingLeft=30;fontColor=#147EBA;dashed=0;fontFamily=Poppins;fontSource=https%3A%2F%2Ffonts.googleapis.com%2Fcss%3Ffamily%3DPoppins;" vertex="1" parent="1">
          <mxGeometry x="903" y="3224" width="250" height="160" as="geometry" />
        </mxCell>
        <mxCell id="UnBP7zHp0_nx1okpZba--774" value="Private subnet" style="points=[[0,0],[0.25,0],[0.5,0],[0.75,0],[1,0],[1,0.25],[1,0.5],[1,0.75],[1,1],[0.75,1],[0.5,1],[0.25,1],[0,1],[0,0.75],[0,0.5],[0,0.25]];outlineConnect=0;gradientColor=none;html=1;whiteSpace=wrap;fontSize=12;fontStyle=1;container=0;pointerEvents=0;collapsible=0;recursiveResize=0;shape=mxgraph.aws4.group;grIcon=mxgraph.aws4.group_security_group;grStroke=0;strokeColor=#147EBA;fillColor=#E6F2F8;verticalAlign=top;align=left;spacingLeft=30;fontColor=#147EBA;dashed=0;fontFamily=Poppins;fontSource=https%3A%2F%2Ffonts.googleapis.com%2Fcss%3Ffamily%3DPoppins;" vertex="1" parent="1">
          <mxGeometry x="1233" y="3224" width="470" height="160" as="geometry" />
        </mxCell>
        <mxCell id="UnBP7zHp0_nx1okpZba--779" value="Application Load Balancer" style="sketch=0;outlineConnect=0;fontColor=#232F3E;gradientColor=none;fillColor=#4D27AA;strokeColor=none;dashed=0;verticalLabelPosition=bottom;verticalAlign=top;align=center;html=1;fontSize=12;fontStyle=1;aspect=fixed;pointerEvents=1;shape=mxgraph.aws4.application_load_balancer;fontFamily=Poppins;fontSource=https%3A%2F%2Ffonts.googleapis.com%2Fcss%3Ffamily%3DPoppins;container=0;" vertex="1" parent="1">
          <mxGeometry x="704" y="3456" width="78" height="78" as="geometry" />
        </mxCell>
        <mxCell id="UnBP7zHp0_nx1okpZba--780" value="Availability Zone 1" style="fillColor=none;strokeColor=#147EBA;dashed=1;verticalAlign=top;fontStyle=1;fontColor=#147EBA;strokeWidth=2;fontFamily=Poppins;fontSource=https%3A%2F%2Ffonts.googleapis.com%2Fcss%3Ffamily%3DPoppins;fontSize=11;container=0;" vertex="1" parent="1">
          <mxGeometry x="653" y="3194" width="1060" height="210" as="geometry" />
        </mxCell>
        <mxCell id="UnBP7zHp0_nx1okpZba--781" value="" style="rounded=1;arcSize=10;dashed=1;strokeColor=#F59D56;fillColor=none;gradientColor=none;strokeWidth=2;labelBackgroundColor=#FFFFFF;fontFamily=Poppins;fontSource=https%3A%2F%2Ffonts.googleapis.com%2Fcss%3Ffamily%3DPoppins;fontSize=11;fontColor=#248814;container=0;" vertex="1" parent="1">
          <mxGeometry x="913" y="3255" width="230" height="489" as="geometry" />
        </mxCell>
        <mxCell id="UnBP7zHp0_nx1okpZba--782" value="Availability Zone 2" style="fillColor=none;strokeColor=#147EBA;dashed=1;verticalAlign=bottom;fontStyle=1;fontColor=#147EBA;strokeWidth=2;fontFamily=Poppins;fontSource=https%3A%2F%2Ffonts.googleapis.com%2Fcss%3Ffamily%3DPoppins;fontSize=11;container=0;" vertex="1" parent="1">
          <mxGeometry x="643" y="3598" width="1060" height="210" as="geometry" />
        </mxCell>
        <mxCell id="UnBP7zHp0_nx1okpZba--783" value="Public subnet" style="points=[[0,0],[0.25,0],[0.5,0],[0.75,0],[1,0],[1,0.25],[1,0.5],[1,0.75],[1,1],[0.75,1],[0.5,1],[0.25,1],[0,1],[0,0.75],[0,0.5],[0,0.25]];outlineConnect=0;gradientColor=none;html=1;whiteSpace=wrap;fontSize=12;fontStyle=1;container=0;pointerEvents=0;collapsible=0;recursiveResize=0;shape=mxgraph.aws4.group;grIcon=mxgraph.aws4.group_security_group;grStroke=0;strokeColor=#248814;fillColor=#E9F3E6;verticalAlign=top;align=left;spacingLeft=30;fontColor=#248814;dashed=0;fontFamily=Poppins;fontSource=https%3A%2F%2Ffonts.googleapis.com%2Fcss%3Ffamily%3DPoppins;" vertex="1" parent="1">
          <mxGeometry x="653" y="3614" width="178" height="160" as="geometry" />
        </mxCell>
        <mxCell id="UnBP7zHp0_nx1okpZba--787" value="Private subnet" style="points=[[0,0],[0.25,0],[0.5,0],[0.75,0],[1,0],[1,0.25],[1,0.5],[1,0.75],[1,1],[0.75,1],[0.5,1],[0.25,1],[0,1],[0,0.75],[0,0.5],[0,0.25]];outlineConnect=0;gradientColor=none;html=1;whiteSpace=wrap;fontSize=12;fontStyle=1;container=0;pointerEvents=0;collapsible=0;recursiveResize=0;shape=mxgraph.aws4.group;grIcon=mxgraph.aws4.group_security_group;grStroke=0;strokeColor=#147EBA;fillColor=#E6F2F8;verticalAlign=top;align=left;spacingLeft=30;fontColor=#147EBA;dashed=0;fontFamily=Poppins;fontSource=https%3A%2F%2Ffonts.googleapis.com%2Fcss%3Ffamily%3DPoppins;" vertex="1" parent="1">
          <mxGeometry x="1223" y="3614" width="470" height="160" as="geometry" />
        </mxCell>
        <mxCell id="UnBP7zHp0_nx1okpZba--793" value="Private subnet" style="points=[[0,0],[0.25,0],[0.5,0],[0.75,0],[1,0],[1,0.25],[1,0.5],[1,0.75],[1,1],[0.75,1],[0.5,1],[0.25,1],[0,1],[0,0.75],[0,0.5],[0,0.25]];outlineConnect=0;gradientColor=none;html=1;whiteSpace=wrap;fontSize=12;fontStyle=0;container=0;pointerEvents=0;collapsible=0;recursiveResize=0;shape=mxgraph.aws4.group;grIcon=mxgraph.aws4.group_security_group;grStroke=0;strokeColor=#147EBA;fillColor=#E6F2F8;verticalAlign=top;align=left;spacingLeft=30;fontColor=#147EBA;dashed=0;rounded=1;labelBackgroundColor=none;labelBorderColor=none;fillStyle=auto;strokeWidth=2;fontFamily=Poppins;fontSource=https%3A%2F%2Ffonts.googleapis.com%2Fcss%3Ffamily%3DPoppins;" vertex="1" parent="1">
          <mxGeometry x="904" y="3749" width="130" height="20" as="geometry" />
        </mxCell>
        <mxCell id="UnBP7zHp0_nx1okpZba--794" value="Nginx Container" style="sketch=0;points=[[0,0,0],[0.25,0,0],[0.5,0,0],[0.75,0,0],[1,0,0],[0,1,0],[0.25,1,0],[0.5,1,0],[0.75,1,0],[1,1,0],[0,0.25,0],[0,0.5,0],[0,0.75,0],[1,0.25,0],[1,0.5,0],[1,0.75,0]];outlineConnect=0;fontColor=#232F3E;gradientColor=#F78E04;gradientDirection=north;fillColor=#D05C17;strokeColor=#ffffff;dashed=0;verticalLabelPosition=top;verticalAlign=bottom;align=center;html=1;fontSize=12;fontStyle=1;aspect=fixed;shape=mxgraph.aws4.resourceIcon;resIcon=mxgraph.aws4.containers;fontFamily=Poppins;fontSource=https%3A%2F%2Ffonts.googleapis.com%2Fcss%3Ffamily%3DPoppins;labelPosition=center;container=0;" vertex="1" parent="1">
          <mxGeometry x="932.94" y="3655" width="78" height="78" as="geometry" />
        </mxCell>
        <mxCell id="UnBP7zHp0_nx1okpZba--795" value="ECS Task" style="sketch=0;outlineConnect=0;fontColor=#232F3E;gradientColor=none;fillColor=#D45B07;strokeColor=none;dashed=0;verticalLabelPosition=top;verticalAlign=bottom;align=center;html=1;fontSize=12;fontStyle=1;aspect=fixed;pointerEvents=1;shape=mxgraph.aws4.ecs_task;fontFamily=Poppins;fontSource=https%3A%2F%2Ffonts.googleapis.com%2Fcss%3Ffamily%3DPoppins;labelPosition=center;container=0;" vertex="1" parent="1">
          <mxGeometry x="1062.94" y="3655" width="60.12" height="78" as="geometry" />
        </mxCell>
        <mxCell id="UnBP7zHp0_nx1okpZba--799" value="&lt;b style=&quot;background-color: rgb(255, 255, 255);&quot;&gt;AWS Fargate&lt;/b&gt;" style="sketch=0;points=[[0,0,0],[0.25,0,0],[0.5,0,0],[0.75,0,0],[1,0,0],[0,1,0],[0.25,1,0],[0.5,1,0],[0.75,1,0],[1,1,0],[0,0.25,0],[0,0.5,0],[0,0.75,0],[1,0.25,0],[1,0.5,0],[1,0.75,0]];outlineConnect=0;fontColor=#232F3E;gradientColor=#F78E04;gradientDirection=north;fillColor=#D05C17;strokeColor=#ffffff;dashed=0;verticalLabelPosition=bottom;verticalAlign=top;align=center;html=1;fontSize=12;fontStyle=0;aspect=fixed;shape=mxgraph.aws4.resourceIcon;resIcon=mxgraph.aws4.fargate;fontFamily=Poppins;fontSource=https%3A%2F%2Ffonts.googleapis.com%2Fcss%3Ffamily%3DPoppins;labelPosition=center;container=0;" vertex="1" parent="1">
          <mxGeometry x="873" y="3456" width="78" height="78" as="geometry" />
        </mxCell>
        <mxCell id="UnBP7zHp0_nx1okpZba--800" value="Distributed cache and replication" style="text;html=1;strokeColor=none;fillColor=none;align=center;verticalAlign=middle;whiteSpace=wrap;rounded=0;fontFamily=Poppins;fontSource=https%3A%2F%2Ffonts.googleapis.com%2Fcss%3Ffamily%3DPoppins;container=0;" vertex="1" parent="1">
          <mxGeometry x="1273" y="3456.25" width="130" height="86.5" as="geometry" />
        </mxCell>
        <mxCell id="UnBP7zHp0_nx1okpZba--801" value="File system replication" style="text;html=1;strokeColor=none;fillColor=none;align=center;verticalAlign=middle;whiteSpace=wrap;rounded=0;fontFamily=Poppins;fontSource=https%3A%2F%2Ffonts.googleapis.com%2Fcss%3Ffamily%3DPoppins;container=0;" vertex="1" parent="1">
          <mxGeometry x="1423" y="3456.25" width="110" height="86.5" as="geometry" />
        </mxCell>
        <mxCell id="UnBP7zHp0_nx1okpZba--802" value="Database replication" style="text;html=1;strokeColor=none;fillColor=none;align=center;verticalAlign=middle;whiteSpace=wrap;rounded=0;fontFamily=Poppins;fontSource=https%3A%2F%2Ffonts.googleapis.com%2Fcss%3Ffamily%3DPoppins;container=0;" vertex="1" parent="1">
          <mxGeometry x="1565" y="3456.25" width="110" height="86.5" as="geometry" />
        </mxCell>
        <mxCell id="UnBP7zHp0_nx1okpZba--916" value="" style="rounded=1;arcSize=10;dashed=1;strokeColor=#545B64;fillColor=none;gradientColor=none;strokeWidth=2;labelBackgroundColor=#FFFFFF;fontFamily=Poppins;fontSource=https%3A%2F%2Ffonts.googleapis.com%2Fcss%3Ffamily%3DPoppins;fontSize=11;fontColor=#248814;container=0;" vertex="1" parent="1">
          <mxGeometry x="1262" y="3255.5" width="150" height="495" as="geometry" />
        </mxCell>
        <mxCell id="UnBP7zHp0_nx1okpZba--917" value="" style="rounded=1;arcSize=10;dashed=1;strokeColor=#545B64;fillColor=none;gradientColor=none;strokeWidth=2;labelBackgroundColor=#FFFFFF;fontFamily=Poppins;fontSource=https%3A%2F%2Ffonts.googleapis.com%2Fcss%3Ffamily%3DPoppins;fontSize=11;fontColor=#248814;container=0;" vertex="1" parent="1">
          <mxGeometry x="1564" y="3255.5" width="110" height="495" as="geometry" />
        </mxCell>
        <mxCell id="UnBP7zHp0_nx1okpZba--918" value="" style="rounded=1;arcSize=10;dashed=1;strokeColor=#545B64;fillColor=none;gradientColor=none;strokeWidth=2;labelBackgroundColor=#FFFFFF;fontFamily=Poppins;fontSource=https%3A%2F%2Ffonts.googleapis.com%2Fcss%3Ffamily%3DPoppins;fontSize=11;fontColor=#248814;container=0;" vertex="1" parent="1">
          <mxGeometry x="1422" y="3255.5" width="110" height="495" as="geometry" />
        </mxCell>
        <mxCell id="UnBP7zHp0_nx1okpZba--770" value="&lt;b&gt;NAT Gateway&lt;/b&gt;" style="sketch=0;outlineConnect=0;fontColor=#232F3E;gradientColor=none;fillColor=#4D27AA;strokeColor=none;dashed=0;verticalLabelPosition=bottom;verticalAlign=top;align=center;html=1;fontSize=12;fontStyle=0;aspect=fixed;pointerEvents=1;shape=mxgraph.aws4.nat_gateway;fontFamily=Poppins;fontSource=https%3A%2F%2Ffonts.googleapis.com%2Fcss%3Ffamily%3DPoppins;container=0;" vertex="1" parent="1">
          <mxGeometry x="705" y="3265" width="78" height="78" as="geometry" />
        </mxCell>
        <mxCell id="UnBP7zHp0_nx1okpZba--772" value="Nginx Container" style="sketch=0;points=[[0,0,0],[0.25,0,0],[0.5,0,0],[0.75,0,0],[1,0,0],[0,1,0],[0.25,1,0],[0.5,1,0],[0.75,1,0],[1,1,0],[0,0.25,0],[0,0.5,0],[0,0.75,0],[1,0.25,0],[1,0.5,0],[1,0.75,0]];outlineConnect=0;fontColor=#232F3E;gradientColor=#F78E04;gradientDirection=north;fillColor=#D05C17;strokeColor=#ffffff;dashed=0;verticalLabelPosition=bottom;verticalAlign=top;align=center;html=1;fontSize=12;fontStyle=1;aspect=fixed;shape=mxgraph.aws4.resourceIcon;resIcon=mxgraph.aws4.containers;fontFamily=Poppins;fontSource=https%3A%2F%2Ffonts.googleapis.com%2Fcss%3Ffamily%3DPoppins;container=0;" vertex="1" parent="1">
          <mxGeometry x="932.94" y="3265" width="78" height="78" as="geometry" />
        </mxCell>
        <mxCell id="UnBP7zHp0_nx1okpZba--773" value="ECS Task" style="sketch=0;outlineConnect=0;fontColor=#232F3E;gradientColor=none;fillColor=#D45B07;strokeColor=none;dashed=0;verticalLabelPosition=bottom;verticalAlign=top;align=center;html=1;fontSize=12;fontStyle=1;aspect=fixed;pointerEvents=1;shape=mxgraph.aws4.ecs_task;fontFamily=Poppins;fontSource=https%3A%2F%2Ffonts.googleapis.com%2Fcss%3Ffamily%3DPoppins;container=0;" vertex="1" parent="1">
          <mxGeometry x="1062.94" y="3265" width="60.12" height="78" as="geometry" />
        </mxCell>
        <mxCell id="UnBP7zHp0_nx1okpZba--913" value="&lt;b&gt;Amazon Aurora&lt;/b&gt;" style="sketch=0;points=[[0,0,0],[0.25,0,0],[0.5,0,0],[0.75,0,0],[1,0,0],[0,1,0],[0.25,1,0],[0.5,1,0],[0.75,1,0],[1,1,0],[0,0.25,0],[0,0.5,0],[0,0.75,0],[1,0.25,0],[1,0.5,0],[1,0.75,0]];outlineConnect=0;fontColor=#232F3E;gradientColor=#4D72F3;gradientDirection=north;fillColor=#3334B9;strokeColor=#ffffff;dashed=0;verticalLabelPosition=top;verticalAlign=bottom;align=center;html=1;fontSize=12;fontStyle=0;aspect=fixed;shape=mxgraph.aws4.resourceIcon;resIcon=mxgraph.aws4.aurora;fontFamily=Poppins;fontSource=https%3A%2F%2Ffonts.googleapis.com%2Fcss%3Ffamily%3DPoppins;labelPosition=center;container=0;" vertex="1" parent="1">
          <mxGeometry x="1581.5" y="3281" width="78" height="78" as="geometry" />
        </mxCell>
        <mxCell id="UnBP7zHp0_nx1okpZba--914" value="&lt;b&gt;Amazon EFS&lt;/b&gt;" style="sketch=0;points=[[0,0,0],[0.25,0,0],[0.5,0,0],[0.75,0,0],[1,0,0],[0,1,0],[0.25,1,0],[0.5,1,0],[0.75,1,0],[1,1,0],[0,0.25,0],[0,0.5,0],[0,0.75,0],[1,0.25,0],[1,0.5,0],[1,0.75,0]];outlineConnect=0;fontColor=#232F3E;gradientColor=#60A337;gradientDirection=north;fillColor=#277116;strokeColor=#ffffff;dashed=0;verticalLabelPosition=top;verticalAlign=bottom;align=center;html=1;fontSize=12;fontStyle=0;aspect=fixed;shape=mxgraph.aws4.resourceIcon;resIcon=mxgraph.aws4.elastic_file_system;fontFamily=Poppins;fontSource=https%3A%2F%2Ffonts.googleapis.com%2Fcss%3Ffamily%3DPoppins;labelPosition=center;container=0;" vertex="1" parent="1">
          <mxGeometry x="1441.5" y="3281" width="78" height="78" as="geometry" />
        </mxCell>
        <mxCell id="UnBP7zHp0_nx1okpZba--915" value="Amazon ElastiCache" style="sketch=0;points=[[0,0,0],[0.25,0,0],[0.5,0,0],[0.75,0,0],[1,0,0],[0,1,0],[0.25,1,0],[0.5,1,0],[0.75,1,0],[1,1,0],[0,0.25,0],[0,0.5,0],[0,0.75,0],[1,0.25,0],[1,0.5,0],[1,0.75,0]];outlineConnect=0;fontColor=#232F3E;gradientColor=#4D72F3;gradientDirection=north;fillColor=#3334B9;strokeColor=#ffffff;dashed=0;verticalLabelPosition=top;verticalAlign=bottom;align=center;html=1;fontSize=12;fontStyle=1;aspect=fixed;shape=mxgraph.aws4.resourceIcon;resIcon=mxgraph.aws4.elasticache;fontFamily=Poppins;fontSource=https%3A%2F%2Ffonts.googleapis.com%2Fcss%3Ffamily%3DPoppins;labelPosition=center;container=0;" vertex="1" parent="1">
          <mxGeometry x="1296.5" y="3281" width="78" height="78" as="geometry" />
        </mxCell>
        <mxCell id="UnBP7zHp0_nx1okpZba--784" value="" style="rounded=0;whiteSpace=wrap;html=1;dashed=1;labelBackgroundColor=#FFFFFF;labelBorderColor=none;fillStyle=auto;strokeColor=none;strokeWidth=2;fontFamily=Poppins;fontSource=https%3A%2F%2Ffonts.googleapis.com%2Fcss%3Ffamily%3DPoppins;fontSize=11;fontColor=#147EBA;fillColor=#E9F3E6;gradientColor=none;container=0;" vertex="1" parent="1">
          <mxGeometry x="653" y="3614" width="160" height="160" as="geometry" />
        </mxCell>
        <mxCell id="UnBP7zHp0_nx1okpZba--785" value="Public subnet" style="points=[[0,0],[0.25,0],[0.5,0],[0.75,0],[1,0],[1,0.25],[1,0.5],[1,0.75],[1,1],[0.75,1],[0.5,1],[0.25,1],[0,1],[0,0.75],[0,0.5],[0,0.25]];outlineConnect=0;gradientColor=none;html=1;whiteSpace=wrap;fontSize=12;fontStyle=1;container=0;pointerEvents=0;collapsible=0;recursiveResize=0;shape=mxgraph.aws4.group;grIcon=mxgraph.aws4.group_security_group;grStroke=0;strokeColor=#248814;fillColor=#E9F3E6;verticalAlign=top;align=left;spacingLeft=30;fontColor=#248814;dashed=0;fontFamily=Poppins;fontSource=https%3A%2F%2Ffonts.googleapis.com%2Fcss%3Ffamily%3DPoppins;" vertex="1" parent="1">
          <mxGeometry x="653" y="3749" width="130" height="20" as="geometry" />
        </mxCell>
        <mxCell id="UnBP7zHp0_nx1okpZba--786" value="&lt;b&gt;NAT Gateway&lt;/b&gt;" style="sketch=0;outlineConnect=0;fontColor=#232F3E;gradientColor=none;fillColor=#4D27AA;strokeColor=none;dashed=0;verticalLabelPosition=bottom;verticalAlign=top;align=center;html=1;fontSize=12;fontStyle=0;aspect=fixed;pointerEvents=1;shape=mxgraph.aws4.nat_gateway;fontFamily=Poppins;fontSource=https%3A%2F%2Ffonts.googleapis.com%2Fcss%3Ffamily%3DPoppins;container=0;" vertex="1" parent="1">
          <mxGeometry x="703" y="3634" width="78" height="78" as="geometry" />
        </mxCell>
        <mxCell id="UnBP7zHp0_nx1okpZba--788" value="" style="rounded=0;whiteSpace=wrap;html=1;dashed=1;labelBackgroundColor=#FFFFFF;labelBorderColor=none;fillStyle=auto;strokeColor=none;strokeWidth=2;fontFamily=Poppins;fontSource=https%3A%2F%2Ffonts.googleapis.com%2Fcss%3Ffamily%3DPoppins;fontSize=11;fontColor=#147EBA;fillColor=#E6F2F8;gradientColor=none;container=0;" vertex="1" parent="1">
          <mxGeometry x="1223" y="3614" width="470" height="160" as="geometry" />
        </mxCell>
        <mxCell id="UnBP7zHp0_nx1okpZba--792" value="Private subnet" style="points=[[0,0],[0.25,0],[0.5,0],[0.75,0],[1,0],[1,0.25],[1,0.5],[1,0.75],[1,1],[0.75,1],[0.5,1],[0.25,1],[0,1],[0,0.75],[0,0.5],[0,0.25]];outlineConnect=0;gradientColor=none;html=1;whiteSpace=wrap;fontSize=12;fontStyle=0;container=0;pointerEvents=0;collapsible=0;recursiveResize=0;shape=mxgraph.aws4.group;grIcon=mxgraph.aws4.group_security_group;grStroke=0;strokeColor=#147EBA;fillColor=#E6F2F8;verticalAlign=top;align=left;spacingLeft=30;fontColor=#147EBA;dashed=0;rounded=1;labelBackgroundColor=none;labelBorderColor=none;fillStyle=auto;strokeWidth=2;fontFamily=Poppins;fontSource=https%3A%2F%2Ffonts.googleapis.com%2Fcss%3Ffamily%3DPoppins;" vertex="1" parent="1">
          <mxGeometry x="1224" y="3749" width="130" height="20" as="geometry" />
        </mxCell>
        <mxCell id="UnBP7zHp0_nx1okpZba--904" value="&lt;b&gt;Amazon Aurora&lt;/b&gt;" style="sketch=0;points=[[0,0,0],[0.25,0,0],[0.5,0,0],[0.75,0,0],[1,0,0],[0,1,0],[0.25,1,0],[0.5,1,0],[0.75,1,0],[1,1,0],[0,0.25,0],[0,0.5,0],[0,0.75,0],[1,0.25,0],[1,0.5,0],[1,0.75,0]];outlineConnect=0;fontColor=#232F3E;gradientColor=#4D72F3;gradientDirection=north;fillColor=#3334B9;strokeColor=#ffffff;dashed=0;verticalLabelPosition=bottom;verticalAlign=top;align=center;html=1;fontSize=12;fontStyle=0;aspect=fixed;shape=mxgraph.aws4.resourceIcon;resIcon=mxgraph.aws4.aurora;fontFamily=Poppins;fontSource=https%3A%2F%2Ffonts.googleapis.com%2Fcss%3Ffamily%3DPoppins;container=0;" vertex="1" parent="1">
          <mxGeometry x="1581.5" y="3640" width="78" height="78" as="geometry" />
        </mxCell>
        <mxCell id="UnBP7zHp0_nx1okpZba--905" value="&lt;b&gt;Amazon EFS&lt;/b&gt;" style="sketch=0;points=[[0,0,0],[0.25,0,0],[0.5,0,0],[0.75,0,0],[1,0,0],[0,1,0],[0.25,1,0],[0.5,1,0],[0.75,1,0],[1,1,0],[0,0.25,0],[0,0.5,0],[0,0.75,0],[1,0.25,0],[1,0.5,0],[1,0.75,0]];outlineConnect=0;fontColor=#232F3E;gradientColor=#60A337;gradientDirection=north;fillColor=#277116;strokeColor=#ffffff;dashed=0;verticalLabelPosition=bottom;verticalAlign=top;align=center;html=1;fontSize=12;fontStyle=0;aspect=fixed;shape=mxgraph.aws4.resourceIcon;resIcon=mxgraph.aws4.elastic_file_system;fontFamily=Poppins;fontSource=https%3A%2F%2Ffonts.googleapis.com%2Fcss%3Ffamily%3DPoppins;container=0;" vertex="1" parent="1">
          <mxGeometry x="1441.5" y="3640" width="78" height="78" as="geometry" />
        </mxCell>
        <mxCell id="UnBP7zHp0_nx1okpZba--906" value="Amazon ElastiCache" style="sketch=0;points=[[0,0,0],[0.25,0,0],[0.5,0,0],[0.75,0,0],[1,0,0],[0,1,0],[0.25,1,0],[0.5,1,0],[0.75,1,0],[1,1,0],[0,0.25,0],[0,0.5,0],[0,0.75,0],[1,0.25,0],[1,0.5,0],[1,0.75,0]];outlineConnect=0;fontColor=#232F3E;gradientColor=#4D72F3;gradientDirection=north;fillColor=#3334B9;strokeColor=#ffffff;dashed=0;verticalLabelPosition=bottom;verticalAlign=top;align=center;html=1;fontSize=12;fontStyle=1;aspect=fixed;shape=mxgraph.aws4.resourceIcon;resIcon=mxgraph.aws4.elasticache;fontFamily=Poppins;fontSource=https%3A%2F%2Ffonts.googleapis.com%2Fcss%3Ffamily%3DPoppins;container=0;" vertex="1" parent="1">
          <mxGeometry x="1296.5" y="3640" width="78" height="78" as="geometry" />
        </mxCell>
        <mxCell id="UnBP7zHp0_nx1okpZba--970" value="" style="ellipse;whiteSpace=wrap;html=1;aspect=fixed;dashed=1;labelBackgroundColor=#FFFFFF;strokeWidth=2;fontFamily=Poppins;fontSource=https%3A%2F%2Ffonts.googleapis.com%2Fcss%3Ffamily%3DPoppins;fillColor=default;strokeColor=none;container=0;" vertex="1" parent="1">
          <mxGeometry x="891.5" y="3068.37" width="78" height="78" as="geometry" />
        </mxCell>
        <mxCell id="UnBP7zHp0_nx1okpZba--778" value="&lt;b style=&quot;background-color: rgb(250, 250, 250);&quot;&gt;AWS Secrets Manager&lt;/b&gt;" style="sketch=0;points=[[0,0,0],[0.25,0,0],[0.5,0,0],[0.75,0,0],[1,0,0],[0,1,0],[0.25,1,0],[0.5,1,0],[0.75,1,0],[1,1,0],[0,0.25,0],[0,0.5,0],[0,0.75,0],[1,0.25,0],[1,0.5,0],[1,0.75,0]];outlineConnect=0;fontColor=#232F3E;gradientColor=#F54749;gradientDirection=north;fillColor=#C7131F;strokeColor=#ffffff;dashed=0;verticalLabelPosition=bottom;verticalAlign=top;align=center;html=1;fontSize=12;fontStyle=0;aspect=fixed;shape=mxgraph.aws4.resourceIcon;resIcon=mxgraph.aws4.secrets_manager;fontFamily=Poppins;fontSource=https%3A%2F%2Ffonts.googleapis.com%2Fcss%3Ffamily%3DPoppins;container=0;" vertex="1" parent="1">
          <mxGeometry x="1130.5" y="3064.62" width="78" height="78" as="geometry" />
        </mxCell>
        <mxCell id="UnBP7zHp0_nx1okpZba--805" value="&lt;b style=&quot;background-color: rgb(255, 255, 255);&quot;&gt;Amazon ECR&lt;/b&gt;" style="sketch=0;points=[[0,0,0],[0.25,0,0],[0.5,0,0],[0.75,0,0],[1,0,0],[0,1,0],[0.25,1,0],[0.5,1,0],[0.75,1,0],[1,1,0],[0,0.25,0],[0,0.5,0],[0,0.75,0],[1,0.25,0],[1,0.5,0],[1,0.75,0]];outlineConnect=0;fontColor=#232F3E;gradientColor=#F78E04;gradientDirection=north;fillColor=#D05C17;strokeColor=#ffffff;dashed=0;verticalLabelPosition=bottom;verticalAlign=top;align=center;html=1;fontSize=12;fontStyle=0;aspect=fixed;shape=mxgraph.aws4.resourceIcon;resIcon=mxgraph.aws4.ecr;fontFamily=Poppins;fontSource=https%3A%2F%2Ffonts.googleapis.com%2Fcss%3Ffamily%3DPoppins;container=0;" vertex="1" parent="1">
          <mxGeometry x="1379.5" y="3066.87" width="78" height="78" as="geometry" />
        </mxCell>
        <mxCell id="UnBP7zHp0_nx1okpZba--804" value="&lt;b style=&quot;background-color: rgb(255, 255, 255);&quot;&gt;Internet Gateway&lt;/b&gt;" style="sketch=0;outlineConnect=0;fontColor=#232F3E;gradientColor=none;fillColor=#4D27AA;strokeColor=default;dashed=0;verticalLabelPosition=bottom;verticalAlign=top;align=center;html=1;fontSize=12;fontStyle=0;aspect=fixed;pointerEvents=1;shape=mxgraph.aws4.internet_gateway;fontFamily=Poppins;fontSource=https%3A%2F%2Ffonts.googleapis.com%2Fcss%3Ffamily%3DPoppins;container=0;" vertex="1" parent="1">
          <mxGeometry x="890.5" y="3067.37" width="78" height="78" as="geometry" />
        </mxCell>
        <mxCell id="UnBP7zHp0_nx1okpZba--806" style="edgeStyle=orthogonalEdgeStyle;rounded=0;orthogonalLoop=1;jettySize=auto;html=1;exitX=0.5;exitY=0;exitDx=0;exitDy=0;exitPerimeter=0;fontFamily=Poppins;fontSource=https%3A%2F%2Ffonts.googleapis.com%2Fcss%3Ffamily%3DPoppins;startArrow=none;startFill=0;endArrow=classic;endFill=1;" edge="1" parent="1" source="UnBP7zHp0_nx1okpZba--753">
          <mxGeometry relative="1" as="geometry">
            <mxPoint x="1945" y="2901.5" as="targetPoint" />
            <Array as="points">
              <mxPoint x="2150.88" y="2995.5" />
              <mxPoint x="1944.88" y="2995.5" />
            </Array>
          </mxGeometry>
        </mxCell>
        <mxCell id="UnBP7zHp0_nx1okpZba--748" value="&lt;b&gt;AWS KMS&lt;/b&gt;" style="sketch=0;points=[[0,0,0],[0.25,0,0],[0.5,0,0],[0.75,0,0],[1,0,0],[0,1,0],[0.25,1,0],[0.5,1,0],[0.75,1,0],[1,1,0],[0,0.25,0],[0,0.5,0],[0,0.75,0],[1,0.25,0],[1,0.5,0],[1,0.75,0]];outlineConnect=0;fontColor=#232F3E;gradientColor=#F54749;gradientDirection=north;fillColor=#C7131F;strokeColor=#ffffff;dashed=0;verticalLabelPosition=bottom;verticalAlign=top;align=center;html=1;fontSize=12;fontStyle=0;aspect=fixed;shape=mxgraph.aws4.resourceIcon;resIcon=mxgraph.aws4.key_management_service;fontFamily=Poppins;fontSource=https%3A%2F%2Ffonts.googleapis.com%2Fcss%3Ffamily%3DPoppins;container=0;" vertex="1" parent="1">
          <mxGeometry x="1881.6200000000001" y="3200.2400000000002" width="78" height="78" as="geometry" />
        </mxCell>
        <mxCell id="UnBP7zHp0_nx1okpZba--749" value="Image deployment component" style="fillColor=none;strokeColor=#5A6C86;dashed=1;verticalAlign=top;fontStyle=0;fontColor=#5A6C86;fontFamily=Poppins;fontSource=https%3A%2F%2Ffonts.googleapis.com%2Fcss%3Ffamily%3DPoppins;container=0;strokeWidth=2;rotation=-90;" vertex="1" parent="1">
          <mxGeometry x="2010.69" y="2848.74" width="289.81" height="649.43" as="geometry" />
        </mxCell>
        <mxCell id="UnBP7zHp0_nx1okpZba--750" value="" style="edgeStyle=orthogonalEdgeStyle;rounded=0;orthogonalLoop=1;jettySize=auto;html=1;fontFamily=Poppins;fontSource=https%3A%2F%2Ffonts.googleapis.com%2Fcss%3Ffamily%3DPoppins;startArrow=classic;startFill=1;endArrow=none;endFill=0;" edge="1" parent="1" source="UnBP7zHp0_nx1okpZba--751" target="UnBP7zHp0_nx1okpZba--748">
          <mxGeometry relative="1" as="geometry" />
        </mxCell>
        <mxCell id="UnBP7zHp0_nx1okpZba--754" value="" style="edgeStyle=orthogonalEdgeStyle;rounded=0;orthogonalLoop=1;jettySize=auto;html=1;fontFamily=Poppins;fontSource=https%3A%2F%2Ffonts.googleapis.com%2Fcss%3Ffamily%3DPoppins;" edge="1" parent="1" source="UnBP7zHp0_nx1okpZba--755" target="UnBP7zHp0_nx1okpZba--753">
          <mxGeometry relative="1" as="geometry" />
        </mxCell>
        <mxCell id="UnBP7zHp0_nx1okpZba--755" value="&lt;b&gt;AWS CodeCommit&lt;/b&gt;" style="sketch=0;points=[[0,0,0],[0.25,0,0],[0.5,0,0],[0.75,0,0],[1,0,0],[0,1,0],[0.25,1,0],[0.5,1,0],[0.75,1,0],[1,1,0],[0,0.25,0],[0,0.5,0],[0,0.75,0],[1,0.25,0],[1,0.5,0],[1,0.75,0]];outlineConnect=0;fontColor=#232F3E;gradientColor=#4D72F3;gradientDirection=north;fillColor=#3334B9;strokeColor=#ffffff;dashed=0;verticalLabelPosition=bottom;verticalAlign=top;align=center;html=1;fontSize=12;fontStyle=0;aspect=fixed;shape=mxgraph.aws4.resourceIcon;resIcon=mxgraph.aws4.codecommit;dashPattern=1 1;labelBackgroundColor=#FFFFFF;fontFamily=Poppins;fontSource=https%3A%2F%2Ffonts.googleapis.com%2Fcss%3Ffamily%3DPoppins;container=0;" vertex="1" parent="1">
          <mxGeometry x="1881.6155555555558" y="3042.76" width="78" height="78" as="geometry" />
        </mxCell>
        <mxCell id="UnBP7zHp0_nx1okpZba--756" value="&lt;b&gt;Amazon Inspector&lt;/b&gt;" style="sketch=0;points=[[0,0,0],[0.25,0,0],[0.5,0,0],[0.75,0,0],[1,0,0],[0,1,0],[0.25,1,0],[0.5,1,0],[0.75,1,0],[1,1,0],[0,0.25,0],[0,0.5,0],[0,0.75,0],[1,0.25,0],[1,0.5,0],[1,0.75,0]];outlineConnect=0;fontColor=#232F3E;gradientColor=#F54749;gradientDirection=north;fillColor=#C7131F;strokeColor=#ffffff;dashed=0;verticalLabelPosition=bottom;verticalAlign=top;align=center;html=1;fontSize=12;fontStyle=0;aspect=fixed;shape=mxgraph.aws4.resourceIcon;resIcon=mxgraph.aws4.inspector;dashPattern=1 1;labelBackgroundColor=#FFFFFF;fontFamily=Poppins;fontSource=https%3A%2F%2Ffonts.googleapis.com%2Fcss%3Ffamily%3DPoppins;container=0;" vertex="1" parent="1">
          <mxGeometry x="2324" y="3200.2400000000002" width="78" height="78" as="geometry" />
        </mxCell>
        <mxCell id="UnBP7zHp0_nx1okpZba--757" value="Source &amp;amp; artifacts" style="text;html=1;strokeColor=none;fillColor=none;align=center;verticalAlign=middle;whiteSpace=wrap;rounded=0;dashed=1;dashPattern=1 1;labelBackgroundColor=none;fontFamily=Poppins;fontSource=https%3A%2F%2Ffonts.googleapis.com%2Fcss%3Ffamily%3DPoppins;container=0;" vertex="1" parent="1">
          <mxGeometry x="1965.62" y="3051.24" width="138.38" height="30" as="geometry" />
        </mxCell>
        <mxCell id="UnBP7zHp0_nx1okpZba--761" style="edgeStyle=orthogonalEdgeStyle;rounded=0;orthogonalLoop=1;jettySize=auto;html=1;exitX=1;exitY=0.5;exitDx=0;exitDy=0;exitPerimeter=0;entryX=0.5;entryY=0;entryDx=0;entryDy=0;fontFamily=Poppins;fontSource=https%3A%2F%2Ffonts.googleapis.com%2Fcss%3Ffamily%3DPoppins;" edge="1" parent="1" source="UnBP7zHp0_nx1okpZba--753" target="UnBP7zHp0_nx1okpZba--759">
          <mxGeometry relative="1" as="geometry" />
        </mxCell>
        <mxCell id="UnBP7zHp0_nx1okpZba--762" style="edgeStyle=orthogonalEdgeStyle;rounded=0;orthogonalLoop=1;jettySize=auto;html=1;exitX=0;exitY=0.5;exitDx=0;exitDy=0;entryX=1;entryY=0.5;entryDx=0;entryDy=0;entryPerimeter=0;fontFamily=Poppins;fontSource=https%3A%2F%2Ffonts.googleapis.com%2Fcss%3Ffamily%3DPoppins;" edge="1" parent="1" source="UnBP7zHp0_nx1okpZba--759" target="UnBP7zHp0_nx1okpZba--756">
          <mxGeometry relative="1" as="geometry" />
        </mxCell>
        <mxCell id="UnBP7zHp0_nx1okpZba--763" value="Vulnerability Databse" style="text;html=1;strokeColor=none;fillColor=none;align=center;verticalAlign=middle;whiteSpace=wrap;rounded=0;dashed=1;dashPattern=1 1;labelBackgroundColor=#FFFFFF;fontFamily=Poppins;fontSource=https%3A%2F%2Ffonts.googleapis.com%2Fcss%3Ffamily%3DPoppins;container=0;" vertex="1" parent="1">
          <mxGeometry x="2214" y="3049.24" width="250" height="30" as="geometry" />
        </mxCell>
        <mxCell id="UnBP7zHp0_nx1okpZba--765" value="" style="endArrow=none;html=1;rounded=0;fontFamily=Poppins;fontSource=https%3A%2F%2Ffonts.googleapis.com%2Fcss%3Ffamily%3DPoppins;entryX=0;entryY=0.5;entryDx=0;entryDy=0;entryPerimeter=0;exitX=1;exitY=0.5;exitDx=0;exitDy=0;exitPerimeter=0;" edge="1" parent="1" source="UnBP7zHp0_nx1okpZba--751" target="UnBP7zHp0_nx1okpZba--756">
          <mxGeometry width="50" height="50" relative="1" as="geometry">
            <mxPoint x="1836.6200000000001" y="3410.2400000000002" as="sourcePoint" />
            <mxPoint x="1886.6200000000001" y="3360.2400000000002" as="targetPoint" />
          </mxGeometry>
        </mxCell>
        <mxCell id="UnBP7zHp0_nx1okpZba--766" value="Access credentials" style="text;html=1;strokeColor=none;fillColor=none;align=center;verticalAlign=middle;whiteSpace=wrap;rounded=0;dashed=1;dashPattern=1 1;labelBackgroundColor=none;fontFamily=Poppins;fontSource=https%3A%2F%2Ffonts.googleapis.com%2Fcss%3Ffamily%3DPoppins;container=0;" vertex="1" parent="1">
          <mxGeometry x="1968.62" y="3208.99" width="135.38" height="30" as="geometry" />
        </mxCell>
        <mxCell id="UnBP7zHp0_nx1okpZba--877" value="" style="rounded=0;whiteSpace=wrap;html=1;dashed=1;strokeWidth=2;fontFamily=Poppins;fontSource=https%3A%2F%2Ffonts.googleapis.com%2Fcss%3Ffamily%3DPoppins;fillColor=default;strokeColor=none;container=0;" vertex="1" parent="1">
          <mxGeometry x="2107.8050000000003" y="3284.355" width="94.39" height="17.64" as="geometry" />
        </mxCell>
        <mxCell id="UnBP7zHp0_nx1okpZba--751" value="AWS CodeBuild" style="sketch=0;points=[[0,0,0],[0.25,0,0],[0.5,0,0],[0.75,0,0],[1,0,0],[0,1,0],[0.25,1,0],[0.5,1,0],[0.75,1,0],[1,1,0],[0,0.25,0],[0,0.5,0],[0,0.75,0],[1,0.25,0],[1,0.5,0],[1,0.75,0]];outlineConnect=0;fontColor=#232F3E;gradientColor=#4D72F3;gradientDirection=north;fillColor=#3334B9;strokeColor=#ffffff;dashed=0;verticalLabelPosition=bottom;verticalAlign=top;align=center;html=1;fontSize=12;fontStyle=1;aspect=fixed;shape=mxgraph.aws4.resourceIcon;resIcon=mxgraph.aws4.codebuild;dashPattern=1 1;labelBackgroundColor=#FFFFFF;fontFamily=Poppins;fontSource=https%3A%2F%2Ffonts.googleapis.com%2Fcss%3Ffamily%3DPoppins;labelPosition=center;container=0;" vertex="1" parent="1">
          <mxGeometry x="2112.5933333333332" y="3200.2400000000002" width="78" height="78" as="geometry" />
        </mxCell>
        <mxCell id="UnBP7zHp0_nx1okpZba--752" style="edgeStyle=orthogonalEdgeStyle;rounded=0;orthogonalLoop=1;jettySize=auto;html=1;exitX=0.5;exitY=1;exitDx=0;exitDy=0;exitPerimeter=0;fontFamily=Poppins;fontSource=https%3A%2F%2Ffonts.googleapis.com%2Fcss%3Ffamily%3DPoppins;" edge="1" parent="1" source="UnBP7zHp0_nx1okpZba--753" target="UnBP7zHp0_nx1okpZba--751">
          <mxGeometry relative="1" as="geometry" />
        </mxCell>
        <mxCell id="UnBP7zHp0_nx1okpZba--931" value="" style="rounded=0;whiteSpace=wrap;html=1;dashed=1;labelBackgroundColor=#FFFFFF;strokeWidth=2;fontFamily=Poppins;fontSource=https%3A%2F%2Ffonts.googleapis.com%2Fcss%3Ffamily%3DPoppins;fillColor=default;strokeColor=none;container=0;" vertex="1" parent="1">
          <mxGeometry x="2096.91" y="3125" width="105.29" height="29.26" as="geometry" />
        </mxCell>
        <mxCell id="UnBP7zHp0_nx1okpZba--753" value="&lt;span style=&quot;background-color: rgb(255, 255, 255);&quot;&gt;&lt;b&gt;AWS CodePipeline&lt;/b&gt;&lt;br&gt;Snyk Action&lt;/span&gt;" style="sketch=0;points=[[0,0,0],[0.25,0,0],[0.5,0,0],[0.75,0,0],[1,0,0],[0,1,0],[0.25,1,0],[0.5,1,0],[0.75,1,0],[1,1,0],[0,0.25,0],[0,0.5,0],[0,0.75,0],[1,0.25,0],[1,0.5,0],[1,0.75,0]];outlineConnect=0;fontColor=#232F3E;gradientColor=#4D72F3;gradientDirection=north;fillColor=#3334B9;strokeColor=#ffffff;dashed=0;verticalLabelPosition=bottom;verticalAlign=top;align=center;html=1;fontSize=12;fontStyle=0;aspect=fixed;shape=mxgraph.aws4.resourceIcon;resIcon=mxgraph.aws4.codepipeline;dashPattern=1 1;labelBackgroundColor=#FFFFFF;fontFamily=Poppins;fontSource=https%3A%2F%2Ffonts.googleapis.com%2Fcss%3Ffamily%3DPoppins;labelPosition=center;container=0;" vertex="1" parent="1">
          <mxGeometry x="2112.003333333333" y="3042.7600000000007" width="78" height="78" as="geometry" />
        </mxCell>
        <mxCell id="UnBP7zHp0_nx1okpZba--808" value="Backup" style="fillColor=none;strokeColor=#5A6C86;dashed=1;verticalAlign=top;fontStyle=0;fontColor=#5A6C86;fontFamily=Poppins;fontSource=https%3A%2F%2Ffonts.googleapis.com%2Fcss%3Ffamily%3DPoppins;container=0;strokeWidth=2;" vertex="1" parent="1">
          <mxGeometry x="1832" y="2433.5" width="646" height="510" as="geometry" />
        </mxCell>
        <mxCell id="UnBP7zHp0_nx1okpZba--809" value="Backup Plan" style="sketch=0;points=[[0,0,0],[0.25,0,0],[0.5,0,0],[0.75,0,0],[1,0,0],[0,1,0],[0.25,1,0],[0.5,1,0],[0.75,1,0],[1,1,0],[0,0.25,0],[0,0.5,0],[0,0.75,0],[1,0.25,0],[1,0.5,0],[1,0.75,0]];outlineConnect=0;fontColor=#232F3E;gradientColor=#60A337;gradientDirection=north;fillColor=#277116;strokeColor=#ffffff;dashed=0;verticalLabelPosition=top;verticalAlign=bottom;align=center;html=1;fontSize=12;fontStyle=1;aspect=fixed;shape=mxgraph.aws4.resourceIcon;resIcon=mxgraph.aws4.backup;labelBackgroundColor=none;strokeWidth=3;fontFamily=Poppins;fontSource=https%3A%2F%2Ffonts.googleapis.com%2Fcss%3Ffamily%3DPoppins;labelPosition=center;spacing=4;container=0;" vertex="1" parent="1">
          <mxGeometry x="1911" y="2665.88" width="78" height="78" as="geometry" />
        </mxCell>
        <mxCell id="UnBP7zHp0_nx1okpZba--810" value="" style="edgeStyle=orthogonalEdgeStyle;rounded=0;orthogonalLoop=1;jettySize=auto;html=1;fontFamily=Poppins;fontSource=https%3A%2F%2Ffonts.googleapis.com%2Fcss%3Ffamily%3DPoppins;startArrow=none;startFill=0;endArrow=classic;endFill=1;" edge="1" parent="1" source="UnBP7zHp0_nx1okpZba--812" target="UnBP7zHp0_nx1okpZba--809">
          <mxGeometry relative="1" as="geometry" />
        </mxCell>
        <mxCell id="UnBP7zHp0_nx1okpZba--811" style="edgeStyle=orthogonalEdgeStyle;rounded=0;orthogonalLoop=1;jettySize=auto;html=1;exitX=1;exitY=0.5;exitDx=0;exitDy=0;exitPerimeter=0;fontFamily=Poppins;fontSource=https%3A%2F%2Ffonts.googleapis.com%2Fcss%3Ffamily%3DPoppins;startArrow=none;startFill=0;endArrow=classic;endFill=1;" edge="1" parent="1" source="UnBP7zHp0_nx1okpZba--812">
          <mxGeometry relative="1" as="geometry">
            <mxPoint x="2149" y="2862.2499999999995" as="targetPoint" />
          </mxGeometry>
        </mxCell>
        <mxCell id="UnBP7zHp0_nx1okpZba--812" value="" style="sketch=0;points=[[0,0,0],[0.25,0,0],[0.5,0,0],[0.75,0,0],[1,0,0],[0,1,0],[0.25,1,0],[0.5,1,0],[0.75,1,0],[1,1,0],[0,0.25,0],[0,0.5,0],[0,0.75,0],[1,0.25,0],[1,0.5,0],[1,0.75,0]];outlineConnect=0;fontColor=#232F3E;gradientColor=#60A337;gradientDirection=north;fillColor=#277116;strokeColor=#ffffff;dashed=0;verticalLabelPosition=bottom;verticalAlign=top;align=center;html=1;fontSize=12;fontStyle=1;aspect=fixed;shape=mxgraph.aws4.resourceIcon;resIcon=mxgraph.aws4.backup;labelBackgroundColor=none;strokeWidth=1;fontFamily=Poppins;fontSource=https%3A%2F%2Ffonts.googleapis.com%2Fcss%3Ffamily%3DPoppins;labelPosition=center;container=0;" vertex="1" parent="1">
          <mxGeometry x="1911" y="2823.25" width="78" height="78" as="geometry" />
        </mxCell>
        <mxCell id="UnBP7zHp0_nx1okpZba--813" value="Backup Vault" style="sketch=0;points=[[0,0,0],[0.25,0,0],[0.5,0,0],[0.75,0,0],[1,0,0],[0,1,0],[0.25,1,0],[0.5,1,0],[0.75,1,0],[1,1,0],[0,0.25,0],[0,0.5,0],[0,0.75,0],[1,0.25,0],[1,0.5,0],[1,0.75,0]];outlineConnect=0;fontColor=#232F3E;gradientColor=#60A337;gradientDirection=north;fillColor=#277116;strokeColor=#ffffff;dashed=0;verticalLabelPosition=bottom;verticalAlign=top;align=center;html=1;fontSize=12;fontStyle=1;aspect=fixed;shape=mxgraph.aws4.resourceIcon;resIcon=mxgraph.aws4.backup;labelBackgroundColor=none;strokeWidth=3;fontFamily=Poppins;fontSource=https%3A%2F%2Ffonts.googleapis.com%2Fcss%3Ffamily%3DPoppins;container=0;" vertex="1" parent="1">
          <mxGeometry x="2141" y="2665.88" width="78" height="78" as="geometry" />
        </mxCell>
        <mxCell id="UnBP7zHp0_nx1okpZba--814" style="edgeStyle=orthogonalEdgeStyle;rounded=0;orthogonalLoop=1;jettySize=auto;html=1;exitX=1;exitY=0.5;exitDx=0;exitDy=0;exitPerimeter=0;entryX=0;entryY=0.5;entryDx=0;entryDy=0;entryPerimeter=0;fontFamily=Poppins;fontSource=https%3A%2F%2Ffonts.googleapis.com%2Fcss%3Ffamily%3DPoppins;startArrow=none;startFill=0;endArrow=classic;endFill=1;" edge="1" parent="1" source="UnBP7zHp0_nx1okpZba--809" target="UnBP7zHp0_nx1okpZba--813">
          <mxGeometry relative="1" as="geometry" />
        </mxCell>
        <mxCell id="UnBP7zHp0_nx1okpZba--815" value="Refers backup vault" style="text;html=1;strokeColor=none;fillColor=none;align=center;verticalAlign=middle;whiteSpace=wrap;rounded=0;dashed=1;labelBackgroundColor=none;strokeWidth=3;fontFamily=Poppins;fontSource=https%3A%2F%2Ffonts.googleapis.com%2Fcss%3Ffamily%3DPoppins;container=0;" vertex="1" parent="1">
          <mxGeometry x="1993" y="2682.13" width="140" height="20.75" as="geometry" />
        </mxCell>
        <mxCell id="UnBP7zHp0_nx1okpZba--816" value="" style="sketch=0;outlineConnect=0;fontColor=#232F3E;gradientColor=none;fillColor=#BF0816;strokeColor=none;dashed=0;verticalLabelPosition=bottom;verticalAlign=top;align=center;html=1;fontSize=12;fontStyle=0;aspect=fixed;pointerEvents=1;shape=mxgraph.aws4.permissions;labelBackgroundColor=none;strokeWidth=3;fontFamily=Poppins;fontSource=https%3A%2F%2Ffonts.googleapis.com%2Fcss%3Ffamily%3DPoppins;container=0;" vertex="1" parent="1">
          <mxGeometry x="2149" y="2823.25" width="62" height="78" as="geometry" />
        </mxCell>
        <mxCell id="UnBP7zHp0_nx1okpZba--817" style="edgeStyle=orthogonalEdgeStyle;rounded=0;orthogonalLoop=1;jettySize=auto;html=1;fontFamily=Poppins;fontSource=https%3A%2F%2Ffonts.googleapis.com%2Fcss%3Ffamily%3DPoppins;startArrow=classic;startFill=1;endArrow=none;endFill=0;entryX=0.5;entryY=0;entryDx=0;entryDy=0;entryPerimeter=0;" edge="1" parent="1" source="UnBP7zHp0_nx1okpZba--818" target="UnBP7zHp0_nx1okpZba--813">
          <mxGeometry relative="1" as="geometry">
            <mxPoint x="2180" y="2663.25" as="targetPoint" />
          </mxGeometry>
        </mxCell>
        <mxCell id="UnBP7zHp0_nx1okpZba--818" value="" style="sketch=0;outlineConnect=0;fontColor=#232F3E;gradientColor=none;fillColor=#BF0816;strokeColor=none;dashed=0;verticalLabelPosition=bottom;verticalAlign=top;align=center;html=1;fontSize=12;fontStyle=0;aspect=fixed;pointerEvents=1;shape=mxgraph.aws4.addon;labelBackgroundColor=none;strokeWidth=3;fontFamily=Poppins;fontSource=https%3A%2F%2Ffonts.googleapis.com%2Fcss%3Ffamily%3DPoppins;container=0;" vertex="1" parent="1">
          <mxGeometry x="2371" y="2598.25" width="78" height="40" as="geometry" />
        </mxCell>
        <mxCell id="UnBP7zHp0_nx1okpZba--819" value="Refers IAM Role" style="text;html=1;strokeColor=none;fillColor=none;align=center;verticalAlign=middle;whiteSpace=wrap;rounded=0;dashed=1;labelBackgroundColor=none;strokeWidth=3;fontFamily=Poppins;fontSource=https%3A%2F%2Ffonts.googleapis.com%2Fcss%3Ffamily%3DPoppins;container=0;" vertex="1" parent="1">
          <mxGeometry x="1993" y="2839.25" width="140" height="20.75" as="geometry" />
        </mxCell>
        <mxCell id="UnBP7zHp0_nx1okpZba--820" value="Refers backup plan" style="text;html=1;strokeColor=none;fillColor=none;align=center;verticalAlign=middle;whiteSpace=wrap;rounded=0;dashed=1;labelBackgroundColor=none;strokeWidth=3;fontFamily=Poppins;fontSource=https%3A%2F%2Ffonts.googleapis.com%2Fcss%3Ffamily%3DPoppins;container=0;" vertex="1" parent="1">
          <mxGeometry x="1951" y="2773.25" width="140" height="20.75" as="geometry" />
        </mxCell>
        <mxCell id="UnBP7zHp0_nx1okpZba--821" value="" style="sketch=0;outlineConnect=0;fontColor=#232F3E;gradientColor=none;fillColor=#BF0816;strokeColor=none;dashed=0;verticalLabelPosition=bottom;verticalAlign=top;align=center;html=1;fontSize=12;fontStyle=0;aspect=fixed;pointerEvents=1;shape=mxgraph.aws4.permissions;labelBackgroundColor=none;strokeWidth=3;fontFamily=Poppins;fontSource=https%3A%2F%2Ffonts.googleapis.com%2Fcss%3Ffamily%3DPoppins;container=0;" vertex="1" parent="1">
          <mxGeometry x="2371" y="2665.88" width="62" height="78" as="geometry" />
        </mxCell>
        <mxCell id="UnBP7zHp0_nx1okpZba--822" style="edgeStyle=orthogonalEdgeStyle;rounded=0;orthogonalLoop=1;jettySize=auto;html=1;exitX=1;exitY=0.5;exitDx=0;exitDy=0;exitPerimeter=0;fontFamily=Poppins;fontSource=https%3A%2F%2Ffonts.googleapis.com%2Fcss%3Ffamily%3DPoppins;startArrow=none;startFill=0;endArrow=classic;endFill=1;" edge="1" parent="1" source="UnBP7zHp0_nx1okpZba--813" target="UnBP7zHp0_nx1okpZba--821">
          <mxGeometry relative="1" as="geometry" />
        </mxCell>
        <mxCell id="UnBP7zHp0_nx1okpZba--823" value="Refers KMS" style="text;html=1;strokeColor=none;fillColor=none;align=center;verticalAlign=middle;whiteSpace=wrap;rounded=0;dashed=1;labelBackgroundColor=none;strokeWidth=3;fontFamily=Poppins;fontSource=https%3A%2F%2Ffonts.googleapis.com%2Fcss%3Ffamily%3DPoppins;container=0;" vertex="1" parent="1">
          <mxGeometry x="2180" y="2620.5" width="181" height="20.75" as="geometry" />
        </mxCell>
        <mxCell id="UnBP7zHp0_nx1okpZba--824" value="Has resource policy" style="text;html=1;strokeColor=none;fillColor=none;align=center;verticalAlign=middle;whiteSpace=wrap;rounded=0;dashed=1;labelBackgroundColor=none;strokeWidth=3;fontFamily=Poppins;fontSource=https%3A%2F%2Ffonts.googleapis.com%2Fcss%3Ffamily%3DPoppins;container=0;" vertex="1" parent="1">
          <mxGeometry x="2234" y="2681.88" width="120" height="20.75" as="geometry" />
        </mxCell>
        <mxCell id="UnBP7zHp0_nx1okpZba--825" value="Region" style="points=[[0,0],[0.25,0],[0.5,0],[0.75,0],[1,0],[1,0.25],[1,0.5],[1,0.75],[1,1],[0.75,1],[0.5,1],[0.25,1],[0,1],[0,0.75],[0,0.5],[0,0.25]];outlineConnect=0;gradientColor=none;html=1;whiteSpace=wrap;fontSize=12;fontStyle=0;container=0;pointerEvents=0;collapsible=0;recursiveResize=0;shape=mxgraph.aws4.group;grIcon=mxgraph.aws4.group_region;strokeColor=#147EBA;fillColor=none;verticalAlign=top;align=left;spacingLeft=30;fontColor=#147EBA;dashed=1;labelBackgroundColor=none;strokeWidth=2;fontFamily=Poppins;fontSource=https%3A%2F%2Ffonts.googleapis.com%2Fcss%3Ffamily%3DPoppins;" vertex="1" parent="1">
          <mxGeometry x="1850" y="2463.25" width="200" height="160" as="geometry" />
        </mxCell>
        <mxCell id="UnBP7zHp0_nx1okpZba--827" style="edgeStyle=orthogonalEdgeStyle;rounded=0;orthogonalLoop=1;jettySize=auto;html=1;exitX=1;exitY=0.5;exitDx=0;exitDy=0;exitPerimeter=0;entryX=0.5;entryY=0;entryDx=0;entryDy=0;entryPerimeter=0;fontFamily=Poppins;fontSource=https%3A%2F%2Ffonts.googleapis.com%2Fcss%3Ffamily%3DPoppins;startArrow=classic;startFill=1;endArrow=none;endFill=0;" edge="1" parent="1" source="UnBP7zHp0_nx1okpZba--826" target="UnBP7zHp0_nx1okpZba--813">
          <mxGeometry relative="1" as="geometry" />
        </mxCell>
        <mxCell id="UnBP7zHp0_nx1okpZba--828" value="&lt;span style=&quot;color: rgb(35, 47, 62); font-weight: 700; background-color: rgb(255, 255, 255);&quot;&gt;Backup Selection&lt;/span&gt;" style="text;html=1;strokeColor=none;fillColor=none;align=center;verticalAlign=middle;whiteSpace=wrap;rounded=0;dashed=1;labelBackgroundColor=#FFFFFF;strokeWidth=1;fontFamily=Poppins;fontSource=https%3A%2F%2Ffonts.googleapis.com%2Fcss%3Ffamily%3DPoppins;container=0;" vertex="1" parent="1">
          <mxGeometry x="1900" y="2911.5" width="110" height="30" as="geometry" />
        </mxCell>
        <mxCell id="UnBP7zHp0_nx1okpZba--829" value="" style="rounded=0;whiteSpace=wrap;html=1;dashed=1;labelBackgroundColor=#FFFFFF;strokeColor=none;strokeWidth=1;fontFamily=Poppins;fontSource=https%3A%2F%2Ffonts.googleapis.com%2Fcss%3Ffamily%3DPoppins;fillColor=none;container=0;" vertex="1" parent="1">
          <mxGeometry x="1993" y="2873.25" width="58" height="10" as="geometry" />
        </mxCell>
        <mxCell id="UnBP7zHp0_nx1okpZba--826" value="Backup Vault&lt;br&gt;&lt;span style=&quot;font-weight: normal;&quot;&gt;In target replication region&lt;/span&gt;" style="sketch=0;points=[[0,0,0],[0.25,0,0],[0.5,0,0],[0.75,0,0],[1,0,0],[0,1,0],[0.25,1,0],[0.5,1,0],[0.75,1,0],[1,1,0],[0,0.25,0],[0,0.5,0],[0,0.75,0],[1,0.25,0],[1,0.5,0],[1,0.75,0]];outlineConnect=0;fontColor=#232F3E;gradientColor=#60A337;gradientDirection=north;fillColor=#277116;strokeColor=#ffffff;dashed=0;verticalLabelPosition=bottom;verticalAlign=top;align=center;html=1;fontSize=12;fontStyle=1;aspect=fixed;shape=mxgraph.aws4.resourceIcon;resIcon=mxgraph.aws4.backup;labelBackgroundColor=none;strokeWidth=3;fontFamily=Poppins;fontSource=https%3A%2F%2Ffonts.googleapis.com%2Fcss%3Ffamily%3DPoppins;container=0;" vertex="1" parent="1">
          <mxGeometry x="1911" y="2495" width="78" height="78" as="geometry" />
        </mxCell>
        <mxCell id="UnBP7zHp0_nx1okpZba--759" value="Snyk integration" style="fillColor=none;strokeColor=#5A6C86;dashed=1;verticalAlign=top;fontStyle=0;fontColor=#5A6C86;fontFamily=Poppins;fontSource=https%3A%2F%2Ffonts.googleapis.com%2Fcss%3Ffamily%3DPoppins;container=0;" vertex="1" parent="1">
          <mxGeometry x="2584.62" y="3184.2400000000002" width="140" height="110" as="geometry" />
        </mxCell>
        <mxCell id="UnBP7zHp0_nx1okpZba--760" value="" style="shape=image;verticalLabelPosition=bottom;labelBackgroundColor=default;verticalAlign=top;aspect=fixed;imageAspect=0;image=data:image/png,iVBORw0KGgoAAAANSUhEUgAAAloAAAFWCAYAAACxcTMMAAAABGdBTUEAALGPC/xhBQAAQABJREFUeAHtnQd8HMXZ/5+9pt6s4qbiio0BY1kumBYDpsWEQMAJCZAE0gPpCW/y5g2B9JB/CmmkAKGaYggdEyBgqrGxZVPccJMluchW79KV/T9z0p2u7O7t3e2d7m5/82HZ3anPfOd892jmmWeIEEAABEAABEAABEAABEAABEAABEAABEAABEAABEAABEAABEAABEAABEAABEAABEAABEAABEAABEAABEAABEAABEAABEAABEAABEAABEAABEAABEAABEAABEAABEAABEAABEAABEAABEAABEAABEAABEAABEAABEAABEAABEAABEAABEAABEAABEAABEAABEAABEAABEAABEAABEAABEAABEAABEAABEAABEAABEAABEAABEAABEAABEAABEAABEAABEAABEAABEAABEAABEAABEAABEAABEAABEAABEAABEAABEAABNKSgCzLNr4+kS7Cs6yX8pWfLvJCThAAgfQhYEkfUSEpCIBAGhH4Cst6SRrJu5xl/X4ayQtRQQAEQAAEQAAEzEiAZ4ZK+Grja3O69J9lXctXP1/V6SIz5AQBEAABEAABEDAhAVZWbuVLhJ506T7LutcrsSyvTheZIScIgAAIgAAIgIDJCLCyMocv56jSIm5TUh0By5jFl0sIy8HD1ympLjPkAwEQAAEQAAEQMCEBVlKeFtpKQDgr1TGwrPMC5BWP61NdZsgHAiCQPgRgDJ8+YwVJQSClCbCCsoIFXBki5HEh76n4OidEqFO4L2mzYzJEdryCAAikGAEoWik2IBAHBNKRACsm4rvktwqyhyoxClnGPUpJGfwV9ylr3CWDACAAAmlPAIpW2g8hOgACKUHgWpZivoIkSkqMQrZxjVJSBqexRN8YV6nQOAiAAAiAAAiAAAjwzE8+X4f5Ugq7U50QC/26kuAc18lXWarLD/lAAARAAARAAAQymAArIz9VUVREtNjNZ0/l7rN8x4SgKuHPqSw7ZAMBEAABEAABEMhgAqycTOVLOPrUCnNTFQELXawlOKcJVxVKS4up2iXIBQIgkGIEYKOVYgMCcUAgzQj8jOXNiSBzKisqkWSzcd9+FaF/SAYBEAABVQJQtFTRIAEEQECLAM/0nMzpnw7M09XVS6++sikwSjynskF8kKL1zjs7qanpcKj8l3BfzwiNxDsIgAAI6CEARUsPJeQBARBQIvAbjgz6DvnnPx6i7dv3hOYNUmZCE8f5PUgJ3Le3if7yp/uVRPp/SpGIAwEQAIFIBIK+JCNlRjoIgAAICAI8w3M+384NpCFmgh555Hk6cOBQYLR4DlJmQhPH+T1ICWxsPEwvvrie3n8/bLPkEu4znJiO82CheRBIRwJQtNJx1CAzCIwjAVY4xPfGr0NF+OOt95LL6aImVlZCQpAyE5I23q9BSqBP9lv/cI+SXD/nvqf0DkoloREHAiAwvgSgaI0vf7QOAulI4CoWWthn+cPWLTvo5Zc2eN/FrFBIqGAFpSgkbtxfWSaJhZgVKIhP9i312+m1V8NszWZy3i8H5sczCIAACEQiAEUrEiGkgwAI+AmwcpLFLz/1R4w+/OH3d/uj+vsHqLW10/8++pCKs1pVLFuuT1DuGzU3H/G90p/+eB95PB7/++jDjzhfQWgk3kEABEBAjQAULTUyiAcBEFAi8DWOrA5M+M9/Xg+zaWpqTAs7raBlwyNHWml42Onv2r59TfTkky/730cfyvl+Q2gk3kEABEBAjQAULTUyiAcBEAgiwDM5xRzxv4GRTrbJ+rPCLr0D4cuHqTijFSSTb9kwsH9//9uDNDg4HBglnr/FLCaFRuIdBEAABJQIQNFSooI4EAABJQJiJqckMOHBB56hw4eOBkZ5n31G5QEJQbNHAfHj+RgkU2P4bkk6drSdHlj9dKiMeRxxY2gk3kEABEBAiQAULSUqiAMBEAgiwDM4kzniG4GR3d29dOcdjwZG+Z8bw5cOg2aP/BnH9yFIJqUZLSHe3Xc/TqKvIeHzzEQYxyOAAAiAgCYBKFqaeJAIAiAwSuBHfPcbjou4O+/4N/X09I0mB98aDxwOjiCazYqJ2OWXSiFoRkthFs4ray/38R5WtkKCcPMQtikgJA9eQQAEQCDYqzN4gAAIgEAogdGZmy8Exre0tNHDDz0bGBX0LHbvcbnAOKGkVQZGjOczy5bF7dcEyqA2oyXyPPjgs9TR0R2YXTxfwfUsCI3EOwiAAAgEEsCMViANPIMACCgRuJkjxeHK/vCPvz8UtEPPnzD6MDQ0TC28iy8kBM0ghaQl+1X4z/J//7ndHjp0qEVVhsGBIbr7rrBZLTFD9zPVQkgAARAAASbg/6IBDRAAARAIJcAzNidw3CcD48URO08/tS4wSvG5Mfxw5iCbKMVCyYsMkkUoWS6XW7P1Rx55TmlWayUzOlWzIBJBAARMTQCKlqmHH50HgYgEhB1S0PfE3257kNxubaVE1KqwFJdKM1pBsijIGgZGzGrde88TYfEc8XOlSMSBAAiAgCAQ9AUKJCAAAiDgI8AzNXX8fKnvXdx37z5AL77wZmCU6rOCu4SgWSTVgslJCFK01AzhQ0VZ8/Bz1NnZExq9nFmtCI3EOwiAAAgIAlC08DkAARBQIyBss4LC3257INTIPSg98EVhlihIuQnMOw7PQUqfWA7VEwYGBpX8aomi2IGoByDygIAJCUDRMuGgo8sgEIkAz9As4TwrA/Nt376XXln3dmCU5rPCLNE0rjdLs1DyEoOUPgVZVSV56KG11NvbH5p+CvftwtBIvIMACIAAFC18BkAABJQIhM1m/Z1ts6IJB9ljvNjNFxDE943Y7TeugRWiCSxAWaAQCrNvgclBz8Kv1sOsbCmEMGYKeRAFAiBgMgJQtEw24OguCEQiwIrIUs5zQWC+bdv20Btv1AdGRXx28TmICsfzBM0kRawkMRmCZBDnNYoDpaMJD6x+hoQLi5CwmNldFBKHVxAAAZMTgKJl8g8Aug8CCgSEF/ig8I+/PRT0rvclRV08BNlnCeeqHk/QzFvE7nV0dNETj/9XKR/OQFSigjgQMDEBKFomHnx0HQRCCfCMzEKOC7LN2rljn+Zs1vQpRaHV+N8Vdh4GzSb5Myb3IUgGrWXDqvJsVcnuu/dJJQVNzGoFzQaqVoAEEAABUxCAomWKYUYnQUA3gf8LzXnnncoHR4t8RflZ9PHzjg8t4n9XUGKCZpP8GZP7EKRoaRnCn3ZiKakpW4fYBu2/L65XkhyzWkpUEAcCJiUARcukA49ug0AoAZ6JmcdxlwTGN+w/SC+/tCEwKuj5w2fMpOrJGjNajYeD8vNLkJITmpik9yBlT0EZ9ItRUeig8+oq/O+hD/fyrJZCWMYsz1aIRxQIgIAJCUDRMuGgo8sgoELgBo4X5/f5g5jNYqXB/x74kJ/joBVLp1FxQRZlO2yBSf5nhaXDMq5P7Pobl8Bti/4F7XxUkNEvW3lxFs2fXkiTS5SXELfzJoH6+u3+/AEPPwh4xiMIgICJCUDRMvHgo+sg4CPACkgVP3/K9y7uYmns+f+8HhgV9Hz+qdP9CtbE0rygNN+L2M0ndvWFhPGc1apmWXIC5VGb0cqyW6gwd0SBPLeuPLBI0LPKsTwrmOmioIx4AQEQMCUBKFqmHHZ0GgTCCHyTY+yBsXf96zHVg5Zzsmx0/qkz/NknlSkrWmI338HmFn++0YegpbvQxAS/Byl5g4PDdOxYu2KT5UVZ/vjaWYVUVuTwvwc+vP7aZmpoOBgY5Xv+vu8BdxAAAfMSgKJl3rFHz0HAS4BnXgr44fOBODo6uunpp14OjAp6XnHKNMrLGdPLJpflB6UHvhxoPBT4Kp6DlJ3QxAS/Byl5zU2HVZdGy4vHFCuLJNG5tcqzWsyPVt//tJLYl3LaTKUExIEACJiHABQt84w1egoCagSEklUYmCgOTx4edgZG+Z8ddit9+PRZ/nfxMEll6VCkKezqC1J2RJ4khiAl70C4sb5flIqAGS0RueS4YirJH1Mu/Rn54dlnX1E6lkd8v4qZQgQQAAETE4CiZeLBR9dBgGdcxHfA9YEkhIL1yJrnAqOCns9aXE2FeWOzPSJxksaMloINVJCyE1R54l+ClLym8Nk2vwRlATNaItJilejsBUEn9/jzDg4M0ZNPvOR/D3i4hhkXB7zjEQRAwGQEoGiZbMDRXRAIISCca84IjFu79lVqb+8KjPI/WywSXXha+GrYZI0ZLQVFa/aoguevN4kPQUqegmx+UbLZGD40nHJ8CeVmWUOjve9rlJVTYbx2jWIBRIIACJiCwMiWGlN0FZ0EARBQIPDV0LjV9ynaG3mzLZ43mcpLckOLkDP48OigdAX3CcJXQi0rWx18F5X5LqGU+J7Fd5O4hFYjLt+z7zvLzXFiO6O4Bz6LuH6VS6SJXYf+oKVoHe0MO8uQHDYLnXbCBHqh/pi/Dt+DWCJd/+ZWWnbqAl+U734d9/UPkiQp+8nw5cIdBEAgIwn4vrQysnPoFAiAgDoB/vGfyqlBx8W8tX4r7d3bqFpoJTsoVQrNR3uUor1xYlef2N2XnR203LhJtUASExTsx/ytt7QP+p8DH85kb/EvbW0ltydcb3r44bVKipaAtoKvFwLrwTMIgIA5CITPjZuj3+glCIAA0acZgpgt8ofVq9Vns46rKaWZVSX+vIEPjYe7A1+DnlmhI7G7L9VCX98AtbV1qop1sE1Z0SrMs9Gi2cre8N94vd7rf0yh0s8rxCEKBEDABASgaJlgkNFFEFAhcHVg/JHDx+it9e8ERgU9X8AOStXCgUPKNl2+/Fq7+3x5kn3Xms0SshzpHOIl0fBZK5F25knKRvHCb9i/H1WcuLqEFU5lLVVUiAACIJCxBKBoZezQomMgoEyAf/DFMThihiXoNOgneNecUBSUQklhNi06YbJSkjdu/0H1mSGRQWt3n2qlCU7Qss8STbtZyTrUOqAoRWV5Nk2fFG6rJjI/+8wrSr65xLrpjcx9kmKFiAQBEMhYArDRytihRcdAgMQPvjA8X8zXkoBrGj8HBc5HTz2p6J7Am+8cPtPQyjsOlULvwDArJL1KSf44n1IjFDlxud1u7108i7bF5Xv23UVhER967+npITYsD7pEHhFnsViCLqvV6n+32WwkLhEn7o06ljMPHB2gmonKCpWw1dp/RNjdB4ejR9to48b3aOnS+cEJIz61vsl9auaEjaOXOLF7I8seXlFoabyDAAikJQEoWmk5bBAaBJQJ8I+4cDx6Bl/L+TqNrzq+gqzQ+T0srGcjeHEuoVKwWS10zpJpSkneuD2NYvOgdvjgg/1sZL/Xrzhp59ZOPXYsfMefdonwVKGU1W9+NzwhJGZ/Sz8vE5aGxI68LphRSI/xWYjd/WFnOXq96isoWr56KvlBXB8bjXDxuNXz8xt8rePrVZZPe4qQMyGAAAikBwEoWukxTpASBBQJ8A+0cFW+jK/z+DqXL6FYBRm483vE8PhjL6rmqTt+YpiD0sDMuxraA18Vnw8dPGqIkqVYeQyRzI1aWiLLvedgn2rtwoHp0jkl9MKWcMXv5Zc3UH//IOXmignFiEF8D/tmHL/Fz55RxUsYe/2HrzdZ8XLyHQEEQCANCcBGKw0HDSKbmwD/CBfxdSVfDzEJ8Sv/Cl8/5Ev8WEetZIlzDV99Vd3bwvLFNVyteti+T3kmLLBEd3efV/EIjBvv52NHI8/Eidmqo2wUrxaEA1OlIDzF//fF9UpJeuLE9/Iivn7A1zq+WnmsHx4dc+XtjpwJAQRAIDUJQNFKzXGBVCCgSIB/bL/KCUf5uo+vj/MV0w+vsJHq6+tjD/DttObhZ8nlDF/+4rqpjJ2TnjRL+TBlkd4/6KR9EQzhRT4RWo60jTykwP/7+gZ1K367D6qbT5UVOWj21HzFHj34wFO0e/dudvdwiLq7u1U3GigWDo4Uy8Gr+BJjfpQ/A18OTsYbCIBAKhPA0mEqjw5kA4FwAsKzeUSbq9BiQ0ND7DR0kAYGBrx3l2tMsdKazTpjQaXXyDy0Pt/7tr2trEAou0Dw5fHdDx9upekzpvpex/WuZzbLJ+COxh72Bq88cyXyLJlbTLsPhm8G2LXrANulHaCiojxvVcIuLCcnhwoKCrxXYWEhZWVl+ZrRexdjLz4DCCAAAmlCAIpWmgwUxASBaAgIxaq/v9+vWImdfEqho6OHdu1sUEryxp16srDZVg/vfCAm1/SFw+ynK1XC0aOR7bN8su462OP1p2VnmyylcPL0QnqY05R8br337h46/YyTvcV4Jso7JmJcWlpavHFC0RIKV1FRkfdyOKLWoZVEQhwIgEAKEYCilUKDAVFAIFYCQpESS4HiErNWYmlQT9iyZaeqkXrV5EKaUqG8LCbqFjNZm7Yf0dOMN8+RFFo6PHZM/6a+YadMu5t7aV5NgWJfs/jw6XnTCumdvV1h6e+8s9uvaIUlcoRQiMUuSt9OytzcXCopKfFeYuYLAQRAIP0JQNFK/zFED0xMQPxQt7a2epcDxYxJtOHdrbtUiyw7SXuZb+eBNurpUzcUD61YLB2mSjiqwxA+UNb3D3SrKloi38KZyorW7g+aaHjYRQ6Hvq9aMdslroMHD5LdbqeKigqqrsZKYeBY4BkE0o0AjOHTbcQgLwgEEBCKlpjBikXJEmXee29PQG3BjwvmVARHhLy9/X505xceSSlFS//Soej2O3t7yKNyHI9In1NVQBa2wQoNYmZx756m0Ghd706n06tE68qMTCAAAilLAIpWyg4NBAOBxBI4dOgYLzUqHzFTlJ9FNZPVNzS6ednw7fcPRSVgb28/9fSo7+CLqrI4M7dGsXQomuoddNG2ph7VVnMcFvYgn6OYvmtXo2I8IkEABMxBAIqWOcYZvQSBMAL79x0Mi/NFzJupfGiyL33rrhbq6NG/bOgr5zuKx/c+Hvf29m5eah2OuumNO7XtuuZMHdldGFpxQ0N0M3+h5fEOAiCQ3gSgaKX3+EF6EIiZgJjRUguVFdqG2C9tPKBWlM8WVPeZ+uADz6mWS1bCk0+8qtqUxSoc7SuHbezmoW9AfZPBpFJlL/AHm/XvzFRuGbEgAALpTACKVjqPHmQHgTgIdHWF+37yVTe5TH23YVvXAGm5dSgqmeCrJuy++4NGevEFcY7y+IQdOxpo86adqo1brDaSLMqG62620dqwq0O1bHmhsk8sMXsmZtEQQAAEzElA+RvFnCzQaxAwFYGBgUHV/u5saKOlJ01RTH/xrQZV4/ucnDz2CzWBerq72Nu88vLcA6vX0pKlJ3I+5aU20ahwVyF8XR1sPkZHj7V7vbj3sz3ZQD8b/w8OUHa2w3uOoLiXlBTSxEkTqLy8hKx8ALZacLL3+4cfelEtmeMlLp/F/2efWLxTUCm8/G4rfWh+KVkt4Ybv+46on4vYy7ZpEyYIB+8IIAACZiMARctsI47+gsAogbnHT6c333hHkcebWw/SlR8+gWwhikvvwDC98NZ+xTIisqCwyOtJvrRsIrUcVt5tJwzw77n7Kbr+a1f462lr66KdO/fTzh37SXhUP8zLmkIxiiZYWNYKVramT59CM2dX0syZU6msrNhfxfP/2UBaRvB2R65XdotQtiTlnZzdfS7auKuTlimccfjWDvXZLr3e8/3C4gEEQCBjCEDRypihREdAIDoCp59eS/fe/bSiQiMUqs3sjDR0Vuu51/fRwJCyAmS1Wik3b8S2S8xs5eUXUV9vuBNPIeXrr22h4+bUUFtrFy/lbafm5hFP6dH1IDi3x+0h4RRVXOvXv+dNLCsvphNPnEE10ybTC89vDC4Q8CaxXZnVNuKVXXhpsFgd5HYpG/u/uOUYLeVjdwLdORxsGyRxKYXi4nxuf5JSEuJAAARMQACKlgkGGV0EASUCubnZvIR3Er3x+halZHplc2OQotU34KTn1u9TzCsiC3jJUCy/+cKE0nJe6mP/UyrH/9x5++O+rAm7ixmsdS/XR6zfkRW8jGmzZ6sqWq1dw7RlTxfVzR6bLdugMZu1eMkJmudFRhQOGUAABNKagLpBQ1p3C8KDAAjoIXDWWYtUs7235xh1dI/N0jz+8gdsH6U8myV2GhYWBR+8bGXD8pIJ2k5PVRtPYoLVls2KUPBOSUmy8AyXsnG7EO2J9S005Bw5P1L4FNu8p1NV4qWnnKCahgQQAIHMJwBFK/PHGD0EAVUCJ540i8rYrkkpCLui17c0e5P2H+yk595Un80SSpbFEv51UlBYTFnZym4PlNpMdpxQqOwOZflsdnVFq6vPSc9sHFnufH9/N/WquH2YNn0yTZyovgsz2f1FeyAAAsknEP7NmHwZ0CIIgMA4Eli+XH1W61VePhQzNv/89zveQ6SVxBT2TaGzWYH5Sssm84xRYEzqPNvYAD5wuTNQMjHLZWVbLbXw2nvt1HRsgF0+qM9mnXLKSWrFEQ8CIGASArDRMslAo5sgoEbgQ8vr6JE1LygmH2rtpT8/uJkOHFY2aheFiotLNZ2UOhxZbL9VSt1dbYpthEaKWSYxC+bgmSZR1saHK9vYkaiFje0t7FbhyJEWdi8hSskks/2XTHx53KwIurx3vec+WrlOcWkFmyOHPINORXcWHhbi/v8epJZOZaN5u91GC+vmaFWPNBAAARMQgKJlgkFGF0FAi4DwPyWWEN9XOWB6o8aZhnZWhAqLIi+NlUwo5XMVu9nA3KkoiiMrm/1i5VNObp5XwZI0p8DY05V3hozvPvcTfhMrVrv4IGeP7PK2JbPypRwkGpnNUk71xXpttdgw3jWsfCbk4Y4xGzZfGd/9pPmzKCdHffnRlw93EACBzCYARSuzxxe9AwFdBJazUbyaoqVVQZnOZUGhsJSWTqSjLSM2X6JOoaTl5xdSXl6hd9ZKqx39aRLPfNnIQjaysZG7mN3yuIe9Owg9POvlCzaeLRMy6QlWK+9AlIa5rrHyesqdcsqJerIhDwiAQIYTgKKV4QOM7oGAHgJL2c3DnbmPez2w68kv8kRr6J6bl8++tQq8yo/wHp+dI+yjEhvEzJjYPSgusbTodg1770IJ0xvE7JlwZjo81KO3CBWx76w5c6t150dGEACBzCWg70+6zO0/egYCIMAEhD3RaezAVG+w2/nomxhcN5RXTKWKiZVJUbJC+2LhMwyFwpSVHf1ROGKWTPjW0hsWL56nuAtTb3nkAwEQyBwCULQyZyzRExCIi4CWT63AioUbh4pJlaZTJGz2nIjG8z5O8J3lI4E7CIAAFC18BkAABLwEZsyspKrqSEfFSFQ+cSrPgKm7PchknDZHHgl3FlqhpmYSTZpUqpUFaSAAAiYiAEXLRIONroJAJAJaPrVE2QmlFbyTLvi4mkh1ZlK6sPlyZOWrud7ydnUpjOAzacjRFxCImwAUrbgRogIQyBwCZ5y5kA3H1WdshF8rBCbg9eMVTsLG7OoWzQ1PQAwIgIBpCUDRMu3Qo+MgEE6gsDCP6uqOD08YjentVXdcqloowxLEzkW1cNJJM9kfmH6jebV6EA8CIJA5BKBoZc5YoicgYAiB5WctVq2nr7eH3TOMHKasminDE9xuZU/wottLsGyY4aOP7oFA9ASgaEXPDCVAIKMJLFhwHLtuUHaBIJSsoUF1b+gZDYY7J/ovjv1RCmI28PjjpyklIQ4EQMDEBKBomXjw0XUQUCIg3DfUVE9WSvLGiTMHzRq0jgaaMqWM3T/gK9Wsnw30GwTUCOBbQY0M4kHAxATaO7pVe2+zaR/ErFowIxLEOYvegxbDetPZ2RsWhwgQAAEQgKKFzwAIgEAYgfY2ZaN3cT6gmPEyd1Duf2en/iN6zM0PvQcBcxFQ/sYwFwP0FgRAIICA0+mi3t7+gJixR5sNx6OqKZqDg8M0NKS+I3GMIp5AAATMRACKlplGG30FAR0E2lRms0RRKxQtdlaq/rWJ5UMdHzBkAQGTEVD/xjAZCHQXBEBghEAn7LM0Pwpi+VQtdMFOSw0N4kHAtATUvzFMiwQdBwFzE9CyNbJasXSoNaPV3d1n7g8Peg8CIBBGAIpWGBJEgIC5CXRozGhB0SKyqOw6FJ+ari7sPDT3vx70HgTCCUDRCmeCGBAwNYGODvXdc1YT+9DyfSi0lg61ZgN95XEHARAwFwEoWuYab/QWBCISwIxWJETKfrREqa4uLB1Good0EDAbAShaZhtx9BcEIhDQWv7CrkOx6VBd0eqBjVaETxeSQcB8BGDZar4xR49BQJNAt4adUTQ2WvNnFtBZC0qptMjOZwQS9Q26qLXLSbub+un9hh7q6HFqymF0YmGulU6szqY5U7NpYrGd8nOsbG/Fs1B9Lnp9Rx+9sUOvfdWId3hZdCok9PQo+x8LyYZXEAABExGAomWiwUZXQUAPgc4uZRstcfSMmrPO0Hrzsq206kOTOf9YSlGencQ1c0ounbe4jLYf6KUXNh3zKl9juYx/EgrWeQsKaeHMXFI6inBCgY0uXlJE+1uG6FC7PuVP2GnJsjtMWOw6DEOCCBAwPQEoWqb/CAAACAQTUFv+isYQ3u2R+UxAMeOjvMwmFLATp+fT3Oo8Wre13XspzRAFSxb92ylz8mjloiJy2JTlCKxRyKw7qOw8HBgYIpfLTTabeQ/e1s0QGUHAJAQC/t40SY/RTRAAAVUCYunL7fYoplui8KE1OOzxzlgpVhQQabNKtKKulD57wVTKdhj3dSTq/eSZE+jSU4p1KVlNrcPU0ukKkEz7UWvnIZYPtdkhFQTMRsC4bzazkUN/QSADCfT0qO+as0WhaAk0a99qpSGnstIWim7W1Fz6wkVVlMtLjvEGO89efW5FKS2YnqOrKqFXPr5B+RBt9QrUZ8h6ewfUiyEFBEDAdASgaJluyNFhEFAnoHaYtCghWaJTgjp6nfToKy3kdHn4kiNepYUOumrFFBKKUqxBrOhdcUYJVZc7yOWWdV3PbOqiZp7RiiYIezW1oMVQrQziQQAEMpcAbLQyd2zRMxCImoCafZaoKBa7o228u3DbXcrG9VELp6OA2Ah478vtOnLGm0X9b9S+PsxoxUsX5UEgkwiof1tkUi/RFxAAAV0EtGZjLFHOaOlqME0zSYHbKUP60Nc7GBKDVxAAATMTgKJl5tFH30EghEBPr7ofKChaY7DYk9bYS8iTlrIakhWvIAACJiCApUMTDDK6CAJ6CfRpGHJbdJxz6PGM7dzLyckiu33sK8bj8bDvqRHj+EDHp4ODQzQ8PFaOj23W7a8rtF/CRcSIW4mRlOLigqAsQgYikcfC15iyFHpGoSyL9KCiwS8aif39mNEKhoU3EDA3gbFvQXNzQO9BAASYwMCAupJg1VguE/CEktPYsMfP8Yf/92W69GPn+t93bN9LV191g/f9IxefTT++6Trv8w9/8Hv6z39e9+fLLyiisvLJ/vdoHtyuYXI5R2blrOyd9NFH/0ZZWQ5/Fb/65T/pkTXPkfAJ9pfbbqRFi0709vlDZ1xNI0rYSFZHdgErWupfj4FKmr/y0YdB9qWFAAIgAAI+Alg69JHAHQRAgJUO9d13kZYOhfIROFO1nRWrwHCg8ZD/dcNb7/ifQ/PZbHZ/WrQPgbZTwh/Y7g8a/FUIRbC5+Yj33e1206a33/c+79q5P0jJEpFafrK8hTSWDgeH9HmXH6kH/wcBEMh0AlC0Mn2E0T8QiIKA1oxWoBKjVmVObp4/6YXn36CjR9u870KZ+tEPb/WnlZQUep9fe3UTNTUd9seLh5ycsTqCEnS8WCxiFmpsze+++57yl7rl17fTW+u3+t+LR2W4774n/XHiQbixiKRoac1oCe/wCCAAAiDgIwBFy0cCdxAAAdJa9oo0oyXw5ecX+SkKo/Ab/++PJO7z5s2k6792FU2aXE4nzT+Obv7p16mRZ7h+9tPb/PnFg8ORRVnZ+hyNBhUcfREKkMU6NiP24gtv0pqHn/OmXvu5y+icFcuorKyELrv8PLr88vPpwQeeoXUvbwyqymobW2oMSgh5UVO2hM0ZAgiAAAj4CKgbIfhy4A4CIGAaAgMaSoKeA6Wzc3IpN6+A+vtGfGdt2vQ+fWLVN+m666+kc887la686iPUsL+ZXnv1bbr9n4/Q0FDwUuWE0olxs7bbc2jY4/TajInKfv2rf5JYqvzklRfRj278qjAmo5279tP3vnsLy7EpqD2hTNpsWUFx6i9i5iz8fMShweA+qZdHCgiAgBkIQNEywyijjyCgk4DaOYeiuNoMTmjVwpD9iHOYdxKOzOy0tLTRjT/6ozebqEPt8OgJpRUkFLV4g1jitGfl0fBQr18PWrduI4lLKwjZ7Fn5nGVs6TFSftbZwoI4VBoBBEAABHwEsHToI4E7CIAAuVWUBMmiT/kQCMXM16Qp1RRor+VDq6RkCQWnlJWzwqIJvmxx3y0WOzmyxM5BfXJLkpUc2YURbbP0CKalrOopjzwgAAKZRQAzWpk1nugNCMRFQE1JYMunqOoVS3ATJ1VRHy8hdnW28uxSuN2SUN5ycwupuKSU/W3ps4uKRghhGJ+VU0TO4UFyu7l9heknYfRus2eR1ZYdTdUjeVWUODWG0TeAEiAAAplAAIpWJowi+gACBhFQW/ZifSSmkMf2WuJyuVysbA3yIc9Osgjlhl04CKN3vTNOMTXuLcTLgY4cslMOu3Bwkex3WMozXTyLpcfAX7VthWVDkVe4jkAAARAAAR8BKFo+EriDAAiw4qMCQVZLUMkfEm2z2Vi5EvZP4xe8rh9iVBgVpVZBoqJ/KVaBSBAAgcwnYOTXTubTQg9BIMMJ2GzWDO+hkd1T1rRsOo4qMlIK1AUCIJDaBKBopfb4QDoQSCqBbD6fUCl45MQuhzlsEi08bsSJqVL70cYdNyWbSgsSO2HvO7cxVDaHI7HthraHdxAAgdQmAEUrtccH0oFAUgnk5ym7V5A9MtseBR78bJxYFl6v/OQ5U2jmFOW2Y2mptNBKnz+3lPKyE/UVJ7Nt/cgB2aHy5ebFYFgfWgneQQAEMoZAor6FMgYQOgICZiJQXlGi2t2uznbVtHgSLjljIh1XlUdZduO+jrK5rgk8o/W5FWUkZsuMDuLwaqVdjKKdCROMm5kzWm7UBwIgkHwCxn2zJV92tAgCIGAwgRkzKlVr7O7uIKcz3E2DagEdCecuKqW60SVDIxWtLPuIcjW11E5XfmgCWQ38phO+wJzDA6q9q6mZrJqGBBAAAfMRMPDrx3zw0GMQyDQCS5aeyL6tVJa+WMFoPSYOgDZmX93S44tp+YJSP0KHgTNagbNYcyuz6WPL1Gfq/ALofHAO96sysLJGt2jRXJ01IRsIgIAZCEDRMsMoo48goJOAULI+vPJ01dxDg4PsgDT+JcTja/LpomUVQe1kO4zb8ZjtCP5qWzQrl86vjX9JTywZetzqZxmesuwkmlA6drB2UAfxAgIgYEoCwd9GpkSAToMACAQS+MjFy6msXH0GqKOjlQ+Djn0JsWZiDn3irMnsLDSwVWIbLeNsqYSNVmg4e34BLT0uLzRa9/vIkqGYzVIOQkldedFpyomIBQEQMC2B8G8j06JAx0EABASBrCw7ffFLl6nDEEuIRw+q7rpTL0hUVuSgq86bQnYFA/XQWSiteiKlqSltl5xSTPOqciIVV0x3DvdxvPqy6WWrzqaCAuN2TioKgUgQAIG0IwBFK+2GDAKDQOIJzJ8/m84+e4lqQ07nMLUdO6KarpRQkGOjay6cSrlZykuEdpslbJZLqR49cdkqs2PibOwrP1RCNRXRna3ocg7ykqFTtel586bTkiXzVNORAAIgYF4CULTMO/boOQhoErjq0yupVMPeqLe3m3p7ujTr8CVmsc3UZy6YQsX5dl+U4t1hkGd6rdkxm1Wia84ppfIifY5FPew/TChaakE4eb3iU+epJSMeBEDA5ASgaJn8A4Dug4AaAWFzdN3XrtA8+LmttYVdHSgrITbegTe7MpdWstH71z5WQ5NLVXYzBgiQ7TDGTitw12FA9f7HHFb8rvtwOX389BKaPy2HclTaHbHL6uVy6kuGn/zkuVRSUuCvGw8gAAIgEEhA3590gSXwDAIgYBoC8+bNoEs/djb9+9H/KvZZeEc/2nKIJk+dxst+FiopsHudjx5Xmcee3nPYFiu6v+WM8qWlpx6hbNXNzPVebnby3tQ6RLsODtHO5kE61C6WCYW/rD62RVNXsk5ZdiItrIM7B8UPByJBAAS8BKBo4YMAAiCgSeCyy1fQe+/tpt0fNCrmE/Zadnc7ff0Ti7zG7oqZdEYa4eKBT/SJegejcGg6rSLLewk3ED0DHlq97hBtb1C3yyrnnZmXswE8AgiAAAhoEYjuz02tmpAGAiCQkQSEE85vfONTlJ+vvqNub1MrbXq/Oe7+O6KcAVNqUM9sllK5wLgDR/pYyeoMjAp6ttttdO3nP8I7NKMzqg+qBC8gAAKmIABFyxTDjE6CQHwEhF+tr17/Cc1KVq/dRrsa2jTzRErMzor/K0ltx2Gktn3px7qG6N6XtZXGyy4/iyorgx2u+srjDgIgAAKBBOL/VgusDc8gAAIZS2Dhwrn00UvOUu2f2yPTras3UUe3snG8asGABCOO4VHzoRXQjOrjsMtDd6xtosEht2qexezG4bTTT1ZNRwIIgAAIBBKAohVIA88gAAKaBD5xxXlUUTFBNU9X7xD9/v63ycUKSyzBiF2HSl7h9cpy/3+b6XCHtqK46uPn6K0O+UAABECAoGjhQwACIKCbgNhZ6HKpz/aIivY2ddCdT7yju87AjFl2ZWemgXkiPTtUnJVGKvf85mO0dV93pGw00K+tiEWsABlAAARMRQCKlqmGG50FgfgIeDwe6uzsiVjJK5ub6Ln1+yLmC82g5Wg0NK/aeywzWtsO9NCzb7eoVRkU39kl/GohgAAIgIA+AlC09HFCLhAAASYglCyhbOkJ9z+zjQaHXXqy+vMYs+sweqenD71yiP1l+cXQfOhoj6xoalaARBAAAVMRgKJlquFGZ0EgPgJtbfqO3BGteNg4XlzRBENmtFS8vGvJ4RIeS3UGPTN6OqtCNhAAARMQgKJlgkFGF0HAKALtUShaok13FAqMyG+ED6xYlg7Fjkm9oaMDM1p6WSEfCIAAwRgeHwIQAAH9BNo7IhuLB9Y25NQ/UyTKGTGjFcvy47Bbv6KFGa3AEcYzCIBAJAKY0YpECOkgAAJ+AtHOaEVto2WP/yspWj9aLlayPNEoWpjR8n8e8AACIBCZQPzfapHbQA4QAIEMIRCtojUwGJ0xfBYf9BxviHZWbHA4ulm3Dh27LuPtA8qDAAhkDgEcKp05Y4megEDCCbS16zeGF8J09w1HKZNMx46KHYDqS3nDQ0OadQ4MFXB6jmaewMS+KJXBnu5+r+2ZOAMSAQRAAAQiEYCiFYkQ0kEABPwEOtqjs9Hq6dNWivwVjz688nYD9fVG10ZoHRt2tNGyuYWh0arvvQPRzboJJbCLZ7UmlBap1okEEAABEPARwJ9kPhK4gwAIRCTQHuWMVkePfi/qA0Mueua1vRFliJRh/5E+ajjSHymbP72rLzpFSxTs6ITTUj9APIAACGgSgKKliQeJIAACPgLd3b3kdEanlLR1DviKR7y//PYB6h90RsynJ8PL77TqyebN09Eb7fImO26FQbxuvsgIAmYnAEXL7J8A9B8EdBKIxlmpr8poFK317x70FYv7vrNZ/4xTR2/0yh1cPMQ9RKgABExDAIqWaYYaHQWB+AhEa58lWjvcGoXC061/mTFST4adMhusqxvUB5Y/1hn9jBaclgYSxDMIgIAWAShaWnSQBgIg4CcQy4xWKy8dDjvd/jq0Hk6vrdRKjipt8Zwislr1nXl4pCN6Ba8jSsetUQmPzCAAAhlFAIpWRg0nOgMCiSOgZQhvsShvYBY79A4d0zerdfk5c2nalPh38k2ekEWXnzFFFwjhub5TxRheslhV6+iCMbwqGySAAAgEE4CiFcwDbyAAAioEtGa0cvPyVEoR7T+kz/eWzWahb121hCpKc1XripQglKyvXjSd9B7D03hM3Vh/RHlU/orE0mGkkUA6CICAj4Dyt4gvFXcQAAEQGCWgZaOVmyechCqH3QfalBMUYsuKc+jGL5xOlRVj9YlZrvwcR1huu12i6ZPGlLLZU/Lo65fMoMI85dm1sAo4QssNhIVntCSL8vJjT8+I01KlOhEHAiAAAoEE9H8jBZbCMwiAgOkIqHmFFwpJVpa6J/YPGjujYlVSmE03f/UM+tuaLVRUkEXXXDyfNu9ood/duyGonouWTKLl80tp3btt1NPvpJVLJ5JFUlaMggoGvOzX8LclZrQkyUVsVh9QYuTR67S0q5cmTNDvGDWsEkSAAAiYggAULVMMMzoJAvETUDvn0Gqzs+G5lWx8d7nCXSUcPtZDbV0DVFqkroyFSpftsNE3r1xMbs/IzsE500pCs1B1ebY3TihbsQRxmPSeQ32qRYWNloVntDzhepa3jFg+hKKlig8JIAACowSwdIiPAgiAQEQC/f2DNDiofJyO3Tby91pOrrqd1qZtRyK2oZTBOrp019MXrsAdbFeWR6kepbgPDvaSMIZXChar729Q9a9I7DxUIoc4EACBUALq3yKhOfEOAiBgWgJaOw6to4pWbm6+Kp9NOw6rpulJONoWvnOxtTM+Reu9/T2qTVutIzZhkqT+FYmdh6r4kAACIBBAQP1bJCATHkEABMxNQGvHoXV09ic7J1fVeHzHvjY6FIXz0lDaG94/NBo15oR0V5P6sl9o+dD3gSE31e9Rtx3zuauQLOpfkZjRCqWKdxAAASUC6t8iSrkRBwIgYEoCavZZAoawzRJBzP7k5CgvHwrj8SfX7fbmi/Z/4vzDt971KVpjxu6H2dFoe0/4kqKe+l99v40Gh5WXDYVtls+HltaMFlw86CGNPCAAAlC08BkAgTQm4HA4vIboie6CnqVDIUN+vvouvNfqm2jrrpaoRX3guR1sS6Vskf74+uhtvw61DdILm4+pyuFbNhQZJO8uxjHlLrBQZxKclhYWqvMMlAXPIAACqUsAilbqjg0kA4GIBLKzs6mqqopyc8f8SUUsFEOG9vZu1VK2URstkUH407LZR2a4lArc9vAW2tesvmQXWualjQfopY0NodH+93f2dtFzGkqTP+Pog5gBu+O5RnKqnIMoFCurLSugmDSqbAVEjT528q7DRAWxi3PWrFneK1FtoF4QAIHkEICilRzOaAUEEkZAKDpTpkyhsrIyVaUg3sa1lg6t1kDFSqKiInV3C70Dw/Tz299k5emApkhOl5vuffp9uuPxdzTzicS1G1vo/v82qy4F+ip4n43ff//YXmrtVj9EWihZI7NYvlIjS6Jjb2NP3d19fHC18vLjWK7onwoKCujkk0+m8vLy6AujBAiAQMoR8O1hTjnBIBAIgIAiAdXpoOLiYu/MVktLCw0NxbcjL7RldWelFvY1Ffz3Wn5BMfX2dLIMyoc1Dw67vArUs2/so+WLqmje9DKaWJrndTba3j1A2/e10vNv7adDR8N3GobK5Xvf+EEn7T7cT2eeOIGOry6gknw7y0XU1jNM+w7108ZdHdTQon7cjqhH2GVZbSO+uXz1jsRzRSr6VJeBTkuFgidmJ6dOnRrYvNJzh1Ik4kAABFKTgLLxQWrKCqlAwPQE2Khc/Ju9nq9f86XqAbStrY06OztJGKEbET5/7c3U29sfVpWdbcSmVs4Ii3c5h+lgcwO3r6KhhJUY/whHVgGN+c8ak8flHCCXU1lp/Oa3rqCZsyrHMsf4lJOTQ7Nnz6Y8jTMjuWqhKf4PK2R/irEZFAMBEBgHAsF/io6DAGgSBEBAPwH+kZVHf2jruFS9WsnS0lLvzIhdw15KrWxo/PCwU1HJEvlsQcuGYyVtdgeVVUzmZbixuFR+stlzFJWsEZnVvyY7OuO305o0aRLNnz8/kpK1mWVZCCUrlT9FkA0ElAmof4Mo50csCIBAChDgH9wdLMYpfP2KL8VpI2EoX11dTfHuXNM6TNrnrFQJSR4bxpdV8DJYimtbdkcuG/CHLxn6+qTlSyseg3ixY/T444+n6dOnhy2/+trmu9huKcZ4GY/5zoB4PIIACKQJAShaaTJQEBMEQgnwD6+Trx9w/If42h+aLt45nSoqKmjy5Mkxu4FQs88S9ft8aIlnpSCUrYmTKjlfKpqDSmTPygvZZRjeCy1fWp0xzmhNmDDBa/Au7Oo0ghjTD4kxFmOtkQ9JIAACKUwgFb/9UhgXRAOB1CPAP8Kvsy3WySyZsN35jJKEwvZHzG4dPXqU+vqi86je1qpqf8/KW+SvEOHEdArbcbW3HuElSHU3EUpyiziHw06fuvIiuuiiM+lw00He6eemKWw0/vobW+jOOx5VXdZUq0/EW3jJ0+7IC9thqFRGHCytFjo69BvsizqE24Zp06Z5lV+1Okfj7+b713hs41+bjNAQkkEABBJLIPK3ZGLbR+0gAAIGEBj9Qf4sK1xPcnX/4Ks0tFrxIy9mtrq7u6m1tZU8HsUVx9BipOVDyzrqFT6sUEiE2JlYPKEiakWL+0Xfv+HTdPHHPuytcdr0an/NM2bV0HGzK+nb37qFhlUcmvozhzyIpUJRt74gJv5FXjksezQzWsJtgzB4z8oK9NMVVmUbx3yRZft3WAoiQAAE0pIAFK20HDYIDQLKBMQPNCtb6zn1X3ydr5RL2GyJXW7CDcTgoPJuusByWl7ho1kSFHmFcqO0E9LKs0aLZhdQbpaVDncM0c6mkR2OIu9PfnYHPbL6cVpw8iyqrprC9lQ2amw8TNu276X67Ye5vjFpq8qzaPaUXOrnswzfbeij/kFlj/KSZB0rpONJLB/KcnhdWvZrvmpFnysrK72XL07l/hzHX8v5D6ukIxoEQCANCUDRSsNBg8ggoEVg9If6AlZSvsb5FN1AiN2I4se/vb2dOjo6FJUfXxt6DpT25Y10t9kc5HSG+/hye2Q6eWY+zZyUwzNtRKvXHaH3WFHyhe18KLW4tEJVeTZ9/vzJlO2wUGefizZ+oLZMqe7tXa1+iRVBBT2Lenr6vUuZYrZQKQiFVnh4z8/PV0r2xcFtg48E7iCQgQRgDJ+Bg4ougYAgwAqXsNlayJeqGwhhlC0ULrEDTi2ozWiJmRo1BUOtrmxWPNTC0xtaycVH4whHo59aPokuObWM8nOUFZjAOhw2C51bW0JfvHBEyRJpT29o8ypsgfl8zxZ2TBp9UP+qVDvzcOLEiV63DRGULLhtiH4wUAIE0ooAZrTSarggLAhER4CVoZ08syXcQNzM1//wFaYxCJsh4ZFc2G11dXWFNaB2/I5e+6zACgsKS6inW9m4/lDbMD346lG64swK9s8l0bK5RVQ3q5D2Hh6gPezdvbXLSX1DPN3Fa4U5vMRYUmDzzoDNnprjXXIU7YiZsbWb2ng2TN1I3arhyiFQ1sBnzZ2HfOZhaWmRP7uYLZw5cyaVlJT44xQexDrkLXz9mMcIOwoVACEKBDKFABStTBlJ9AMEVAiM/pD/Lytcz3CWe/maHppVzE6Js/XE7kSxM9HlcnmziLP8xDEzSsGmY8dhaDmHI4uy2L/XkIpt2Hv7e6mz10WXn1ZGkyZkkcMm0fFVud4rtK7Q99ZuJz2wroWaW8OXJn15RT8tlsCzGX0p2ndhzB9uoTVSJtBpqVCuxFJhBNu1/VzyapblDe1WkQoCIJAJBKBoZcIoog8goIOA+GFnZUu4gfgjX59VKpKbm+t3A9Hb28v2W92q9ltazkqV6vbFTSidSIcPNvJrgBW7L5HvTccG6dYnDtLc6lxaMD2fzy7MZYUrbCLOW8LDs1t7Dw/SO/t6vdewS3snpY2dk7KuFXXQMp4XTkvFEmpNTQ2J5cII4S5O/zqPBdw2RACFZBDIFAJQtDJlJNEPENBBYPQH/hpWuJ7i7IpuIMTsjTgWpqenh3bvFgqRcogwa6NciGOzsnKouKSUOjtaVfMIBWr7gT7vZWclq7Isi4pybVSUbyOhc3Wxsbu4DrUPU5/KzsLQyi1WBytE6rZoofkD34UxvFpws12ZOEJHeOLXCKKzwm3DYxp5kAQCIJCBBKBoZeCgoksgEIkA/+D73EDcyXkvUMov/D7V1s6nOXOn0a6dDWFZrCrnHIZlVIgQitbQ4AANDIztLFTI5o1y8izV/iNiY17sQcxIObJyY68g3LTNe2zOZZevoO9+7wuswCnPuI02KNw2XMPMj8QhAIqCAAikKQH1P9PStEMQGwRAIDoCPLt1PZcQhtmKWwKFndYfb72bHlj9bJCT0/KJU9mmqyC6xgJyc7vUeuww9cXgLT6gmoiPFouNHNnCvUJ8X3eDA2zEzzKLIIzff3zz9XTqqWJTp2oQ2uENrGD9WTUHEkAABDKeQHzfPBmPBx0EAXMQYKVnLvf0Pr7q1Hr89sZ36TvfuYX6+0Zml6ZMncazRJrLZWpVBcWLJcTOTvaRNarEBCXG+WJlv102uzhqJ86KuPjQINuredw0bXol/euuX1BBQZ5WpcJtw5WsZO3SyoQ0EACBzCegOd+d+d1HD0EABAQBVgh28m0ZX7/gS3GD3eIl8+nhNbdSVfVUzsLn9hl0UHRxSRlNnTqdsvlMRKOC8JXlyCoYPc/QmFrFAdqXfuw8euTRW7WULMFOMFwGJcsY7qgFBNKdgAF/56U7AsgPAiAQSIBnt07jd0U3EL58v/rVnfTee400NGSsC6jBgX42wu/k5USxKU95V6JPBqW7OCxaGLyP+Pgy7uuturqCfvKTr7DrhiqlZn1x+/hBuG140xeBOwiAAAgY900EliAAAhlDgJUtYXyl6gZCdPTIkTb67W9X0/79xtt4u91uGmRD+cHBfq/RvNM5rOhmQhi5W9i1gsR2WFb2jyUJt/IGhw9/eBl973ufITufsagR7uI0uG3QAIQkEDArAShaZh159BsEdBBghetSzibcQJQpZfewJ/bVq5+jJ598gw3lo5+BUqpTLU7U72EbqWPHjvJSp1CoEvv1lZubTd///qfp7LOXqIkk4uG2QYsO0kAABBL8TQXAIAACaU+Ala1J3Il/8XWBWmd27GigP/zhIWpr61bLYlj8kSMthtWlVtGcOdX0y19+jSoqNI/RWcvlr+WlQuOn9NQEQzwIgEDaEUjsn4RphwMCgwAIqBFghes6TvsNX4puIAYHh+m22x6lN954X60KQ+ITqWix0kSf+MQK+spXVmn5xurnjgi3DX8xpEOoBARAIKMJQNHK6OFF50DAWAKsbM3lGjXdQLz22lb65z+fpP5+9TMH45EqUYpWUVEe/fjHX6QlS07QEm8TJ17FShbcNmhRQhoIgICfABQtPwo8gAAI6CHAypY4lfnHfH2fL6tSmfb2bq+h/K5dTUrJccUlQtGqrT2OdxV+mUpKCtVkE24bfsXXzaxkGbvVUq1FxIMACGQEAShaGTGM6AQIJJ8AK1yncqvCDcQMpdY5nR599GV65JF15HIpuuZSKhYxzkhFSxydc+21F9NnPnORVrtw26BFB2kgAAKaBKBoaeJBIgiAgBYBVqaEG4hb+bpGLd++fYe8s1stLR1qWaKKN0rRKi8vpp/97Kt0wgmKeqJPJrEJQLht6PVFpPM9Z1rd0oGGzRvSuQ+QHQTSjQAUrXQbMcgLAilIgBUuTTcQw8Muuv32J+ill+rjlt4IRev000+mH/7wc+zhXfWgaeG24QusYD0et8ApUsHE+efl9XQce7W/aYvqMUspIirEAIGMIgBFK6OGE50BgfEjwMqWcANxJ18XqkmxceN2+utfH6Xe3kG1LBHj41G0hNPR66//OF122dla7WSk24a8yoV/kCXP1f1NW0u1Oo80EAABYwlA0TKWJ2oDAdMTYIXrqwxBuIFQnC7q6upjn1sP8hE+wvQp+hCrojVz5lSvwXtNzWS1RoXbhu/xLFXAQuQAACYZSURBVNZf1TKka3xO5SL2uupaz94rOqFopesoQu50JQBFK11HDnKDQAoTYGVrDosn3EAsUhPzmWfeoPvue56cTpdaFsX4aBUtVpzoyisvoC984RL2jaW4SVK0k7FuG+rq6uw7jno285icxCjaoWgpfqwQCQIJIyDOsUAAARAAAUMJsHIj/Ewt4+vnfCluOVy58jS65ZbrqLKy3NC2AysTBu9/+csN9OUvX6amZAnZhIzLRmUOLJ4Rz6xkfV8oWRnRGXQCBNKQAGa00nDQIDIIpBMB/pHXdAMhXD/cffeztHbtW7q6pXdG67zzltJ3v3s1iTMLVULGu20omFY31+V2byWZsgQDzGipfBIQDQIJJABFK4FwUTUIgMAIAVa28vlJuIG4Vo3Ju+/uoVtvfZiEDZdWiKRo5efn0v/8z6fprLNUVy1F9cJo/xs8i5URbhuUeDFzKbe69lVWsk73pUPR8pHAHQSSRwBLh8ljjZZAwLQEhELD1+cYgHADIVwnhIX582exovUtWrRImHfFFhYunMN2Xz/RUrJE25cKWTJZyRL08qoXfjlQyYqNKEqBAAjESwAzWvESRHkQAIGoCPBMi3ADcQdfH1Yr+OKLb9Oddz5Nwv9WaFCa0XI4bPSlL13GB0KfG5o98P1ZfhEK1pHAyEx8zqlcNlWSBrcz66AzhTCjlYmjjT6lOgHMaKX6CEE+EMgwAkLR4Wsld+s6voRLhbCwYsVi+t3vvkEzZkwJSwuNEHnuuONGLSVLtHGdaNMMSpbgw0rWX0OVrFBueAcBEEgOAcxoJYczWgEBEFAgwMqAphsIj8dDDz74Ij3++Kvk8cjeGnwzWqw0eZUrsaPQZjOf2wYFnN6onOoFq8hDDyulY0ZLiQriQCCxBKBoJZYvagcBEIhAgJUtG2f5MV8/4EtRY9q58wD9/vcPUltbNwlFS7htuPHGL1Btrao9l3Db8Eu+bmaFLHz9kRMyMRRVn17ilHt38HneE5X6B0VLiQriQCCxBKBoJZYvagcBENBJgBUu4XfrXr5mKhUZGBhiz+53ksMh0Q03fIby8nKUsom4vXxdzQrWerUMmRqfW7XgTlayrlHrHxQtNTKIB4HEEYCilTi2qBkEQCBKAqxsCTcQf+Drc1EW9WUXRvbfZCUrY902+Doaes+vWXi22+35b2h84DsUrUAaeAaB5BCAMXxyOKMVEAABHQSEgsTX5zmrqhsIlWqE24ZLRFkzKlmVlcty3B75HypsEA0CIDCOBKBojSN8NA0CIKBMgJWlxznlRL6ES4ZIQeQ5kcs8ESljpqa3WQZuJllWXHLN1D6jXyCQLgSgaKXLSEFOEDAZAVacWvgSbiC+ypeSGwgR91WRR+Q1GR5/d3Nr6haSR/q2PwIPIAACKUUAilZKDQeEAQEQCCXAStRtHFfL19sBaeK5djQtINpcj8uXL7eR2307kWw1V8/RWxBIHwJiWzUCCIAACKQ0AVaoPmBDeXE49Y2jgv6E40zjtkFtcN7e0/1t9i4mlFAEEACBFCWAXYcpOjAQCwRAAAS0CBRV1c0cJs97bJul6ucitDx2HYYSwTsIJJ4AZrQSzxgtgAAIgIDhBIZlD+8y1K9kGS4AKgQBENBFADZaujAhEwiAAAikDoHcylr2MyafnToSQRIQAAE1AlC01MggHgRAAARSkEDetMWTSJJ/k4KiQSQQAAEFAlg6VICCKBAAARBIVQKyy/UnNoAvSVX5IBcIgEAwAcxoBfPAGwiAAAikLAE+y/CjMsmXp6yAEAwEQCCMABStMCSIAAEQAIHUIzBh1tJCluovqScZJAIBENAiAEVLiw7SQAAEQCBFCAwODf9almlqiogDMUAABHQSgKKlExSygQAIgMB4ESioWngGO2z90ni1j3ZBAARiJwBFK3Z2KAkCIAACCScwa9aFWS7Z809uCA6mE04bDYCA8QSgaBnPFDWCAAiAgGEEWtzHpnFlcwyrEBWBAAgklQAUraTiRmMgAAIgAAIgAAJmIgBFy0yjjb6CAAiAAAiAAAgklQAUraTiRmMgAAIgAAIgAAJmIgBFy0yjjb6CAAiAAAiAAAgklQAUraTiRmMgAAIgAAIgAAJmIgBFy0yjjb6CAAiAAAiAAAgklQAUraTiRmMgAAIgAAIgAAJmImAzU2fRVxCIhkDOrKWV0rBzAclUI0meQg9RsSRLhTJREdcjSyR18r1TkqlLtlAnSdJBO1m3dzZsaJAkjk2RcNNNN1l+++CzJTToLie3XG61Opo6G95qiEY89kouFVcvmjFs8Szgns1nJhXcQeYhF8iS1C1J1Mpxx9ij5h6y2l7ua3j7SDT1Iy8IgAAIZCoBeBrO1JFFv6IiIBSJwmm1y1wyXUIeaSH/w1ggk1waVSX+zFI/Kx47uc7tZKFNFov9le99duW7rPCwrhZ/WL58ue3tAwOlkosVJ4tcTrJc7pGpnP2Gi2dWgOQyVnrKWQZ+p3KZJO6HbPW1zErg5/qbttzpe1e7r1q1yvrsW3tXcH2XcvlL+Jy9iWp5Q+O5je2siD2XZaM/du7fciA0Xeu9qPr0kmGp72ytPLGk5ecX/efYtnW9sZTVKpNbVXsxK9p2rTx60iSP7Opv2vpEaN6C6YvmuJyunaHxsbzzZ6Kd24jxcz3SYn71wo97SD4hlvYjlpGlo/1N9Tg4OyIoZEgnAlC00mm0IKvhBHJrFtXKsuuTrFx9gpWJasMbGK2Qf+A6+ASV13j252UHWZ/sanx7XzRt5dbULZTd7tVCeWKFp4TLxv5v10IfH2jcukat/Ynzz8vrbm+9hiTPt1lRm66WT1e8JDklku+zyZZfdDfX79FT5oQTVjn2d+1uYkWtQk9+vXksFvpsX+PWu/Xm15OvcMaC2c5h+kBP3kh5eGwfZyWIldrgkEqKVkHNglNdbunVQMU9WNrY37j/nZJNWt63f8s7sdeCkiCQegRgo5V6YwKJkkAgr7LuJJ6JWCu7XfXkoe8lUskS3RHKEc9wXUwez++HPc69uZW1W/m6kWWYoqe7FrengPPN4Xom8D12JUsUliTVWZ286oVX9XQcY4XI86e4lSzRMVm2s8zXOCXP+7mVCz4voiKFbdvWDLOQd0TKF2267KFV0ZaJlN/tpI9GyqM73ULiPMOUDcXTlhezkrU6EUoWd7pXtlouhJKVssMPweIgAEUrDngomn4EhGLD1x0ecm9lxeeC8eoBL8edzNfNZLHUJlsGq2zpCW1zwszFVTlVtes8Hs+9zGVSaHrc7zJl8QzVP1nZ+oc4JDlSfQ4b/Z3zGLLU6muLjerOFcqC792Iu4eki42oh9XfphuuueQ5Y+pKTC3Dri5WBOUaw2uXpEGr1fLRgYb6twyvGxWCQAoQgKKVAoMAEZJDoKC67nSepXmXFYlrucWU+Oxbrdbdyen9WCseqydI0cqrqjtvcIhn9mT5Q2O5EvPEytYXDg0deZjHQHNWTth18czbM4ZKIZPD6ek0bAaqYO6SUv48nWqEjJJFutMoGz4j5AmtI7d64Zf4D4PLQ+PjfhdLy5K0qvdA/Utx14UKQCBFCaTEj02KsoFYGUQgr3LBp1yy+0X+sYjLENhYJJL7uBL3fmPrjFybzW3zK1o8u3etR3avZS5lkUsak4OVrIvzahbeFLE2C90WMU+UGYxcPvT0uT5i0DKaJ8sm3RllV5KWPb968Qk8Zr9PQIMe3qHx6f7G+qcTUDeqBIGUIQBFK2WGAoIkikBO1cJv8RrU/Tz7EHHJKlEyKNYrUcPmzZudimkJjHTb7V4brdyqhdfxD+jt3FTSvwdkj/yj3Kq6S7S6ecM1H/0PW6Pt08oTbZqRy4cyeQyZHWM3If/p2Le5Mdq+JCN/ZeWyHI/sfIhnO3MMbk+4R/lib9OWBw2uF9WBQMoRSPoXbMoRgEAZTWBkuVD+TSp2kv1RGbJbLdq+FQ/JPTk1tZfJMhu8x2lYH23bAfl56dD9Zy17LbGUZpEtfwsoE/+jQcuH06Ytz2Yj/3PjF4jnxEhKWSP4dhr4A/fTeFcOFsu3+5u3GL7hwYjxQB0gYDQBKFpGE0V9KUPAu0vK47nfoOUdw/vFmkbS7bO4E3K7NHguuekefta0kzK8wyEV8g/4VLbXujYkOujVkiv9i6UcCoqM88WI5cOjnu4VLEZenKKIHaBHls4qfCreehJRPqd6wSq2qfui0XVzn28caKz/g9H1oj4QSFUCULRSdWQgV9wEhtxdf2W9ojruihJUAe9YGw9Fi525y08wl9wEdSuqalnZ+n5dXZ2qs8+eDzazx3np4agqjZBZLB+WzKgripBNO9njMWi3If1r3bp1Lu3Gkp9aVLNkOp+CYPxMm2T5f+ws96fJ7xFaBIHxIwBFa/zYo+UEEhDuCtiuhJ2Qpm6wSOMyo5ViQOTqnUc92rvZbBIrzAYGXj4cdsVuX8WKKpsXSWwIH3eQ7WRJueUzofg6PcMPcj/jU0ZD8PBM1t8GmurZZx0CCJiLABQtc423aXrL7gqu4c6m9OfbJiXftUMqfgB4eep8LbmEfyXWbAz1Fs7G+B/XalMrLXd63VJWQgzwNSa91NW0ea9WW+ORtv2o/AueaVxiaNsWuv+Gz330OkPrRGUgkCYEUvqHKE0YQswUIyAOUeYf72uNE0s6wH+N/9JmpdMoO6tq3kSro5RyeOktp9JC1vlWkpZbLNJneJbjt5zvBTZ8OhqxbYmGz1s67UDEfCbIwD/qZ0fspkX6S8Q8UWSIa/nQJRuy29AqJWBpLgoGSllzaxZ8mGTPd5TSYo0TRwstnVH82VT2ExZr31AOBPQQsOnJhDwgkE4Efn3Xk/zXuDEerHkm5d8FE8o/3fLu830+BptHHpx8Ozh6+ZL895zKZVMtlsGzPR46l39oVvAMyGR/oniQpX1r1qxxB8Wl1gt7xEjWjKBcVVi5cJbWWYgFxWWr+Wig3xi2nDW2fHhPtNh5PC9m5TCuwJ+r1prCmY9to/q46jGysPjMknvwbvHhNKpeZvX8lKzJV6xbtzbl7NCM6iPqAYFIBDCjFYkQ0tOOgOSWDTnWRvwYTsme9KlAJUsvjIHm9Qf7GrfcO9C85dNs/DvFKtlOkiyWm7n8LlEH/wCNhyF8mPgsRydLcy/L9mV+XmLNyp0oZuxYZpudckotdsvJnP51LrgurLCBES7S9krvHQPJu1PSsFZ5+XBVtJUJhZCVvXnRlgvNz6rMPd4zHUMTxul91apVPDE7uNpQx7USvV5cYb10z561hu4aHSdEaBYEYiaAGa2Y0aFgqhJg/1Rz45xwGOmaRIeN+pHobdr0Plcqrpvypi1eQB5n+Xjy4yXOetki/fz4MumpUKepYsaO04V47aPXu3z/U/60RcvdLvddRs0Wcp1jwSJVjb0oP1kk6TY3yV9TTo0+lpWd88TuQ3YW2qW3tFviZUMDPlw2q8X4HX16O6GQ75m3dt/M/TpTISmmKP78bM7Ocqw8tHlDf0wVoBAIZBABzGhl0GCiKyME+AfUkIODeXlonnc5xWCwfQ1vb+1r3PqCwdVGU90HPGNVN3Cg/t+hSpZWJb0Nm9ZJVssy/hHdrpUvpjTZUxapHJ+Ht4PzvBwpn+70seVD3UV4PTV+tw6S9FpPw+aduhtNcMa86gXn8mf9B0Y1Iz4f1hzLBe17NnQbVSfqAYF0JgBFK51HD7IrE5CJDdWNCDIfxTa4Jm6fS0aIYmAd/EMYs71M/4HNhyWb9El2IjpsoEjCO3qprvoMPv8wmuXD0UOkT9Mlp0YmduuRMrNZfNblFHbgeh+La8xvgSTtJYtlhdf/mQYDJIGAmQgY84/LTMTQ1zQgIIslL4OCvGzQ6a7Pr1l4tkEVpn01ffvr37XIkqFH4/BCZcQZLQFuXrn1cVYUDxsF0bd8qKc+T//wRbxsysp37EHYxJV4sh+JvQbjSgq7LF4FfYCvCiNq5TFszrJmrRDKuBH1oQ4QyBQCULQyZSTRjzECktQy9mLAk0wz3G7Pf/mv/xdGlln459nkQbLQ3w1GMEFPfd6lTiNnhKJYPpQ9UvzLhiTd19y8fkBPXxOd5+n1e37OTn0NscvifxBHrXbbis6GtxoSLTfqB4F0IwBFK91GDPLqICAf0ZEp6iy822wFu2t4Prdq4fa8qtpv58+qHVeD9qg7YGCB3sYt29lifo9hVcqke2OO7HDw0ptkmGsMPcuH3kOkSdZ0rKqHBS+7psSyYW71QjE7d4MemSPlEbN0ks1+fs/+Td4dtZHyIx0EzEYAipbZRtwE/ZVsltcT2015rkeWf+seooO5lbWP5FUtPF84SU1smylZ+6bxkGpgz4ZmSZKfNKptPcuHR+Wec7i9uA6RZoVko1h2NUruWOspql48g52S3svljZiZ7ZWtlgvFBo9Y5UE5EMh0Amb8ccj0MTV9/8SPGf+oCWeiiQ2ybGe/Q5d5ZM9zv779if2sdN3oPWMxsa2mTO3sRkPsAhyXwHZafzWs4ZHlQ+1lQbdbO12PMPL4G8Hz7kI+x9D1GN/j35krSYNWq+Wj4ogkPd1HHhAwKwEoWmYd+Yzvt+WJ5HZRrmal6+aBIdf+nOoF9xVMXzQnue0nvzXZIpydjk9gVw//5QmZ3Ua1rnX2IS8Zs+/auA+R7skrKn7QKHnjqKeAP6fz4yg/UlSSnKzsruJxeCnuulABCGQ4AShaGT7AZu2ew+r4jdEuCPSx5F1pHrrS5XRtz3SFy0Kybkef+tjpz8U/8uwRQrpNfwntnFrLh7nTFy1hZWuydg3aqbxG98Cxbet6tXOlT6pEcp/ssGO5MH2GDJKOIwEoWuMIH00njoDY/cQ/buNpeGwZUbjc23Iqa+/JSMN5DzkTN4KRa3ZIuXexsmXMDj6N5UM+0in+ZcMUPEA6MmH1HN6lx8Hhu72zferZkAICIMAEoGjhY5CxBOxS/o/4h3jv+HZQ+F2Sr/YM0racmoUfG19ZMqv1rsbXO8RMkVG9YsedH1WuyxOXosUybmVP/OOycUC5P0bFymfnVy/8llG1oR4QyFQCULQydWTRLxI/xBabxMqN1D/eONguppzcnkfZF9cvxluWDGvfuOVDks+rq6uzB/LhUwGqefbmxMC4qJ+N9PsVdeOJLeAh+Rd5lXUnJbYV1A4C6U0AilZ6jx+kj0DA68VcslzK2foiZE1KMi+1/EAsJQqv3ElpMMMbETNFbK/1tkHdLPig1b04sK6hYfd5ge/RP0v9WXbr/dGXS5MSMmXJkuf+WbMuzEoTiSEmCCSdABStpCNHg8km0Ne0+Xki29m8daw12W0rtydf/fRbe36tnIbYaAnwuBrm6sEjS0Ge0nln5fJo5QnMz25G1nTs2zxumwYCZUnUM//xcNLBoSOYqU0UYNSb9gSgaKX9EKIDeggMNG/ayLsQT+bZjxf05E94Hln+Tl71wqsS3o4JGiiRsx5ihabdiK7yMuEpQfV4ghWvoDQdL1bJOp4bMhQkFMvo0tc5QRwkbVyQ5W/lVdcKp64IIAACIQSgaIUAwWvmEuBlpkN9jfXnSxbLl1nhOjzePZVlz61sA1Q03nKke/vi7ED29XCXEf1gRWuhrx62p5vCGxmqfO/R3vkztr2ncdMb0ZZLZH72ijE40LzlT6WU80VWuBoNbEtiX2R3FVWfXmJgnagKBDKCABStjBhGdEIvAf7xk/sb6/9eYS2aYZGk7/COsKN6yxqdj3/UJwwOe75vdL1mrM9ul//G/Zbj77tcVXBcXZmoR7ZIwbNbUVYup7BLB6GcWiXphii7pJmd4VcOy32GbU7QbAyJIJBGBKBopdFgQVTjCDQ0rBvsa9ryu4IJFTMsFukHbOdzzLjao6lJ/po4sDiaEsgbTqB739bdvHxoyLKwZ2B0Vkv2xK5oSTRky7WJ8wRTNvQ21T/Ey+nGngsqy5/AknjKDjkEGycCULTGCTyaTQ0CLe8+39fXuOVX04tmVVolyxW8nCKOFDFgZkR3//JGDyzWXQAZ1QhYjZlNkTy13hbkeGa0pH/37NzYpiZpqsRLkuWbLIuhn3c2jv9z8fTamlTpI+QAgfEmAEVrvEcA7acEgW3b1gyLv/DZfuUcO1mOY1e+t/AMSUtShPN4PpKUdjK8kZWnzHiKl4Kb4+2mx0Mn3HTTTXzCkDyicMVQodViSTEjeOVO8DL6Zl5O/5dyamyxrGgVDbnoHi/D2KpAKRDIKAJQtDJqONEZIwh0N9fvGWjc+j9LZhZX8uEJH2OFi91DGPtXf5Ccsrwg6B0vMRFYs2aNm08C+HtMhQMK8XjP++1dTx3HUfkB0fofJWlPT8OmdfoLjG9OyWr7IUvQY6gUsnzmb+584nuG1onKQCBNCUDRStOBg9iJJ7Bu3TrXQHP9Y/1NW8+32azzeFlR2Nx4jG6Zd8xNMrpOs9bHSsPtrGw54+k/z8jMkd2emJVfi0S3i00X8ciQzLJ9DW8fYTvFnxvdpkeWf5JbsyjmWUGj5UF9IDBeBKBojRd5tJtWBHoaNu/kZcVPW+zSQv4R3WGo8BJNNLQ+E1cmlAaefHwsTgT5rE1fGFMdQsmzOu6Kqew4FprsmPQHw88F5YO6yeO+D5s9xnFg0XRKEICilRLDACHShUDf/i3vFJSULxYHBRsmsyxnwZ7FMJpklY3wFC/HZDfH81hP9e3fkBzbPuOQ0Z49a4cksnzXwCq9VfHs4Lyjnq5bjK4X9YFAOhGAopVOowVZU4KA2Kko2yxfMVCYXla0DF+SNFC+tKqqt3nLKzzruD0eodnHWUyON7ndf8TT7niW7W/a/PjorltDxWBHptfnVS0839BKURkIpBEBKFppNFgQVR8BYReSU7XgofzK2g/pKxF9rqXTCjdxKWOUI4nGyYdX9P1OlxKyLBnj6iGqDksHvve5iw3x5RVVswZmtpBw9yC5DaxSVMUTffK/CuYuKTW4XlQHAmlBAIpWWgwThIyGgEX2zOY9gh93k7wut2rB+3yUylfKT1ge2w4ylYY37e+ezUmG/PthZ6nbVJpBdIwEcrLt93DRvhiLx1SMdyveke4zk33Nm9/jfhg+K8dLiJPdvU7D641poFAIBJJMwJAfiiTLjOZAQJMA//U8w5eBl4BO4C/5v/Z2dx1jhWttTmXt1worF87ypcdyF+e5uT0eI/0kbYxFDpRRJ9C+Z0M329Hdr57D6BTJLcvZdxpd63jUZ82x3MjKVqfRbfO/y4/xEuI1RteL+kAg1QlA0Ur1EYJ8URNgmxC/ouUvzL+CrHBdwDvS/ugkz+6cqtrdrHjdnlO94Bt51bXn5E1fGnHnnzgAWvxQDHt61/OM2Wn+uuN7kO0WexIVgviETafSkt0Io3h9PZZIXjvQvP6gvtypnavng82tsmS5ORFSevgg9aLqxeH/PhPRGOoEgRQhYEsROSAGCBhGgP1S8Rd5BDdGsjyLc8wS2Tze/w1RbmVtK1uTHOGoLjYq6eRDgbs4yc1/3VfwfdKg0z2X71mGCSoqkqRXuw5s3G9onajMS0DsEOUZzDf5s3BqwpGk8AHSsfR9Xrn0l+0t0peY3dxYymuUKRj2uO5dtWrVmV4HsxoZkQQCmUIAM1qZMpLoxxgBSZ4+9qL/iZc2ynip8URWpk5jZWslH8HyKf6huZpnws7ntJMNV7JYNAtJd+mXEDmjJcB8/xptmWjz807DQytPmfVMtOVSOf/mzZudkpW+nRgZ5VOfeWvPDxJTN2oFgdQjAEUr9cYEEsVBgP9StpIsVcdRRfKK8lEtRRXSw8lr0HwtTc6e+AhvNmhNbM/lf2Xi7Ez/gS1rmd3aRLDjP2h+zEv3ixJRN+oEgVQjAEUr1UYE8sRF4PmNB1jJktNgSZy30Fulqw9t3twfV4dRWJOAcMTJs5N3aGaKL1F2WLNvj6+K1C1ttVu/Fe+RRsq9k208U3z/lLq6XOV0xIJA5hCAopU5Y4meMAGX7JyRDiDY7uuXAw31b6WDrOkuo8NqFwdNG+PzLAQGj+MLnQ1vNYREZ8xrz/5Nuywk/yVBHTqu86jntwmqG9WCQMoQgKKVMkMBQYwgMGIIb0RNiauDbXpeXDKzKCG7uhIndfrWLDYb8BLYc4noAW+YMNLNRyJEjLtOu7X45kQtv/Ks1pdza+pWxi0kKgCBFCYARSuFBweixUBAjs0QPoaWYisiSQ9OL5y1ct26da7YKkCpmAhYLYYbxUtER+eVW56ISZ40KtTZsK6TJPpRwkT2uO/In1VbnrD6UTEIjDMBKFrjPABo3lgCbI+TukuHkvS7/sb6T23btmbY2F6jtkgEbrjmI2tZWWiIlC+adNlCd4vdedGUSde8vKvynzwT+14i5GfD+ImeoYTa0SVCbNQJAroJQNHSjQoZ04EAzzKkoKIlNVklyxUDTVu+wz9WrAsiJJuAOBrHIknCVsuwYLM5MtYIPhSS2FVpsUh8DmJiAi8hfiS3euEXE1M7agWB8SUARWt8+aN1owlYrF9iZUucqdZrdNXR1yf1syw3lVL2nN6m+oeiL48SRhKQHDxrIpExs4mS9ErPvo0fGClfqtfVe6D+JTb+fyxRcsoez+8KZywQZ4gigEBGEYCilVHDic70H9i0pb9565fy8vKm8OzRV/jaxFSSPIskNXK7v6RsxxyW5ebm5vUDGJnxJ9C7Z8sxVrTWGCGJRc58I3glTnbJ/l1mOKSUZkBcnstJ9y1fvjwN3LMY0FtUYRoC+ECbZqjN1dHWXW/0cI//Jq78madWyMMD57C2tYLtQc5hvavGaBoju7Lkx3h56r6exvrXjF4ilCxWlyS7jDnoV6ZuI/rPa3HDkiwbIhN73jdEpkj9spHtNhe5royUTyudZ3Xay62Fj/ZpZTIwTZJcHm7TIM7UFY9oXY1v7+NjjX7PdXw3nnrUyvK/z4Ub93YJr/E/VcuDeBBINwK8soEAAuYiUDy9tsbpkuZ6ZJotWeTjeL5rNiths/lg4Al8z+N3hyIRXnaSZKmL83Ry3g/YkWM9H6JTn2Wn+o59mxsVyyAypQjkVy/8uNvjiW8Z10K3DDRu/Z+U6hiEAQEQSFkCULRSdmgg2HgREEsXWxsof8g1lGenoRy3zdpb4rJ1YQlwvEbEmHbZIN5yyx1PvMeG1/Nir1FyZzssM6BYx04QJUHAbASgaJltxNFfEDApgbyq2k96ZHl1PN3nJeJH+5u3XB5PHSgLAiBgLgIwhjfXeKO3IGBKAuKwcVayfhxv5y0S/THeOlAeBEDAXAQwo2Wu8UZvQcCUBPKqa6/2eOR74uk8f1lu5V2ktfHUgbIgAALmI4AZLfONOXoMAqYiUH7C8nyezfpJvJ2WJAtms+KFiPIgYEICULRMOOjoMgiYiUBfd9dveCfptLj6LEl751ZI98VVBwqDAAiYkgCWDk057Og0CJiDQG5N7YWyW3423t7yX6RX9jVvjcuQPl4ZUB4EQCA9CUDRSs9xg9QgAAIRCORX185jX2lvsjuHoghZNZN5p+E7fU31tUY7odVsFIkgAAIZQwCe4TNmKNEREAABH4Hcqtopbll+mpcM41KyvPVZ5f+FkuUjizsIgEC0BGCjFS0x5AcBEEhpAgXT6ubyUS5vspI1PW5BJXq9/8DWuJce45YDFYAACKQtAShaaTt0EBwEQCCUQE517eVut/sNY86zlNwk274T2gbeQQAEQCAaAlg6jIYW8oIACKQkgdyauoXkdv9E9sgr+SxKY4JF/u1A46aNxlSGWkAABMxKAIqWWUce/QaBNCKQU7lsqiQNfJRtpXpk2dJDFnKSLE9lxWq6JMkfkd3uE4ztjrRzoqXoxw3GVoraQAAETEgAipYJBx1dBoF0IyDRwN/Z7mol7yBk0d3e/3x98Eb5Xgy585KhTbqmoWHdoCHVoRIQAAFTE4CNlqmHH50HgdQnkFe54FOsXq1MmqQW+XcDDfVvJa09NAQCIJDRBKBoZfTwonMgkN4ECo6rK5NJujVpvZDojamOyT9KWntoCARAIOMJQNHK+CFGB0EgfQm4Bjx/lEkuS0oPJGmPLcd6yZ49a4eS0h4aAQEQMAUBeIY3xTCjkyCQfgRyqxdeJHs8TyVDcvb+3mZzyMu6923dnYz20AYIgIB5CEDRMs9Yo6cgkDYEJsxaWjg4OLSNbbMqEy60REM2spzb01T/WsLbQgMgAAKmI4ClQ9MNOToMAqlPYHBo+NdJUbKI+iTJcjmUrNT/TEBCEEhXApjRSteRg9wgkKEE8qtqz+RzCtdx9xL6/SRJdFCy2i/qa3h7a4aiRLdAAARSgABmtFJgECACCIDACIFp05Znu2W6nd8SrGRJ9dzEEihZ+OSBAAgkmgAUrUQTRv0gAAK6CbR4Om/mcwpn6y4QfUaZvcvfU1BSfmZ/05ZD0RdHCRAAARCIjkBC/2qMThTkBgEQMDMB3mVYx0fqbGBFy5oIDrxUuFG2Wr4BZ6SJoIs6QQAE1AjgCB41MogHARBIKgGJPBN4Oe99NoI/2ciGeQbrECtZ3+89UH8fP3P1CCAAAiCQPAKY0Uoea7QEAiCgg0B+Td1ZHo98OZ9r+BGe3arSUUQhi+RineolC1nunJQ18XE4IVVAhCgQAIGkEICilRTMaAQEQCAWAvnVi0+QyV3rkelknvGaz3VMIZmKeVqqmJ/zeQZMKFQ9siy1SiTvki20Q5Kl17OzHOva92zojqVNlAEBEAABEAABEAAB0xO46aabsJnH9J8CAAABEAABEAABEAABEAABEAABEAABEAABEAABEAABEAABEAABEAABEAABEAABEAABEAABEAABEAABEAABEAABEAABEAABEAABEAABEAABEAABEAABEAABEAABEAABEAABEAABEAABEAABEAABEAABEAABEAABEAABEAABEAABEAABEAABEAABEAABEAABEAABEAABEAABEAABEAABEAABEAABEAABEAABEAABEAABEAABEAABEAABEAABEAABEAABEAABEAABEAABEAABEAABEAABEAABEAABEAABEAABEAABEAABEAABEAABEAABEAABEEgogf8PeK4B2HnKElAAAAAASUVORK5CYII=;fontFamily=Poppins;fontSource=https%3A%2F%2Ffonts.googleapis.com%2Fcss%3Ffamily%3DPoppins;container=0;" vertex="1" parent="1">
          <mxGeometry x="2587.3199999999997" y="3207.4900000000002" width="137.3" height="78" as="geometry" />
        </mxCell>
        <mxCell id="UnBP7zHp0_nx1okpZba--764" value="Vulnerabilities" style="text;html=1;strokeColor=none;fillColor=none;align=center;verticalAlign=middle;whiteSpace=wrap;rounded=0;dashed=1;dashPattern=1 1;labelBackgroundColor=#FFFFFF;fontFamily=Poppins;fontSource=https%3A%2F%2Ffonts.googleapis.com%2Fcss%3Ffamily%3DPoppins;container=0;" vertex="1" parent="1">
          <mxGeometry x="2484" y="3209.6200000000003" width="100.62" height="30" as="geometry" />
        </mxCell>
        <mxCell id="UnBP7zHp0_nx1okpZba--945" value="Costs monitoring" style="fillColor=none;strokeColor=#5A6C86;dashed=1;verticalAlign=top;fontStyle=0;fontColor=#5A6C86;fontFamily=Poppins;fontSource=https%3A%2F%2Ffonts.googleapis.com%2Fcss%3Ffamily%3DPoppins;container=0;strokeWidth=2;" vertex="1" parent="1">
          <mxGeometry x="924" y="2434" width="870" height="290" as="geometry" />
        </mxCell>
        <mxCell id="UnBP7zHp0_nx1okpZba--946" value="&lt;b&gt;Amazon Athena&lt;/b&gt;" style="sketch=0;points=[[0,0,0],[0.25,0,0],[0.5,0,0],[0.75,0,0],[1,0,0],[0,1,0],[0.25,1,0],[0.5,1,0],[0.75,1,0],[1,1,0],[0,0.25,0],[0,0.5,0],[0,0.75,0],[1,0.25,0],[1,0.5,0],[1,0.75,0]];outlineConnect=0;fontColor=#232F3E;gradientColor=#945DF2;gradientDirection=north;fillColor=#5A30B5;strokeColor=#ffffff;dashed=0;verticalLabelPosition=bottom;verticalAlign=top;align=center;html=1;fontSize=12;fontStyle=0;aspect=fixed;shape=mxgraph.aws4.resourceIcon;resIcon=mxgraph.aws4.athena;labelBackgroundColor=none;strokeWidth=3;fontFamily=Poppins;fontSource=https%3A%2F%2Ffonts.googleapis.com%2Fcss%3Ffamily%3DPoppins;container=0;" vertex="1" parent="1">
          <mxGeometry x="1544" y="2596" width="78" height="78" as="geometry" />
        </mxCell>
        <mxCell id="UnBP7zHp0_nx1okpZba--947" value="&lt;b&gt;Amazon S3&lt;/b&gt;" style="sketch=0;points=[[0,0,0],[0.25,0,0],[0.5,0,0],[0.75,0,0],[1,0,0],[0,1,0],[0.25,1,0],[0.5,1,0],[0.75,1,0],[1,1,0],[0,0.25,0],[0,0.5,0],[0,0.75,0],[1,0.25,0],[1,0.5,0],[1,0.75,0]];outlineConnect=0;fontColor=#232F3E;gradientColor=#60A337;gradientDirection=north;fillColor=#277116;strokeColor=#ffffff;dashed=0;verticalLabelPosition=bottom;verticalAlign=top;align=center;html=1;fontSize=12;fontStyle=0;aspect=fixed;shape=mxgraph.aws4.resourceIcon;resIcon=mxgraph.aws4.s3;fontFamily=Poppins;fontSource=https%3A%2F%2Ffonts.googleapis.com%2Fcss%3Ffamily%3DPoppins;labelPosition=center;container=0;" vertex="1" parent="1">
          <mxGeometry x="1274" y="2476" width="78" height="78" as="geometry" />
        </mxCell>
        <mxCell id="UnBP7zHp0_nx1okpZba--948" value="&lt;b&gt;Amazon CloudWatch&lt;br&gt;&lt;/b&gt;" style="sketch=0;points=[[0,0,0],[0.25,0,0],[0.5,0,0],[0.75,0,0],[1,0,0],[0,1,0],[0.25,1,0],[0.5,1,0],[0.75,1,0],[1,1,0],[0,0.25,0],[0,0.5,0],[0,0.75,0],[1,0.25,0],[1,0.5,0],[1,0.75,0]];points=[[0,0,0],[0.25,0,0],[0.5,0,0],[0.75,0,0],[1,0,0],[0,1,0],[0.25,1,0],[0.5,1,0],[0.75,1,0],[1,1,0],[0,0.25,0],[0,0.5,0],[0,0.75,0],[1,0.25,0],[1,0.5,0],[1,0.75,0]];outlineConnect=0;fontColor=#232F3E;gradientColor=#F34482;gradientDirection=north;fillColor=#BC1356;strokeColor=#ffffff;dashed=0;verticalLabelPosition=bottom;verticalAlign=top;align=center;html=1;fontSize=12;fontStyle=0;aspect=fixed;shape=mxgraph.aws4.resourceIcon;resIcon=mxgraph.aws4.cloudwatch_2;labelBackgroundColor=none;strokeWidth=3;fontFamily=Poppins;fontSource=https%3A%2F%2Ffonts.googleapis.com%2Fcss%3Ffamily%3DPoppins;container=0;" vertex="1" parent="1">
          <mxGeometry x="984" y="2476" width="78" height="78" as="geometry" />
        </mxCell>
        <mxCell id="UnBP7zHp0_nx1okpZba--949" style="edgeStyle=orthogonalEdgeStyle;rounded=0;orthogonalLoop=1;jettySize=auto;html=1;exitX=1;exitY=0.5;exitDx=0;exitDy=0;exitPerimeter=0;entryX=0;entryY=0.5;entryDx=0;entryDy=0;entryPerimeter=0;fontFamily=Poppins;fontSource=https%3A%2F%2Ffonts.googleapis.com%2Fcss%3Ffamily%3DPoppins;startArrow=none;startFill=0;endArrow=classic;endFill=1;" edge="1" parent="1" source="UnBP7zHp0_nx1okpZba--950" target="UnBP7zHp0_nx1okpZba--947">
          <mxGeometry relative="1" as="geometry" />
        </mxCell>
        <mxCell id="UnBP7zHp0_nx1okpZba--950" value="&lt;b&gt;Amazon Kinesis&lt;/b&gt;" style="sketch=0;points=[[0,0,0],[0.25,0,0],[0.5,0,0],[0.75,0,0],[1,0,0],[0,1,0],[0.25,1,0],[0.5,1,0],[0.75,1,0],[1,1,0],[0,0.25,0],[0,0.5,0],[0,0.75,0],[1,0.25,0],[1,0.5,0],[1,0.75,0]];outlineConnect=0;fontColor=#232F3E;gradientColor=#945DF2;gradientDirection=north;fillColor=#5A30B5;strokeColor=#ffffff;dashed=0;verticalLabelPosition=bottom;verticalAlign=top;align=center;html=1;fontSize=12;fontStyle=0;aspect=fixed;shape=mxgraph.aws4.resourceIcon;resIcon=mxgraph.aws4.kinesis;labelBackgroundColor=none;strokeWidth=3;fontFamily=Poppins;fontSource=https%3A%2F%2Ffonts.googleapis.com%2Fcss%3Ffamily%3DPoppins;container=0;" vertex="1" parent="1">
          <mxGeometry x="1134" y="2476" width="78" height="78" as="geometry" />
        </mxCell>
        <mxCell id="UnBP7zHp0_nx1okpZba--951" style="edgeStyle=orthogonalEdgeStyle;rounded=0;orthogonalLoop=1;jettySize=auto;html=1;exitX=1;exitY=0.5;exitDx=0;exitDy=0;exitPerimeter=0;entryX=0;entryY=0.5;entryDx=0;entryDy=0;entryPerimeter=0;fontFamily=Poppins;fontSource=https%3A%2F%2Ffonts.googleapis.com%2Fcss%3Ffamily%3DPoppins;startArrow=none;startFill=0;endArrow=classic;endFill=1;" edge="1" parent="1" source="UnBP7zHp0_nx1okpZba--948" target="UnBP7zHp0_nx1okpZba--950">
          <mxGeometry relative="1" as="geometry" />
        </mxCell>
        <mxCell id="UnBP7zHp0_nx1okpZba--952" value="&lt;b&gt;AWS Glue&lt;/b&gt;" style="sketch=0;outlineConnect=0;fontColor=#232F3E;gradientColor=none;fillColor=#4D27AA;strokeColor=none;dashed=0;verticalLabelPosition=bottom;verticalAlign=top;align=center;html=1;fontSize=12;fontStyle=0;aspect=fixed;pointerEvents=1;shape=mxgraph.aws4.glue_data_catalog;labelBackgroundColor=none;strokeWidth=3;fontFamily=Poppins;fontSource=https%3A%2F%2Ffonts.googleapis.com%2Fcss%3Ffamily%3DPoppins;container=0;" vertex="1" parent="1">
          <mxGeometry x="1414" y="2477" width="72" height="78" as="geometry" />
        </mxCell>
        <mxCell id="UnBP7zHp0_nx1okpZba--953" style="edgeStyle=orthogonalEdgeStyle;rounded=0;orthogonalLoop=1;jettySize=auto;html=1;exitX=1;exitY=0.5;exitDx=0;exitDy=0;exitPerimeter=0;fontFamily=Poppins;fontSource=https%3A%2F%2Ffonts.googleapis.com%2Fcss%3Ffamily%3DPoppins;startArrow=none;startFill=0;endArrow=classic;endFill=1;" edge="1" parent="1" source="UnBP7zHp0_nx1okpZba--947" target="UnBP7zHp0_nx1okpZba--952">
          <mxGeometry relative="1" as="geometry" />
        </mxCell>
        <mxCell id="UnBP7zHp0_nx1okpZba--954" value="&lt;b&gt;AWS Cost and Usage Report&lt;/b&gt;" style="sketch=0;points=[[0,0,0],[0.25,0,0],[0.5,0,0],[0.75,0,0],[1,0,0],[0,1,0],[0.25,1,0],[0.5,1,0],[0.75,1,0],[1,1,0],[0,0.25,0],[0,0.5,0],[0,0.75,0],[1,0.25,0],[1,0.5,0],[1,0.75,0]];outlineConnect=0;fontColor=#232F3E;gradientColor=#60A337;gradientDirection=north;fillColor=#277116;strokeColor=#ffffff;dashed=0;verticalLabelPosition=bottom;verticalAlign=top;align=center;html=1;fontSize=12;fontStyle=0;aspect=fixed;shape=mxgraph.aws4.resourceIcon;resIcon=mxgraph.aws4.cost_and_usage_report;labelBackgroundColor=none;strokeWidth=3;fontFamily=Poppins;fontSource=https%3A%2F%2Ffonts.googleapis.com%2Fcss%3Ffamily%3DPoppins;container=0;" vertex="1" parent="1">
          <mxGeometry x="984" y="2596" width="78" height="78" as="geometry" />
        </mxCell>
        <mxCell id="UnBP7zHp0_nx1okpZba--955" value="&lt;b&gt;Amazon S3&lt;/b&gt;" style="sketch=0;points=[[0,0,0],[0.25,0,0],[0.5,0,0],[0.75,0,0],[1,0,0],[0,1,0],[0.25,1,0],[0.5,1,0],[0.75,1,0],[1,1,0],[0,0.25,0],[0,0.5,0],[0,0.75,0],[1,0.25,0],[1,0.5,0],[1,0.75,0]];outlineConnect=0;fontColor=#232F3E;gradientColor=#60A337;gradientDirection=north;fillColor=#277116;strokeColor=#ffffff;dashed=0;verticalLabelPosition=bottom;verticalAlign=top;align=center;html=1;fontSize=12;fontStyle=0;aspect=fixed;shape=mxgraph.aws4.resourceIcon;resIcon=mxgraph.aws4.s3;fontFamily=Poppins;fontSource=https%3A%2F%2Ffonts.googleapis.com%2Fcss%3Ffamily%3DPoppins;labelPosition=center;container=0;" vertex="1" parent="1">
          <mxGeometry x="1134" y="2596" width="78" height="78" as="geometry" />
        </mxCell>
        <mxCell id="UnBP7zHp0_nx1okpZba--956" style="edgeStyle=orthogonalEdgeStyle;rounded=0;orthogonalLoop=1;jettySize=auto;html=1;exitX=1;exitY=0.5;exitDx=0;exitDy=0;exitPerimeter=0;entryX=0;entryY=0.5;entryDx=0;entryDy=0;entryPerimeter=0;fontFamily=Poppins;fontSource=https%3A%2F%2Ffonts.googleapis.com%2Fcss%3Ffamily%3DPoppins;startArrow=none;startFill=0;endArrow=classic;endFill=1;" edge="1" parent="1" source="UnBP7zHp0_nx1okpZba--954" target="UnBP7zHp0_nx1okpZba--955">
          <mxGeometry relative="1" as="geometry" />
        </mxCell>
        <mxCell id="UnBP7zHp0_nx1okpZba--957" value="&lt;b&gt;AWS Glue&lt;/b&gt;" style="sketch=0;outlineConnect=0;fontColor=#232F3E;gradientColor=none;fillColor=#4D27AA;strokeColor=none;dashed=0;verticalLabelPosition=bottom;verticalAlign=top;align=center;html=1;fontSize=12;fontStyle=0;aspect=fixed;pointerEvents=1;shape=mxgraph.aws4.glue_data_catalog;labelBackgroundColor=none;strokeWidth=3;fontFamily=Poppins;fontSource=https%3A%2F%2Ffonts.googleapis.com%2Fcss%3Ffamily%3DPoppins;container=0;" vertex="1" parent="1">
          <mxGeometry x="1277" y="2596" width="72" height="78" as="geometry" />
        </mxCell>
        <mxCell id="UnBP7zHp0_nx1okpZba--958" value="&lt;b&gt;Amazon QuickSight&lt;/b&gt;" style="sketch=0;points=[[0,0,0],[0.25,0,0],[0.5,0,0],[0.75,0,0],[1,0,0],[0,1,0],[0.25,1,0],[0.5,1,0],[0.75,1,0],[1,1,0],[0,0.25,0],[0,0.5,0],[0,0.75,0],[1,0.25,0],[1,0.5,0],[1,0.75,0]];outlineConnect=0;fontColor=#232F3E;gradientColor=#945DF2;gradientDirection=north;fillColor=#5A30B5;strokeColor=#ffffff;dashed=0;verticalLabelPosition=bottom;verticalAlign=top;align=center;html=1;fontSize=12;fontStyle=0;aspect=fixed;shape=mxgraph.aws4.resourceIcon;resIcon=mxgraph.aws4.quicksight;labelBackgroundColor=none;strokeWidth=3;fontFamily=Poppins;fontSource=https%3A%2F%2Ffonts.googleapis.com%2Fcss%3Ffamily%3DPoppins;container=0;" vertex="1" parent="1">
          <mxGeometry x="1684" y="2596" width="78" height="78" as="geometry" />
        </mxCell>
        <mxCell id="UnBP7zHp0_nx1okpZba--959" style="edgeStyle=orthogonalEdgeStyle;rounded=0;orthogonalLoop=1;jettySize=auto;html=1;exitX=1;exitY=0.5;exitDx=0;exitDy=0;exitPerimeter=0;fontFamily=Poppins;fontSource=https%3A%2F%2Ffonts.googleapis.com%2Fcss%3Ffamily%3DPoppins;startArrow=none;startFill=0;endArrow=classic;endFill=1;" edge="1" parent="1" source="UnBP7zHp0_nx1okpZba--955" target="UnBP7zHp0_nx1okpZba--957">
          <mxGeometry relative="1" as="geometry" />
        </mxCell>
        <mxCell id="UnBP7zHp0_nx1okpZba--960" value="" style="endArrow=classic;html=1;rounded=0;fontFamily=Poppins;fontSource=https%3A%2F%2Ffonts.googleapis.com%2Fcss%3Ffamily%3DPoppins;entryX=0;entryY=0.5;entryDx=0;entryDy=0;entryPerimeter=0;" edge="1" parent="1" source="UnBP7zHp0_nx1okpZba--957" target="UnBP7zHp0_nx1okpZba--946">
          <mxGeometry width="50" height="50" relative="1" as="geometry">
            <mxPoint x="1326.06" y="2666" as="sourcePoint" />
            <mxPoint x="1376.06" y="2616" as="targetPoint" />
          </mxGeometry>
        </mxCell>
        <mxCell id="UnBP7zHp0_nx1okpZba--961" style="edgeStyle=orthogonalEdgeStyle;rounded=0;orthogonalLoop=1;jettySize=auto;html=1;exitX=1;exitY=0.5;exitDx=0;exitDy=0;exitPerimeter=0;fontFamily=Poppins;fontSource=https%3A%2F%2Ffonts.googleapis.com%2Fcss%3Ffamily%3DPoppins;startArrow=none;startFill=0;endArrow=classic;endFill=1;" edge="1" parent="1" source="UnBP7zHp0_nx1okpZba--946" target="UnBP7zHp0_nx1okpZba--958">
          <mxGeometry relative="1" as="geometry" />
        </mxCell>
        <mxCell id="UnBP7zHp0_nx1okpZba--962" value="" style="endArrow=classic;html=1;rounded=0;fontFamily=Poppins;fontSource=https%3A%2F%2Ffonts.googleapis.com%2Fcss%3Ffamily%3DPoppins;entryX=0.5;entryY=0;entryDx=0;entryDy=0;entryPerimeter=0;edgeStyle=orthogonalEdgeStyle;" edge="1" parent="1" source="UnBP7zHp0_nx1okpZba--952" target="UnBP7zHp0_nx1okpZba--946">
          <mxGeometry width="50" height="50" relative="1" as="geometry">
            <mxPoint x="1594" y="2536" as="sourcePoint" />
            <mxPoint x="1644" y="2486" as="targetPoint" />
          </mxGeometry>
        </mxCell>
        <mxCell id="UnBP7zHp0_nx1okpZba--963" value="Monitoring and managment CI/CD Pipeline" style="fillColor=none;strokeColor=#5A6C86;dashed=1;verticalAlign=top;fontStyle=0;fontColor=#5A6C86;fontFamily=Poppins;fontSource=https%3A%2F%2Ffonts.googleapis.com%2Fcss%3Ffamily%3DPoppins;container=0;strokeWidth=2;" vertex="1" parent="1">
          <mxGeometry x="924" y="2781" width="868" height="150.75" as="geometry" />
        </mxCell>
        <mxCell id="UnBP7zHp0_nx1okpZba--936" value="&lt;b&gt;Amazon CloudWatch&lt;br&gt;&lt;/b&gt;" style="sketch=0;points=[[0,0,0],[0.25,0,0],[0.5,0,0],[0.75,0,0],[1,0,0],[0,1,0],[0.25,1,0],[0.5,1,0],[0.75,1,0],[1,1,0],[0,0.25,0],[0,0.5,0],[0,0.75,0],[1,0.25,0],[1,0.5,0],[1,0.75,0]];points=[[0,0,0],[0.25,0,0],[0.5,0,0],[0.75,0,0],[1,0,0],[0,1,0],[0.25,1,0],[0.5,1,0],[0.75,1,0],[1,1,0],[0,0.25,0],[0,0.5,0],[0,0.75,0],[1,0.25,0],[1,0.5,0],[1,0.75,0]];outlineConnect=0;fontColor=#232F3E;gradientColor=#F34482;gradientDirection=north;fillColor=#BC1356;strokeColor=#ffffff;dashed=0;verticalLabelPosition=bottom;verticalAlign=top;align=center;html=1;fontSize=12;fontStyle=0;aspect=fixed;shape=mxgraph.aws4.resourceIcon;resIcon=mxgraph.aws4.cloudwatch_2;labelBackgroundColor=#FFFFFF;strokeWidth=1;fontFamily=Poppins;fontSource=https%3A%2F%2Ffonts.googleapis.com%2Fcss%3Ffamily%3DPoppins;container=0;" vertex="1" parent="1">
          <mxGeometry x="1658" y="2812.75" width="78" height="78" as="geometry" />
        </mxCell>
        <mxCell id="UnBP7zHp0_nx1okpZba--937" value="&lt;b&gt;Event Analyzer&lt;/b&gt;" style="sketch=0;points=[[0,0,0],[0.25,0,0],[0.5,0,0],[0.75,0,0],[1,0,0],[0,1,0],[0.25,1,0],[0.5,1,0],[0.75,1,0],[1,1,0],[0,0.25,0],[0,0.5,0],[0,0.75,0],[1,0.25,0],[1,0.5,0],[1,0.75,0]];outlineConnect=0;fontColor=#232F3E;gradientColor=#F78E04;gradientDirection=north;fillColor=#D05C17;strokeColor=#ffffff;dashed=0;verticalLabelPosition=bottom;verticalAlign=top;align=center;html=1;fontSize=12;fontStyle=0;aspect=fixed;shape=mxgraph.aws4.resourceIcon;resIcon=mxgraph.aws4.lambda;labelBackgroundColor=#FFFFFF;strokeWidth=1;fontFamily=Poppins;fontSource=https%3A%2F%2Ffonts.googleapis.com%2Fcss%3Ffamily%3DPoppins;container=0;" vertex="1" parent="1">
          <mxGeometry x="1485" y="2812.75" width="78" height="78" as="geometry" />
        </mxCell>
        <mxCell id="UnBP7zHp0_nx1okpZba--938" style="edgeStyle=orthogonalEdgeStyle;rounded=0;orthogonalLoop=1;jettySize=auto;html=1;exitX=0;exitY=0.5;exitDx=0;exitDy=0;exitPerimeter=0;entryX=1;entryY=0.5;entryDx=0;entryDy=0;entryPerimeter=0;fontFamily=Poppins;fontSource=https%3A%2F%2Ffonts.googleapis.com%2Fcss%3Ffamily%3DPoppins;startArrow=none;startFill=0;endArrow=classic;endFill=1;" edge="1" parent="1" source="UnBP7zHp0_nx1okpZba--936" target="UnBP7zHp0_nx1okpZba--937">
          <mxGeometry relative="1" as="geometry" />
        </mxCell>
        <mxCell id="UnBP7zHp0_nx1okpZba--939" value="&lt;b&gt;Amazon Athena&lt;/b&gt;" style="sketch=0;points=[[0,0,0],[0.25,0,0],[0.5,0,0],[0.75,0,0],[1,0,0],[0,1,0],[0.25,1,0],[0.5,1,0],[0.75,1,0],[1,1,0],[0,0.25,0],[0,0.5,0],[0,0.75,0],[1,0.25,0],[1,0.5,0],[1,0.75,0]];outlineConnect=0;fontColor=#232F3E;gradientColor=#945DF2;gradientDirection=north;fillColor=#5A30B5;strokeColor=#ffffff;dashed=0;verticalLabelPosition=bottom;verticalAlign=top;align=center;html=1;fontSize=12;fontStyle=0;aspect=fixed;shape=mxgraph.aws4.resourceIcon;resIcon=mxgraph.aws4.athena;labelBackgroundColor=none;strokeWidth=3;fontFamily=Poppins;fontSource=https%3A%2F%2Ffonts.googleapis.com%2Fcss%3Ffamily%3DPoppins;container=0;" vertex="1" parent="1">
          <mxGeometry x="1148" y="2812.75" width="78" height="78" as="geometry" />
        </mxCell>
        <mxCell id="UnBP7zHp0_nx1okpZba--940" style="edgeStyle=orthogonalEdgeStyle;rounded=0;orthogonalLoop=1;jettySize=auto;html=1;exitX=0;exitY=0.5;exitDx=0;exitDy=0;exitPerimeter=0;fontFamily=Poppins;fontSource=https%3A%2F%2Ffonts.googleapis.com%2Fcss%3Ffamily%3DPoppins;startArrow=none;startFill=0;endArrow=classic;endFill=1;" edge="1" parent="1" source="UnBP7zHp0_nx1okpZba--941" target="UnBP7zHp0_nx1okpZba--939">
          <mxGeometry relative="1" as="geometry" />
        </mxCell>
        <mxCell id="UnBP7zHp0_nx1okpZba--941" value="&lt;b&gt;Amazon S3&lt;/b&gt;" style="sketch=0;points=[[0,0,0],[0.25,0,0],[0.5,0,0],[0.75,0,0],[1,0,0],[0,1,0],[0.25,1,0],[0.5,1,0],[0.75,1,0],[1,1,0],[0,0.25,0],[0,0.5,0],[0,0.75,0],[1,0.25,0],[1,0.5,0],[1,0.75,0]];outlineConnect=0;fontColor=#232F3E;gradientColor=#60A337;gradientDirection=north;fillColor=#277116;strokeColor=#ffffff;dashed=0;verticalLabelPosition=bottom;verticalAlign=top;align=center;html=1;fontSize=12;fontStyle=0;aspect=fixed;shape=mxgraph.aws4.resourceIcon;resIcon=mxgraph.aws4.s3;fontFamily=Poppins;fontSource=https%3A%2F%2Ffonts.googleapis.com%2Fcss%3Ffamily%3DPoppins;labelPosition=center;container=0;" vertex="1" parent="1">
          <mxGeometry x="1318" y="2812.75" width="78" height="78" as="geometry" />
        </mxCell>
        <mxCell id="UnBP7zHp0_nx1okpZba--942" style="edgeStyle=orthogonalEdgeStyle;rounded=0;orthogonalLoop=1;jettySize=auto;html=1;exitX=0;exitY=0.5;exitDx=0;exitDy=0;exitPerimeter=0;fontFamily=Poppins;fontSource=https%3A%2F%2Ffonts.googleapis.com%2Fcss%3Ffamily%3DPoppins;startArrow=none;startFill=0;endArrow=classic;endFill=1;" edge="1" parent="1" source="UnBP7zHp0_nx1okpZba--937" target="UnBP7zHp0_nx1okpZba--941">
          <mxGeometry relative="1" as="geometry" />
        </mxCell>
        <mxCell id="UnBP7zHp0_nx1okpZba--943" value="&lt;b&gt;Amazon QuickSight&lt;/b&gt;" style="sketch=0;points=[[0,0,0],[0.25,0,0],[0.5,0,0],[0.75,0,0],[1,0,0],[0,1,0],[0.25,1,0],[0.5,1,0],[0.75,1,0],[1,1,0],[0,0.25,0],[0,0.5,0],[0,0.75,0],[1,0.25,0],[1,0.5,0],[1,0.75,0]];outlineConnect=0;fontColor=#232F3E;gradientColor=#945DF2;gradientDirection=north;fillColor=#5A30B5;strokeColor=#ffffff;dashed=0;verticalLabelPosition=bottom;verticalAlign=top;align=center;html=1;fontSize=12;fontStyle=0;aspect=fixed;shape=mxgraph.aws4.resourceIcon;resIcon=mxgraph.aws4.quicksight;labelBackgroundColor=none;strokeWidth=3;fontFamily=Poppins;fontSource=https%3A%2F%2Ffonts.googleapis.com%2Fcss%3Ffamily%3DPoppins;container=0;" vertex="1" parent="1">
          <mxGeometry x="977" y="2812.75" width="78" height="78" as="geometry" />
        </mxCell>
        <mxCell id="UnBP7zHp0_nx1okpZba--944" style="edgeStyle=orthogonalEdgeStyle;rounded=0;orthogonalLoop=1;jettySize=auto;html=1;exitX=0;exitY=0.5;exitDx=0;exitDy=0;exitPerimeter=0;entryX=1;entryY=0.5;entryDx=0;entryDy=0;entryPerimeter=0;fontFamily=Poppins;fontSource=https%3A%2F%2Ffonts.googleapis.com%2Fcss%3Ffamily%3DPoppins;startArrow=none;startFill=0;endArrow=classic;endFill=1;" edge="1" parent="1" source="UnBP7zHp0_nx1okpZba--939" target="UnBP7zHp0_nx1okpZba--943">
          <mxGeometry relative="1" as="geometry" />
        </mxCell>
      </root>
    </mxGraphModel>
  </diagram>
</mxfile>
